<?xml version="1.0" encoding="UTF-8" standalone="no"?>
<!DOCTYPE svg PUBLIC "-//W3C//DTD SVG 1.1//EN"
 "http://www.w3.org/Graphics/SVG/1.1/DTD/svg11.dtd">
<!-- Generated by graphviz version 2.47.3 (20210619.1520)
 -->
<!-- Title: dependencies Pages: 1 -->
<svg width="908pt" height="174pt"
 viewBox="0.00 0.00 908.00 173.80" xmlns="http://www.w3.org/2000/svg" xmlns:xlink="http://www.w3.org/1999/xlink">
<g id="graph0" class="graph" transform="scale(1 1) rotate(0) translate(4 169.8)">
<title>dependencies</title>
<polygon fill="white" stroke="transparent" points="-4,4 -4,-169.8 904,-169.8 904,4 -4,4"/>
<text text-anchor="middle" x="450" y="-8.2" font-family="sans-serif" font-size="14.00">dependencies</text>
<g id="clust1" class="cluster">
<title>cluster_EquipoModule</title>
<polygon fill="none" stroke="black" stroke-dasharray="1,5" points="8,-32.8 8,-157.8 892,-157.8 892,-32.8 8,-32.8"/>
</g>
<g id="clust8" class="cluster">
<title>cluster_EquipoModule_imports</title>
<polygon fill="none" stroke="black" points="722,-40.8 722,-92.8 884,-92.8 884,-40.8 722,-40.8"/>
</g>
<g id="clust2" class="cluster">
<title>cluster_EquipoModule_declarations</title>
<polygon fill="none" stroke="black" points="16,-40.8 16,-92.8 714,-92.8 714,-40.8 16,-40.8"/>
</g>
<!-- ActualizarComponent -->
<g id="node1" class="node">
<title>ActualizarComponent</title>
<polygon fill="#ffffb3" stroke="black" points="705.63,-84.8 566.37,-84.8 566.37,-48.8 705.63,-48.8 705.63,-84.8"/>
<text text-anchor="middle" x="636" y="-62.6" font-family="Times,serif" font-size="14.00">ActualizarComponent</text>
</g>
<!-- EquipoModule -->
<g id="node6" class="node">
<title>EquipoModule</title>
<polygon fill="#8dd3c7" stroke="black" points="459.99,-149.8 456.99,-153.8 435.99,-153.8 432.99,-149.8 360.01,-149.8 360.01,-113.8 459.99,-113.8 459.99,-149.8"/>
<text text-anchor="middle" x="410" y="-127.6" font-family="Times,serif" font-size="14.00">EquipoModule</text>
</g>
<!-- ActualizarComponent&#45;&gt;EquipoModule -->
<g id="edge1" class="edge">
<title>ActualizarComponent&#45;&gt;EquipoModule</title>
<path fill="none" stroke="black" d="M636,-84.82C636,-102.17 636,-125.8 636,-125.8 636,-125.8 470.16,-125.8 470.16,-125.8"/>
<polygon fill="black" stroke="black" points="470.16,-122.3 460.16,-125.8 470.16,-129.3 470.16,-122.3"/>
</g>
<!-- EliminarComponent -->
<g id="node2" class="node">
<title>EliminarComponent</title>
<polygon fill="#ffffb3" stroke="black" points="548.32,-84.8 417.68,-84.8 417.68,-48.8 548.32,-48.8 548.32,-84.8"/>
<text text-anchor="middle" x="483" y="-62.6" font-family="Times,serif" font-size="14.00">EliminarComponent</text>
</g>
<!-- EliminarComponent&#45;&gt;EquipoModule -->
<g id="edge2" class="edge">
<title>EliminarComponent&#45;&gt;EquipoModule</title>
<path fill="none" stroke="black" d="M438.92,-84.91C438.92,-84.91 438.92,-103.79 438.92,-103.79"/>
<polygon fill="black" stroke="black" points="435.42,-103.79 438.92,-113.79 442.42,-103.79 435.42,-103.79"/>
</g>
<!-- InsertarComponent -->
<g id="node3" class="node">
<title>InsertarComponent</title>
<polygon fill="#ffffb3" stroke="black" points="400.08,-84.8 275.92,-84.8 275.92,-48.8 400.08,-48.8 400.08,-84.8"/>
<text text-anchor="middle" x="338" y="-62.6" font-family="Times,serif" font-size="14.00">InsertarComponent</text>
</g>
<!-- InsertarComponent&#45;&gt;EquipoModule -->
<g id="edge3" class="edge">
<title>InsertarComponent&#45;&gt;EquipoModule</title>
<path fill="none" stroke="black" d="M380.02,-84.91C380.02,-84.91 380.02,-103.79 380.02,-103.79"/>
<polygon fill="black" stroke="black" points="376.52,-103.79 380.02,-113.79 383.52,-103.79 376.52,-103.79"/>
</g>
<!-- ListarComponent -->
<g id="node4" class="node">
<title>ListarComponent</title>
<polygon fill="#ffffb3" stroke="black" points="257.99,-84.8 144.01,-84.8 144.01,-48.8 257.99,-48.8 257.99,-84.8"/>
<text text-anchor="middle" x="201" y="-62.6" font-family="Times,serif" font-size="14.00">ListarComponent</text>
</g>
<!-- ListarComponent&#45;&gt;EquipoModule -->
<g id="edge4" class="edge">
<title>ListarComponent&#45;&gt;EquipoModule</title>
<path fill="none" stroke="black" d="M201,-84.82C201,-102.17 201,-125.8 201,-125.8 201,-125.8 349.94,-125.8 349.94,-125.8"/>
<polygon fill="black" stroke="black" points="349.94,-129.3 359.94,-125.8 349.94,-122.3 349.94,-129.3"/>
</g>
<!-- VerComponent -->
<g id="node5" class="node">
<title>VerComponent</title>
<polygon fill="#ffffb3" stroke="black" points="126.31,-84.8 23.69,-84.8 23.69,-48.8 126.31,-48.8 126.31,-84.8"/>
<text text-anchor="middle" x="75" y="-62.6" font-family="Times,serif" font-size="14.00">VerComponent</text>
</g>
<!-- VerComponent&#45;&gt;EquipoModule -->
<g id="edge5" class="edge">
<title>VerComponent&#45;&gt;EquipoModule</title>
<path fill="none" stroke="black" d="M75,-85.08C75,-106.12 75,-137.8 75,-137.8 75,-137.8 349.85,-137.8 349.85,-137.8"/>
<polygon fill="black" stroke="black" points="349.85,-141.3 359.85,-137.8 349.85,-134.3 349.85,-141.3"/>
</g>
<!-- EquipoRoutingModule -->
<g id="node7" class="node">
<title>EquipoRoutingModule</title>
<polygon fill="#8dd3c7" stroke="black" points="875.61,-84.8 872.61,-88.8 851.61,-88.8 848.61,-84.8 730.39,-84.8 730.39,-48.8 875.61,-48.8 875.61,-84.8"/>
<text text-anchor="middle" x="803" y="-62.6" font-family="Times,serif" font-size="14.00">EquipoRoutingModule</text>
</g>
<!-- EquipoRoutingModule&#45;&gt;EquipoModule -->
<g id="edge6" class="edge">
<title>EquipoRoutingModule&#45;&gt;EquipoModule</title>
<path fill="none" stroke="black" d="M803,-85.08C803,-106.12 803,-137.8 803,-137.8 803,-137.8 470.17,-137.8 470.17,-137.8"/>
<polygon fill="black" stroke="black" points="470.17,-134.3 460.17,-137.8 470.17,-141.3 470.17,-134.3"/>
</g>
</g>
</svg>
