<?xml version="1.0" encoding="UTF-8" standalone="no"?>
<!DOCTYPE svg PUBLIC "-//W3C//DTD SVG 1.1//EN"
 "http://www.w3.org/Graphics/SVG/1.1/DTD/svg11.dtd">
<!-- Generated by graphviz version 2.47.3 (20210619.1520)
 -->
<!-- Title: dependencies Pages: 1 -->
<svg width="548pt" height="174pt"
 viewBox="0.00 0.00 548.00 173.80" xmlns="http://www.w3.org/2000/svg" xmlns:xlink="http://www.w3.org/1999/xlink">
<g id="graph0" class="graph" transform="scale(1 1) rotate(0) translate(4 169.8)">
<title>dependencies</title>
<polygon fill="white" stroke="transparent" points="-4,4 -4,-169.8 544,-169.8 544,4 -4,4"/>
<text text-anchor="middle" x="270" y="-8.2" font-family="sans-serif" font-size="14.00">dependencies</text>
<g id="clust1" class="cluster">
<title>cluster_RevisarDisenoModule</title>
<polygon fill="none" stroke="black" stroke-dasharray="1,5" points="8,-32.8 8,-157.8 532,-157.8 532,-32.8 8,-32.8"/>
</g>
<g id="clust2" class="cluster">
<title>cluster_RevisarDisenoModule_declarations</title>
<polygon fill="none" stroke="black" points="344,-40.8 344,-92.8 524,-92.8 524,-40.8 344,-40.8"/>
</g>
<g id="clust4" class="cluster">
<title>cluster_RevisarDisenoModule_imports</title>
<polygon fill="none" stroke="black" points="16,-40.8 16,-92.8 336,-92.8 336,-40.8 16,-40.8"/>
</g>
<!-- RevisarDisenoComponent -->
<g id="node1" class="node">
<title>RevisarDisenoComponent</title>
<polygon fill="#ffffb3" stroke="black" points="515.75,-84.8 352.25,-84.8 352.25,-48.8 515.75,-48.8 515.75,-84.8"/>
<text text-anchor="middle" x="434" y="-62.6" font-family="Times,serif" font-size="14.00">RevisarDisenoComponent</text>
</g>
<!-- RevisarDisenoModule -->
<g id="node2" class="node">
<title>RevisarDisenoModule</title>
<polygon fill="#8dd3c7" stroke="black" points="304.97,-149.8 301.97,-153.8 280.97,-153.8 277.97,-149.8 163.03,-149.8 163.03,-113.8 304.97,-113.8 304.97,-149.8"/>
<text text-anchor="middle" x="234" y="-127.6" font-family="Times,serif" font-size="14.00">RevisarDisenoModule</text>
</g>
<!-- RevisarDisenoComponent&#45;&gt;RevisarDisenoModule -->
<g id="edge1" class="edge">
<title>RevisarDisenoComponent&#45;&gt;RevisarDisenoModule</title>
<path fill="none" stroke="black" d="M434,-84.91C434,-104.14 434,-131.8 434,-131.8 434,-131.8 315.08,-131.8 315.08,-131.8"/>
<polygon fill="black" stroke="black" points="315.08,-128.3 305.08,-131.8 315.08,-135.3 315.08,-128.3"/>
</g>
<!-- RevisarDisenoRoutingModule -->
<g id="node3" class="node">
<title>RevisarDisenoRoutingModule</title>
<polygon fill="#8dd3c7" stroke="black" points="327.59,-84.8 324.59,-88.8 303.59,-88.8 300.59,-84.8 140.41,-84.8 140.41,-48.8 327.59,-48.8 327.59,-84.8"/>
<text text-anchor="middle" x="234" y="-62.6" font-family="Times,serif" font-size="14.00">RevisarDisenoRoutingModule</text>
</g>
<!-- RevisarDisenoRoutingModule&#45;&gt;RevisarDisenoModule -->
<g id="edge2" class="edge">
<title>RevisarDisenoRoutingModule&#45;&gt;RevisarDisenoModule</title>
<path fill="none" stroke="black" d="M234,-84.91C234,-84.91 234,-103.79 234,-103.79"/>
<polygon fill="black" stroke="black" points="230.5,-103.79 234,-113.79 237.5,-103.79 230.5,-103.79"/>
</g>
<!-- SharedModule -->
<g id="node4" class="node">
<title>SharedModule</title>
<polygon fill="#8dd3c7" stroke="black" points="122.42,-84.8 119.42,-88.8 98.42,-88.8 95.42,-84.8 23.58,-84.8 23.58,-48.8 122.42,-48.8 122.42,-84.8"/>
<text text-anchor="middle" x="73" y="-62.6" font-family="Times,serif" font-size="14.00">SharedModule</text>
</g>
<!-- SharedModule&#45;&gt;RevisarDisenoModule -->
<g id="edge3" class="edge">
<title>SharedModule&#45;&gt;RevisarDisenoModule</title>
<path fill="none" stroke="black" d="M73,-84.91C73,-104.14 73,-131.8 73,-131.8 73,-131.8 152.91,-131.8 152.91,-131.8"/>
<polygon fill="black" stroke="black" points="152.91,-135.3 162.91,-131.8 152.91,-128.3 152.91,-135.3"/>
</g>
</g>
</svg>
