<?xml version="1.0" encoding="UTF-8" standalone="no"?>
<!DOCTYPE svg PUBLIC "-//W3C//DTD SVG 1.1//EN"
 "http://www.w3.org/Graphics/SVG/1.1/DTD/svg11.dtd">
<!-- Generated by graphviz version 2.47.3 (20210619.1520)
 -->
<!-- Title: dependencies Pages: 1 -->
<svg width="582pt" height="174pt"
 viewBox="0.00 0.00 582.00 173.80" xmlns="http://www.w3.org/2000/svg" xmlns:xlink="http://www.w3.org/1999/xlink">
<g id="graph0" class="graph" transform="scale(1 1) rotate(0) translate(4 169.8)">
<title>dependencies</title>
<polygon fill="white" stroke="transparent" points="-4,4 -4,-169.8 578,-169.8 578,4 -4,4"/>
<text text-anchor="middle" x="287" y="-8.2" font-family="sans-serif" font-size="14.00">dependencies</text>
<g id="clust1" class="cluster">
<title>cluster_AlcaldiasModule</title>
<polygon fill="none" stroke="black" stroke-dasharray="1,5" points="8,-32.8 8,-157.8 566,-157.8 566,-32.8 8,-32.8"/>
</g>
<g id="clust2" class="cluster">
<title>cluster_AlcaldiasModule_declarations</title>
<polygon fill="none" stroke="black" points="198,-40.8 198,-92.8 558,-92.8 558,-40.8 198,-40.8"/>
</g>
<g id="clust5" class="cluster">
<title>cluster_AlcaldiasModule_imports</title>
<polygon fill="none" stroke="black" points="16,-40.8 16,-92.8 190,-92.8 190,-40.8 16,-40.8"/>
</g>
<!-- AlcaldiasComponent -->
<g id="node1" class="node">
<title>AlcaldiasComponent</title>
<polygon fill="#ffffb3" stroke="black" points="550.2,-84.8 415.8,-84.8 415.8,-48.8 550.2,-48.8 550.2,-84.8"/>
<text text-anchor="middle" x="483" y="-62.6" font-family="Times,serif" font-size="14.00">AlcaldiasComponent</text>
</g>
<!-- AlcaldiasModule -->
<g id="node3" class="node">
<title>AlcaldiasModule</title>
<polygon fill="#8dd3c7" stroke="black" points="358.42,-149.8 355.42,-153.8 334.42,-153.8 331.42,-149.8 245.58,-149.8 245.58,-113.8 358.42,-113.8 358.42,-149.8"/>
<text text-anchor="middle" x="302" y="-127.6" font-family="Times,serif" font-size="14.00">AlcaldiasModule</text>
</g>
<!-- AlcaldiasComponent&#45;&gt;AlcaldiasModule -->
<g id="edge1" class="edge">
<title>AlcaldiasComponent&#45;&gt;AlcaldiasModule</title>
<path fill="none" stroke="black" d="M483,-84.91C483,-104.14 483,-131.8 483,-131.8 483,-131.8 368.28,-131.8 368.28,-131.8"/>
<polygon fill="black" stroke="black" points="368.28,-128.3 358.28,-131.8 368.28,-135.3 368.28,-128.3"/>
</g>
<!-- CambioContraseniaComponent -->
<g id="node2" class="node">
<title>CambioContraseniaComponent</title>
<polygon fill="#ffffb3" stroke="black" points="398.03,-84.8 205.97,-84.8 205.97,-48.8 398.03,-48.8 398.03,-84.8"/>
<text text-anchor="middle" x="302" y="-62.6" font-family="Times,serif" font-size="14.00">CambioContraseniaComponent</text>
</g>
<!-- CambioContraseniaComponent&#45;&gt;AlcaldiasModule -->
<g id="edge2" class="edge">
<title>CambioContraseniaComponent&#45;&gt;AlcaldiasModule</title>
<path fill="none" stroke="black" d="M302,-84.91C302,-84.91 302,-103.79 302,-103.79"/>
<polygon fill="black" stroke="black" points="298.5,-103.79 302,-113.79 305.5,-103.79 298.5,-103.79"/>
</g>
<!-- AlcaldiasRoutingModule -->
<g id="node4" class="node">
<title>AlcaldiasRoutingModule</title>
<polygon fill="#8dd3c7" stroke="black" points="181.54,-84.8 178.54,-88.8 157.54,-88.8 154.54,-84.8 24.46,-84.8 24.46,-48.8 181.54,-48.8 181.54,-84.8"/>
<text text-anchor="middle" x="103" y="-62.6" font-family="Times,serif" font-size="14.00">AlcaldiasRoutingModule</text>
</g>
<!-- AlcaldiasRoutingModule&#45;&gt;AlcaldiasModule -->
<g id="edge3" class="edge">
<title>AlcaldiasRoutingModule&#45;&gt;AlcaldiasModule</title>
<path fill="none" stroke="black" d="M103,-84.91C103,-104.14 103,-131.8 103,-131.8 103,-131.8 235.77,-131.8 235.77,-131.8"/>
<polygon fill="black" stroke="black" points="235.77,-135.3 245.77,-131.8 235.77,-128.3 235.77,-135.3"/>
</g>
</g>
</svg>
