<?xml version="1.0" encoding="UTF-8" standalone="no"?>
<!DOCTYPE svg PUBLIC "-//W3C//DTD SVG 1.1//EN"
 "http://www.w3.org/Graphics/SVG/1.1/DTD/svg11.dtd">
<!-- Generated by graphviz version 2.47.3 (20210619.1520)
 -->
<!-- Title: dependencies Pages: 1 -->
<svg width="3879pt" height="247pt"
 viewBox="0.00 0.00 3879.00 246.80" xmlns="http://www.w3.org/2000/svg" xmlns:xlink="http://www.w3.org/1999/xlink">
<g id="graph0" class="graph" transform="scale(1 1) rotate(0) translate(4 242.8)">
<title>dependencies</title>
<polygon fill="white" stroke="transparent" points="-4,4 -4,-242.8 3875,-242.8 3875,4 -4,4"/>
<text text-anchor="middle" x="1935.5" y="-8.2" font-family="sans-serif" font-size="14.00">dependencies</text>
<g id="clust1" class="cluster">
<title>cluster_RegistroVisitaDiagnosticoModule</title>
<polygon fill="none" stroke="black" stroke-dasharray="1,5" points="8,-32.8 8,-230.8 3863,-230.8 3863,-32.8 8,-32.8"/>
</g>
<g id="clust2" class="cluster">
<title>cluster_RegistroVisitaDiagnosticoModule_declarations</title>
<polygon fill="none" stroke="black" points="1217,-40.8 1217,-92.8 3855,-92.8 3855,-40.8 1217,-40.8"/>
</g>
<g id="clust19" class="cluster">
<title>cluster_RegistroVisitaDiagnosticoModule_providers</title>
<polygon fill="none" stroke="black" points="576,-40.8 576,-92.8 1209,-92.8 1209,-40.8 576,-40.8"/>
</g>
<g id="clust17" class="cluster">
<title>cluster_RegistroVisitaDiagnosticoModule_exports</title>
<polygon fill="none" stroke="black" points="1947,-170.8 1947,-222.8 2171,-222.8 2171,-170.8 1947,-170.8"/>
</g>
<g id="clust16" class="cluster">
<title>cluster_RegistroVisitaDiagnosticoModule_imports</title>
<polygon fill="none" stroke="black" points="16,-40.8 16,-92.8 568,-92.8 568,-40.8 16,-40.8"/>
</g>
<!-- ActualizarApiquesComponent -->
<g id="node1" class="node">
<title>ActualizarApiquesComponent</title>
<polygon fill="#ffffb3" stroke="black" points="3847.29,-84.8 3660.71,-84.8 3660.71,-48.8 3847.29,-48.8 3847.29,-84.8"/>
<text text-anchor="middle" x="3754" y="-62.6" font-family="Times,serif" font-size="14.00">ActualizarApiquesComponent</text>
</g>
<!-- RegistroVisitaDiagnosticoModule -->
<g id="node14" class="node">
<title>RegistroVisitaDiagnosticoModule</title>
<polygon fill="#8dd3c7" stroke="black" points="2163.08,-149.8 2160.08,-153.8 2139.08,-153.8 2136.08,-149.8 1954.92,-149.8 1954.92,-113.8 2163.08,-113.8 2163.08,-149.8"/>
<text text-anchor="middle" x="2059" y="-127.6" font-family="Times,serif" font-size="14.00">RegistroVisitaDiagnosticoModule</text>
</g>
<!-- ActualizarApiquesComponent&#45;&gt;RegistroVisitaDiagnosticoModule -->
<g id="edge1" class="edge">
<title>ActualizarApiquesComponent&#45;&gt;RegistroVisitaDiagnosticoModule</title>
<path fill="none" stroke="black" d="M3754,-85.12C3754,-108.46 3754,-145.8 3754,-145.8 3754,-145.8 2173.11,-145.8 2173.11,-145.8"/>
<polygon fill="black" stroke="black" points="2173.11,-142.3 2163.11,-145.8 2173.11,-149.3 2173.11,-142.3"/>
</g>
<!-- ApiquesAledaniosComponent -->
<g id="node2" class="node">
<title>ApiquesAledaniosComponent</title>
<polygon fill="#ffffb3" stroke="black" points="3642.25,-84.8 3457.75,-84.8 3457.75,-48.8 3642.25,-48.8 3642.25,-84.8"/>
<text text-anchor="middle" x="3550" y="-62.6" font-family="Times,serif" font-size="14.00">ApiquesAledaniosComponent</text>
</g>
<!-- ApiquesAledaniosComponent&#45;&gt;RegistroVisitaDiagnosticoModule -->
<g id="edge2" class="edge">
<title>ApiquesAledaniosComponent&#45;&gt;RegistroVisitaDiagnosticoModule</title>
<path fill="none" stroke="black" d="M3550,-84.96C3550,-107.15 3550,-141.8 3550,-141.8 3550,-141.8 2173.25,-141.8 2173.25,-141.8"/>
<polygon fill="black" stroke="black" points="2173.25,-138.3 2163.25,-141.8 2173.25,-145.3 2173.25,-138.3"/>
</g>
<!-- AutoprogramarVisitaComponent -->
<g id="node3" class="node">
<title>AutoprogramarVisitaComponent</title>
<polygon fill="#ffffb3" stroke="black" points="3439.57,-84.8 3238.43,-84.8 3238.43,-48.8 3439.57,-48.8 3439.57,-84.8"/>
<text text-anchor="middle" x="3339" y="-62.6" font-family="Times,serif" font-size="14.00">AutoprogramarVisitaComponent</text>
</g>
<!-- AutoprogramarVisitaComponent&#45;&gt;RegistroVisitaDiagnosticoModule -->
<g id="edge3" class="edge">
<title>AutoprogramarVisitaComponent&#45;&gt;RegistroVisitaDiagnosticoModule</title>
<path fill="none" stroke="black" d="M3339,-85.08C3339,-106.12 3339,-137.8 3339,-137.8 3339,-137.8 2173.21,-137.8 2173.21,-137.8"/>
<polygon fill="black" stroke="black" points="2173.21,-134.3 2163.21,-137.8 2173.21,-141.3 2173.21,-134.3"/>
</g>
<!-- ListarApiquesComponent -->
<g id="node4" class="node">
<title>ListarApiquesComponent</title>
<polygon fill="#ffffb3" stroke="black" points="3220.14,-84.8 3059.86,-84.8 3059.86,-48.8 3220.14,-48.8 3220.14,-84.8"/>
<text text-anchor="middle" x="3140" y="-62.6" font-family="Times,serif" font-size="14.00">ListarApiquesComponent</text>
</g>
<!-- ListarApiquesComponent&#45;&gt;RegistroVisitaDiagnosticoModule -->
<g id="edge4" class="edge">
<title>ListarApiquesComponent&#45;&gt;RegistroVisitaDiagnosticoModule</title>
<path fill="none" stroke="black" d="M3140,-85.11C3140,-104.95 3140,-133.8 3140,-133.8 3140,-133.8 2173.14,-133.8 2173.14,-133.8"/>
<polygon fill="black" stroke="black" points="2173.14,-130.3 2163.14,-133.8 2173.14,-137.3 2173.14,-130.3"/>
</g>
<!-- ModalAutoprogramarComponent -->
<g id="node5" class="node">
<title>ModalAutoprogramarComponent</title>
<polygon fill="#ffffb3" stroke="black" points="3042.18,-84.8 2837.82,-84.8 2837.82,-48.8 3042.18,-48.8 3042.18,-84.8"/>
<text text-anchor="middle" x="2940" y="-62.6" font-family="Times,serif" font-size="14.00">ModalAutoprogramarComponent</text>
</g>
<!-- ModalAutoprogramarComponent&#45;&gt;RegistroVisitaDiagnosticoModule -->
<g id="edge5" class="edge">
<title>ModalAutoprogramarComponent&#45;&gt;RegistroVisitaDiagnosticoModule</title>
<path fill="none" stroke="black" d="M2940,-85.02C2940,-103.63 2940,-129.8 2940,-129.8 2940,-129.8 2173.09,-129.8 2173.09,-129.8"/>
<polygon fill="black" stroke="black" points="2173.09,-126.3 2163.09,-129.8 2173.09,-133.3 2173.09,-126.3"/>
</g>
<!-- RegistroApiqueComponent -->
<g id="node6" class="node">
<title>RegistroApiqueComponent</title>
<polygon fill="#ffffb3" stroke="black" points="2819.98,-84.8 2650.02,-84.8 2650.02,-48.8 2819.98,-48.8 2819.98,-84.8"/>
<text text-anchor="middle" x="2735" y="-62.6" font-family="Times,serif" font-size="14.00">RegistroApiqueComponent</text>
</g>
<!-- RegistroApiqueComponent&#45;&gt;RegistroVisitaDiagnosticoModule -->
<g id="edge6" class="edge">
<title>RegistroApiqueComponent&#45;&gt;RegistroVisitaDiagnosticoModule</title>
<path fill="none" stroke="black" d="M2735,-84.82C2735,-102.17 2735,-125.8 2735,-125.8 2735,-125.8 2173.14,-125.8 2173.14,-125.8"/>
<polygon fill="black" stroke="black" points="2173.14,-122.3 2163.14,-125.8 2173.14,-129.3 2173.14,-122.3"/>
</g>
<!-- RegistroFallasComponent -->
<g id="node7" class="node">
<title>RegistroFallasComponent</title>
<polygon fill="#ffffb3" stroke="black" points="2632.21,-84.8 2469.79,-84.8 2469.79,-48.8 2632.21,-48.8 2632.21,-84.8"/>
<text text-anchor="middle" x="2551" y="-62.6" font-family="Times,serif" font-size="14.00">RegistroFallasComponent</text>
</g>
<!-- RegistroFallasComponent&#45;&gt;RegistroVisitaDiagnosticoModule -->
<g id="edge7" class="edge">
<title>RegistroFallasComponent&#45;&gt;RegistroVisitaDiagnosticoModule</title>
<path fill="none" stroke="black" d="M2551,-84.81C2551,-100.85 2551,-121.8 2551,-121.8 2551,-121.8 2173.04,-121.8 2173.04,-121.8"/>
<polygon fill="black" stroke="black" points="2173.04,-118.3 2163.04,-121.8 2173.04,-125.3 2173.04,-118.3"/>
</g>
<!-- RegistroFotoComponent -->
<g id="node8" class="node">
<title>RegistroFotoComponent</title>
<polygon fill="#ffffb3" stroke="black" points="2452.44,-84.8 2297.56,-84.8 2297.56,-48.8 2452.44,-48.8 2452.44,-84.8"/>
<text text-anchor="middle" x="2375" y="-62.6" font-family="Times,serif" font-size="14.00">RegistroFotoComponent</text>
</g>
<!-- RegistroFotoComponent&#45;&gt;RegistroVisitaDiagnosticoModule -->
<g id="edge8" class="edge">
<title>RegistroFotoComponent&#45;&gt;RegistroVisitaDiagnosticoModule</title>
<path fill="none" stroke="black" d="M2375,-84.92C2375,-99.58 2375,-117.8 2375,-117.8 2375,-117.8 2173.35,-117.8 2173.35,-117.8"/>
<polygon fill="black" stroke="black" points="2173.35,-114.3 2163.35,-117.8 2173.35,-121.3 2173.35,-114.3"/>
</g>
<!-- RegistroOtrosFactoresComponent -->
<g id="node9" class="node">
<title>RegistroOtrosFactoresComponent</title>
<polygon fill="#ffffb3" stroke="black" points="2279.79,-84.8 2072.21,-84.8 2072.21,-48.8 2279.79,-48.8 2279.79,-84.8"/>
<text text-anchor="middle" x="2176" y="-62.6" font-family="Times,serif" font-size="14.00">RegistroOtrosFactoresComponent</text>
</g>
<!-- RegistroOtrosFactoresComponent&#45;&gt;RegistroVisitaDiagnosticoModule -->
<g id="edge9" class="edge">
<title>RegistroOtrosFactoresComponent&#45;&gt;RegistroVisitaDiagnosticoModule</title>
<path fill="none" stroke="black" d="M2117.7,-84.91C2117.7,-84.91 2117.7,-103.79 2117.7,-103.79"/>
<polygon fill="black" stroke="black" points="2114.2,-103.79 2117.7,-113.79 2121.2,-103.79 2114.2,-103.79"/>
</g>
<!-- RegistroUnidadMuestreoComponent -->
<g id="node10" class="node">
<title>RegistroUnidadMuestreoComponent</title>
<polygon fill="#ffffb3" stroke="black" points="2054.35,-84.8 1831.65,-84.8 1831.65,-48.8 2054.35,-48.8 2054.35,-84.8"/>
<text text-anchor="middle" x="1943" y="-62.6" font-family="Times,serif" font-size="14.00">RegistroUnidadMuestreoComponent</text>
</g>
<!-- RegistroUnidadMuestreoComponent&#45;&gt;RegistroVisitaDiagnosticoModule -->
<g id="edge10" class="edge">
<title>RegistroUnidadMuestreoComponent&#45;&gt;RegistroVisitaDiagnosticoModule</title>
<path fill="none" stroke="black" d="M2004.69,-84.91C2004.69,-84.91 2004.69,-103.79 2004.69,-103.79"/>
<polygon fill="black" stroke="black" points="2001.19,-103.79 2004.69,-113.79 2008.19,-103.79 2001.19,-103.79"/>
</g>
<!-- RegistroVisitaComponent -->
<g id="node11" class="node">
<title>RegistroVisitaComponent</title>
<polygon fill="#ffffb3" stroke="black" points="1813.21,-84.8 1650.79,-84.8 1650.79,-48.8 1813.21,-48.8 1813.21,-84.8"/>
<text text-anchor="middle" x="1732" y="-62.6" font-family="Times,serif" font-size="14.00">RegistroVisitaComponent</text>
</g>
<!-- RegistroVisitaComponent&#45;&gt;RegistroVisitaDiagnosticoModule -->
<g id="edge11" class="edge">
<title>RegistroVisitaComponent&#45;&gt;RegistroVisitaDiagnosticoModule</title>
<path fill="none" stroke="black" d="M1732,-84.92C1732,-99.58 1732,-117.8 1732,-117.8 1732,-117.8 1944.64,-117.8 1944.64,-117.8"/>
<polygon fill="black" stroke="black" points="1944.64,-121.3 1954.64,-117.8 1944.64,-114.3 1944.64,-121.3"/>
</g>
<!-- RegistroVisitaDiagnosticoComponent -->
<g id="node12" class="node">
<title>RegistroVisitaDiagnosticoComponent</title>
<polygon fill="#ffffb3" stroke="black" points="1632.86,-84.8 1403.14,-84.8 1403.14,-48.8 1632.86,-48.8 1632.86,-84.8"/>
<text text-anchor="middle" x="1518" y="-62.6" font-family="Times,serif" font-size="14.00">RegistroVisitaDiagnosticoComponent</text>
</g>
<!-- RegistroVisitaDiagnosticoComponent&#45;&gt;RegistroVisitaDiagnosticoModule -->
<g id="edge12" class="edge">
<title>RegistroVisitaDiagnosticoComponent&#45;&gt;RegistroVisitaDiagnosticoModule</title>
<path fill="none" stroke="black" d="M1518,-84.81C1518,-100.85 1518,-121.8 1518,-121.8 1518,-121.8 1944.69,-121.8 1944.69,-121.8"/>
<polygon fill="black" stroke="black" points="1944.69,-125.3 1954.69,-121.8 1944.69,-118.3 1944.69,-125.3"/>
</g>
<!-- UbicarApiqueComponent -->
<g id="node13" class="node">
<title>UbicarApiqueComponent</title>
<polygon fill="#ffffb3" stroke="black" points="1385.13,-84.8 1224.87,-84.8 1224.87,-48.8 1385.13,-48.8 1385.13,-84.8"/>
<text text-anchor="middle" x="1305" y="-62.6" font-family="Times,serif" font-size="14.00">UbicarApiqueComponent</text>
</g>
<!-- UbicarApiqueComponent&#45;&gt;RegistroVisitaDiagnosticoModule -->
<g id="edge13" class="edge">
<title>UbicarApiqueComponent&#45;&gt;RegistroVisitaDiagnosticoModule</title>
<path fill="none" stroke="black" d="M1305,-84.82C1305,-102.17 1305,-125.8 1305,-125.8 1305,-125.8 1944.95,-125.8 1944.95,-125.8"/>
<polygon fill="black" stroke="black" points="1944.95,-129.3 1954.95,-125.8 1944.95,-122.3 1944.95,-129.3"/>
</g>
<!-- ModalAutoprogramarComponent  -->
<g id="node18" class="node">
<title>ModalAutoprogramarComponent </title>
<polygon fill="#fb8072" stroke="black" points="2162.68,-214.8 1955.32,-214.8 1955.32,-178.8 2162.68,-178.8 2162.68,-214.8"/>
<text text-anchor="middle" x="2059" y="-192.6" font-family="Times,serif" font-size="14.00">ModalAutoprogramarComponent </text>
</g>
<!-- RegistroVisitaDiagnosticoModule&#45;&gt;ModalAutoprogramarComponent  -->
<g id="edge17" class="edge">
<title>RegistroVisitaDiagnosticoModule&#45;&gt;ModalAutoprogramarComponent </title>
<path fill="none" stroke="black" stroke-dasharray="5,2" d="M2059,-149.91C2059,-149.91 2059,-168.79 2059,-168.79"/>
<polygon fill="black" stroke="black" points="2055.5,-168.79 2059,-178.79 2062.5,-168.79 2055.5,-168.79"/>
</g>
<!-- GestionReservaModule -->
<g id="node15" class="node">
<title>GestionReservaModule</title>
<polygon fill="#8dd3c7" stroke="black" points="560.18,-84.8 557.18,-88.8 536.18,-88.8 533.18,-84.8 411.82,-84.8 411.82,-48.8 560.18,-48.8 560.18,-84.8"/>
<text text-anchor="middle" x="486" y="-62.6" font-family="Times,serif" font-size="14.00">GestionReservaModule</text>
</g>
<!-- GestionReservaModule&#45;&gt;RegistroVisitaDiagnosticoModule -->
<g id="edge14" class="edge">
<title>GestionReservaModule&#45;&gt;RegistroVisitaDiagnosticoModule</title>
<path fill="none" stroke="black" d="M486,-85.08C486,-106.12 486,-137.8 486,-137.8 486,-137.8 1944.88,-137.8 1944.88,-137.8"/>
<polygon fill="black" stroke="black" points="1944.88,-141.3 1954.88,-137.8 1944.88,-134.3 1944.88,-141.3"/>
</g>
<!-- RegistroVisitaDiagnosticoRoutingModule -->
<g id="node16" class="node">
<title>RegistroVisitaDiagnosticoRoutingModule</title>
<polygon fill="#8dd3c7" stroke="black" points="393.7,-84.8 390.7,-88.8 369.7,-88.8 366.7,-84.8 140.3,-84.8 140.3,-48.8 393.7,-48.8 393.7,-84.8"/>
<text text-anchor="middle" x="267" y="-62.6" font-family="Times,serif" font-size="14.00">RegistroVisitaDiagnosticoRoutingModule</text>
</g>
<!-- RegistroVisitaDiagnosticoRoutingModule&#45;&gt;RegistroVisitaDiagnosticoModule -->
<g id="edge15" class="edge">
<title>RegistroVisitaDiagnosticoRoutingModule&#45;&gt;RegistroVisitaDiagnosticoModule</title>
<path fill="none" stroke="black" d="M267,-84.96C267,-107.15 267,-141.8 267,-141.8 267,-141.8 1944.91,-141.8 1944.91,-141.8"/>
<polygon fill="black" stroke="black" points="1944.91,-145.3 1954.91,-141.8 1944.91,-138.3 1944.91,-145.3"/>
</g>
<!-- SharedModule -->
<g id="node17" class="node">
<title>SharedModule</title>
<polygon fill="#8dd3c7" stroke="black" points="122.42,-84.8 119.42,-88.8 98.42,-88.8 95.42,-84.8 23.58,-84.8 23.58,-48.8 122.42,-48.8 122.42,-84.8"/>
<text text-anchor="middle" x="73" y="-62.6" font-family="Times,serif" font-size="14.00">SharedModule</text>
</g>
<!-- SharedModule&#45;&gt;RegistroVisitaDiagnosticoModule -->
<g id="edge16" class="edge">
<title>SharedModule&#45;&gt;RegistroVisitaDiagnosticoModule</title>
<path fill="none" stroke="black" d="M73,-85.12C73,-108.46 73,-145.8 73,-145.8 73,-145.8 1944.67,-145.8 1944.67,-145.8"/>
<polygon fill="black" stroke="black" points="1944.67,-149.3 1954.67,-145.8 1944.67,-142.3 1944.67,-149.3"/>
</g>
<!-- FormFallasGeneradorService -->
<g id="node19" class="node">
<title>FormFallasGeneradorService</title>
<ellipse fill="#fdb462" stroke="black" cx="1076" cy="-66.8" rx="124.95" ry="18"/>
<text text-anchor="middle" x="1076" y="-62.6" font-family="Times,serif" font-size="14.00">FormFallasGeneradorService</text>
</g>
<!-- FormFallasGeneradorService&#45;&gt;RegistroVisitaDiagnosticoModule -->
<g id="edge18" class="edge">
<title>FormFallasGeneradorService&#45;&gt;RegistroVisitaDiagnosticoModule</title>
<path fill="none" stroke="black" d="M1076,-85.02C1076,-103.63 1076,-129.8 1076,-129.8 1076,-129.8 1944.73,-129.8 1944.73,-129.8"/>
<polygon fill="black" stroke="black" points="1944.73,-133.3 1954.73,-129.8 1944.73,-126.3 1944.73,-133.3"/>
</g>
<!-- FormUnidadesMuestreoGeneradorService -->
<g id="node20" class="node">
<title>FormUnidadesMuestreoGeneradorService</title>
<ellipse fill="#fdb462" stroke="black" cx="759" cy="-66.8" rx="174.7" ry="18"/>
<text text-anchor="middle" x="759" y="-62.6" font-family="Times,serif" font-size="14.00">FormUnidadesMuestreoGeneradorService</text>
</g>
<!-- FormUnidadesMuestreoGeneradorService&#45;&gt;RegistroVisitaDiagnosticoModule -->
<g id="edge19" class="edge">
<title>FormUnidadesMuestreoGeneradorService&#45;&gt;RegistroVisitaDiagnosticoModule</title>
<path fill="none" stroke="black" d="M759,-85.11C759,-104.95 759,-133.8 759,-133.8 759,-133.8 1944.81,-133.8 1944.81,-133.8"/>
<polygon fill="black" stroke="black" points="1944.81,-137.3 1954.81,-133.8 1944.81,-130.3 1944.81,-137.3"/>
</g>
</g>
</svg>
