<?xml version="1.0" encoding="UTF-8" standalone="no"?>
<!DOCTYPE svg PUBLIC "-//W3C//DTD SVG 1.1//EN"
 "http://www.w3.org/Graphics/SVG/1.1/DTD/svg11.dtd">
<!-- Generated by graphviz version 2.47.3 (20210619.1520)
 -->
<!-- Title: dependencies Pages: 1 -->
<svg width="348pt" height="174pt"
 viewBox="0.00 0.00 348.00 173.80" xmlns="http://www.w3.org/2000/svg" xmlns:xlink="http://www.w3.org/1999/xlink">
<g id="graph0" class="graph" transform="scale(1 1) rotate(0) translate(4 169.8)">
<title>dependencies</title>
<polygon fill="white" stroke="transparent" points="-4,4 -4,-169.8 344,-169.8 344,4 -4,4"/>
<text text-anchor="middle" x="170" y="-8.2" font-family="sans-serif" font-size="14.00">dependencies</text>
<g id="clust1" class="cluster">
<title>cluster_LugarModule</title>
<polygon fill="none" stroke="black" stroke-dasharray="1,5" points="8,-32.8 8,-157.8 332,-157.8 332,-32.8 8,-32.8"/>
</g>
<g id="clust2" class="cluster">
<title>cluster_LugarModule_declarations</title>
<polygon fill="none" stroke="black" points="178,-40.8 178,-92.8 324,-92.8 324,-40.8 178,-40.8"/>
</g>
<g id="clust4" class="cluster">
<title>cluster_LugarModule_imports</title>
<polygon fill="none" stroke="black" points="16,-40.8 16,-92.8 170,-92.8 170,-40.8 16,-40.8"/>
</g>
<!-- EliminarComponent -->
<g id="node1" class="node">
<title>EliminarComponent</title>
<polygon fill="#ffffb3" stroke="black" points="316.32,-84.8 185.68,-84.8 185.68,-48.8 316.32,-48.8 316.32,-84.8"/>
<text text-anchor="middle" x="251" y="-62.6" font-family="Times,serif" font-size="14.00">EliminarComponent</text>
</g>
<!-- LugarModule -->
<g id="node2" class="node">
<title>LugarModule</title>
<polygon fill="#8dd3c7" stroke="black" points="218.48,-149.8 215.48,-153.8 194.48,-153.8 191.48,-149.8 125.52,-149.8 125.52,-113.8 218.48,-113.8 218.48,-149.8"/>
<text text-anchor="middle" x="172" y="-127.6" font-family="Times,serif" font-size="14.00">LugarModule</text>
</g>
<!-- EliminarComponent&#45;&gt;LugarModule -->
<g id="edge1" class="edge">
<title>EliminarComponent&#45;&gt;LugarModule</title>
<path fill="none" stroke="black" d="M202.16,-84.91C202.16,-84.91 202.16,-103.79 202.16,-103.79"/>
<polygon fill="black" stroke="black" points="198.66,-103.79 202.16,-113.79 205.66,-103.79 198.66,-103.79"/>
</g>
<!-- LugarRoutingModule -->
<g id="node3" class="node">
<title>LugarRoutingModule</title>
<polygon fill="#8dd3c7" stroke="black" points="162.1,-84.8 159.1,-88.8 138.1,-88.8 135.1,-84.8 23.9,-84.8 23.9,-48.8 162.1,-48.8 162.1,-84.8"/>
<text text-anchor="middle" x="93" y="-62.6" font-family="Times,serif" font-size="14.00">LugarRoutingModule</text>
</g>
<!-- LugarRoutingModule&#45;&gt;LugarModule -->
<g id="edge2" class="edge">
<title>LugarRoutingModule&#45;&gt;LugarModule</title>
<path fill="none" stroke="black" d="M143.78,-84.91C143.78,-84.91 143.78,-103.79 143.78,-103.79"/>
<polygon fill="black" stroke="black" points="140.28,-103.79 143.78,-113.79 147.28,-103.79 140.28,-103.79"/>
</g>
</g>
</svg>
