<?xml version="1.0" encoding="UTF-8" standalone="no"?>
<!DOCTYPE svg PUBLIC "-//W3C//DTD SVG 1.1//EN"
 "http://www.w3.org/Graphics/SVG/1.1/DTD/svg11.dtd">
<!-- Generated by graphviz version 2.47.3 (20210619.1520)
 -->
<!-- Title: dependencies Pages: 1 -->
<svg width="3449pt" height="174pt"
 viewBox="0.00 0.00 3449.00 173.80" xmlns="http://www.w3.org/2000/svg" xmlns:xlink="http://www.w3.org/1999/xlink">
<g id="graph0" class="graph" transform="scale(1 1) rotate(0) translate(4 169.8)">
<title>dependencies</title>
<polygon fill="white" stroke="transparent" points="-4,4 -4,-169.8 3445,-169.8 3445,4 -4,4"/>
<text text-anchor="middle" x="1720.5" y="-8.2" font-family="sans-serif" font-size="14.00">dependencies</text>
<g id="clust1" class="cluster">
<title>cluster_RegistroDiarioPorCuadrillaModule</title>
<polygon fill="none" stroke="black" stroke-dasharray="1,5" points="8,-32.8 8,-157.8 3433,-157.8 3433,-32.8 8,-32.8"/>
</g>
<g id="clust16" class="cluster">
<title>cluster_RegistroDiarioPorCuadrillaModule_imports</title>
<polygon fill="none" stroke="black" points="3033,-40.8 3033,-92.8 3425,-92.8 3425,-40.8 3033,-40.8"/>
</g>
<g id="clust2" class="cluster">
<title>cluster_RegistroDiarioPorCuadrillaModule_declarations</title>
<polygon fill="none" stroke="black" points="16,-40.8 16,-92.8 3025,-92.8 3025,-40.8 16,-40.8"/>
</g>
<!-- DialogConfirmComponent -->
<g id="node1" class="node">
<title>DialogConfirmComponent</title>
<polygon fill="#ffffb3" stroke="black" points="3017.37,-84.8 2850.63,-84.8 2850.63,-48.8 3017.37,-48.8 3017.37,-84.8"/>
<text text-anchor="middle" x="2934" y="-62.6" font-family="Times,serif" font-size="14.00">DialogConfirmComponent</text>
</g>
<!-- RegistroDiarioPorCuadrillaModule -->
<g id="node14" class="node">
<title>RegistroDiarioPorCuadrillaModule</title>
<polygon fill="#8dd3c7" stroke="black" points="1988.29,-149.8 1985.29,-153.8 1964.29,-153.8 1961.29,-149.8 1773.71,-149.8 1773.71,-113.8 1988.29,-113.8 1988.29,-149.8"/>
<text text-anchor="middle" x="1881" y="-127.6" font-family="Times,serif" font-size="14.00">RegistroDiarioPorCuadrillaModule</text>
</g>
<!-- DialogConfirmComponent&#45;&gt;RegistroDiarioPorCuadrillaModule -->
<g id="edge1" class="edge">
<title>DialogConfirmComponent&#45;&gt;RegistroDiarioPorCuadrillaModule</title>
<path fill="none" stroke="black" d="M2934,-84.83C2934,-105.57 2934,-136.8 2934,-136.8 2934,-136.8 1998.25,-136.8 1998.25,-136.8"/>
<polygon fill="black" stroke="black" points="1998.25,-133.3 1988.25,-136.8 1998.25,-140.3 1998.25,-133.3"/>
</g>
<!-- MsgErrorDirective -->
<g id="node2" class="node">
<title>MsgErrorDirective</title>
<polygon fill="#ffffb3" stroke="black" points="2832.01,-84.8 2709.99,-84.8 2709.99,-48.8 2832.01,-48.8 2832.01,-84.8"/>
<text text-anchor="middle" x="2771" y="-62.6" font-family="Times,serif" font-size="14.00">MsgErrorDirective</text>
</g>
<!-- MsgErrorDirective&#45;&gt;RegistroDiarioPorCuadrillaModule -->
<g id="edge2" class="edge">
<title>MsgErrorDirective&#45;&gt;RegistroDiarioPorCuadrillaModule</title>
<path fill="none" stroke="black" d="M2771,-84.91C2771,-104.14 2771,-131.8 2771,-131.8 2771,-131.8 1998.35,-131.8 1998.35,-131.8"/>
<polygon fill="black" stroke="black" points="1998.35,-128.3 1988.35,-131.8 1998.35,-135.3 1998.35,-128.3"/>
</g>
<!-- RegistroDiarioComponent -->
<g id="node3" class="node">
<title>RegistroDiarioComponent</title>
<polygon fill="#ffffb3" stroke="black" points="2691.03,-84.8 2526.97,-84.8 2526.97,-48.8 2691.03,-48.8 2691.03,-84.8"/>
<text text-anchor="middle" x="2609" y="-62.6" font-family="Times,serif" font-size="14.00">RegistroDiarioComponent</text>
</g>
<!-- RegistroDiarioComponent&#45;&gt;RegistroDiarioPorCuadrillaModule -->
<g id="edge3" class="edge">
<title>RegistroDiarioComponent&#45;&gt;RegistroDiarioPorCuadrillaModule</title>
<path fill="none" stroke="black" d="M2609,-85.1C2609,-103.07 2609,-127.8 2609,-127.8 2609,-127.8 1998.42,-127.8 1998.42,-127.8"/>
<polygon fill="black" stroke="black" points="1998.42,-124.3 1988.42,-127.8 1998.42,-131.3 1998.42,-124.3"/>
</g>
<!-- SeccionCantidadesDeObraComponent -->
<g id="node4" class="node">
<title>SeccionCantidadesDeObraComponent</title>
<polygon fill="#ffffb3" stroke="black" points="2509.16,-84.8 2276.84,-84.8 2276.84,-48.8 2509.16,-48.8 2509.16,-84.8"/>
<text text-anchor="middle" x="2393" y="-62.6" font-family="Times,serif" font-size="14.00">SeccionCantidadesDeObraComponent</text>
</g>
<!-- SeccionCantidadesDeObraComponent&#45;&gt;RegistroDiarioPorCuadrillaModule -->
<g id="edge4" class="edge">
<title>SeccionCantidadesDeObraComponent&#45;&gt;RegistroDiarioPorCuadrillaModule</title>
<path fill="none" stroke="black" d="M2393,-84.83C2393,-101.2 2393,-122.8 2393,-122.8 2393,-122.8 1998.33,-122.8 1998.33,-122.8"/>
<polygon fill="black" stroke="black" points="1998.33,-119.3 1988.33,-122.8 1998.33,-126.3 1998.33,-119.3"/>
</g>
<!-- SeccionControlDeCalidadComponent -->
<g id="node5" class="node">
<title>SeccionControlDeCalidadComponent</title>
<polygon fill="#ffffb3" stroke="black" points="2259.3,-84.8 2030.7,-84.8 2030.7,-48.8 2259.3,-48.8 2259.3,-84.8"/>
<text text-anchor="middle" x="2145" y="-62.6" font-family="Times,serif" font-size="14.00">SeccionControlDeCalidadComponent</text>
</g>
<!-- SeccionControlDeCalidadComponent&#45;&gt;RegistroDiarioPorCuadrillaModule -->
<g id="edge5" class="edge">
<title>SeccionControlDeCalidadComponent&#45;&gt;RegistroDiarioPorCuadrillaModule</title>
<path fill="none" stroke="black" d="M2145,-84.99C2145,-99.98 2145,-118.8 2145,-118.8 2145,-118.8 1998.38,-118.8 1998.38,-118.8"/>
<polygon fill="black" stroke="black" points="1998.38,-115.3 1988.38,-118.8 1998.38,-122.3 1998.38,-115.3"/>
</g>
<!-- SeccionInformacionDelPersonalComponent -->
<g id="node6" class="node">
<title>SeccionInformacionDelPersonalComponent</title>
<polygon fill="#ffffb3" stroke="black" points="2012.76,-84.8 1749.24,-84.8 1749.24,-48.8 2012.76,-48.8 2012.76,-84.8"/>
<text text-anchor="middle" x="1881" y="-62.6" font-family="Times,serif" font-size="14.00">SeccionInformacionDelPersonalComponent</text>
</g>
<!-- SeccionInformacionDelPersonalComponent&#45;&gt;RegistroDiarioPorCuadrillaModule -->
<g id="edge6" class="edge">
<title>SeccionInformacionDelPersonalComponent&#45;&gt;RegistroDiarioPorCuadrillaModule</title>
<path fill="none" stroke="black" d="M1881,-84.91C1881,-84.91 1881,-103.79 1881,-103.79"/>
<polygon fill="black" stroke="black" points="1877.5,-103.79 1881,-113.79 1884.5,-103.79 1877.5,-103.79"/>
</g>
<!-- SeccionInformacionGeneralComponent -->
<g id="node7" class="node">
<title>SeccionInformacionGeneralComponent</title>
<polygon fill="#ffffb3" stroke="black" points="1731.64,-84.8 1492.36,-84.8 1492.36,-48.8 1731.64,-48.8 1731.64,-84.8"/>
<text text-anchor="middle" x="1612" y="-62.6" font-family="Times,serif" font-size="14.00">SeccionInformacionGeneralComponent</text>
</g>
<!-- SeccionInformacionGeneralComponent&#45;&gt;RegistroDiarioPorCuadrillaModule -->
<g id="edge7" class="edge">
<title>SeccionInformacionGeneralComponent&#45;&gt;RegistroDiarioPorCuadrillaModule</title>
<path fill="none" stroke="black" d="M1612,-84.99C1612,-99.98 1612,-118.8 1612,-118.8 1612,-118.8 1763.52,-118.8 1763.52,-118.8"/>
<polygon fill="black" stroke="black" points="1763.52,-122.3 1773.52,-118.8 1763.52,-115.3 1763.52,-122.3"/>
</g>
<!-- SeccionMaquinariaComponent -->
<g id="node8" class="node">
<title>SeccionMaquinariaComponent</title>
<polygon fill="#ffffb3" stroke="black" points="1474.18,-84.8 1283.82,-84.8 1283.82,-48.8 1474.18,-48.8 1474.18,-84.8"/>
<text text-anchor="middle" x="1379" y="-62.6" font-family="Times,serif" font-size="14.00">SeccionMaquinariaComponent</text>
</g>
<!-- SeccionMaquinariaComponent&#45;&gt;RegistroDiarioPorCuadrillaModule -->
<g id="edge8" class="edge">
<title>SeccionMaquinariaComponent&#45;&gt;RegistroDiarioPorCuadrillaModule</title>
<path fill="none" stroke="black" d="M1379,-84.83C1379,-101.2 1379,-122.8 1379,-122.8 1379,-122.8 1763.62,-122.8 1763.62,-122.8"/>
<polygon fill="black" stroke="black" points="1763.62,-126.3 1773.62,-122.8 1763.62,-119.3 1763.62,-126.3"/>
</g>
<!-- SeccionMaterialesComponent -->
<g id="node9" class="node">
<title>SeccionMaterialesComponent</title>
<polygon fill="#ffffb3" stroke="black" points="1266.23,-84.8 1081.77,-84.8 1081.77,-48.8 1266.23,-48.8 1266.23,-84.8"/>
<text text-anchor="middle" x="1174" y="-62.6" font-family="Times,serif" font-size="14.00">SeccionMaterialesComponent</text>
</g>
<!-- SeccionMaterialesComponent&#45;&gt;RegistroDiarioPorCuadrillaModule -->
<g id="edge9" class="edge">
<title>SeccionMaterialesComponent&#45;&gt;RegistroDiarioPorCuadrillaModule</title>
<path fill="none" stroke="black" d="M1174,-85.1C1174,-103.07 1174,-127.8 1174,-127.8 1174,-127.8 1763.62,-127.8 1763.62,-127.8"/>
<polygon fill="black" stroke="black" points="1763.62,-131.3 1773.62,-127.8 1763.62,-124.3 1763.62,-131.3"/>
</g>
<!-- SeccionMezclaAsfalticasConcretosComponent -->
<g id="node10" class="node">
<title>SeccionMezclaAsfalticasConcretosComponent</title>
<polygon fill="#ffffb3" stroke="black" points="1063.58,-84.8 784.42,-84.8 784.42,-48.8 1063.58,-48.8 1063.58,-84.8"/>
<text text-anchor="middle" x="924" y="-62.6" font-family="Times,serif" font-size="14.00">SeccionMezclaAsfalticasConcretosComponent</text>
</g>
<!-- SeccionMezclaAsfalticasConcretosComponent&#45;&gt;RegistroDiarioPorCuadrillaModule -->
<g id="edge10" class="edge">
<title>SeccionMezclaAsfalticasConcretosComponent&#45;&gt;RegistroDiarioPorCuadrillaModule</title>
<path fill="none" stroke="black" d="M924,-84.91C924,-104.14 924,-131.8 924,-131.8 924,-131.8 1763.54,-131.8 1763.54,-131.8"/>
<polygon fill="black" stroke="black" points="1763.54,-135.3 1773.54,-131.8 1763.54,-128.3 1763.54,-135.3"/>
</g>
<!-- SeccionObservacionesGeneralesComponent -->
<g id="node11" class="node">
<title>SeccionObservacionesGeneralesComponent</title>
<polygon fill="#ffffb3" stroke="black" points="766.02,-84.8 501.98,-84.8 501.98,-48.8 766.02,-48.8 766.02,-84.8"/>
<text text-anchor="middle" x="634" y="-62.6" font-family="Times,serif" font-size="14.00">SeccionObservacionesGeneralesComponent</text>
</g>
<!-- SeccionObservacionesGeneralesComponent&#45;&gt;RegistroDiarioPorCuadrillaModule -->
<g id="edge11" class="edge">
<title>SeccionObservacionesGeneralesComponent&#45;&gt;RegistroDiarioPorCuadrillaModule</title>
<path fill="none" stroke="black" d="M634,-84.83C634,-105.57 634,-136.8 634,-136.8 634,-136.8 1763.6,-136.8 1763.6,-136.8"/>
<polygon fill="black" stroke="black" points="1763.6,-140.3 1773.6,-136.8 1763.6,-133.3 1763.6,-140.3"/>
</g>
<!-- SeccionRetiroMaterialesEscombrosComponent -->
<g id="node12" class="node">
<title>SeccionRetiroMaterialesEscombrosComponent</title>
<polygon fill="#ffffb3" stroke="black" points="483.93,-84.8 202.07,-84.8 202.07,-48.8 483.93,-48.8 483.93,-84.8"/>
<text text-anchor="middle" x="343" y="-62.6" font-family="Times,serif" font-size="14.00">SeccionRetiroMaterialesEscombrosComponent</text>
</g>
<!-- SeccionRetiroMaterialesEscombrosComponent&#45;&gt;RegistroDiarioPorCuadrillaModule -->
<g id="edge12" class="edge">
<title>SeccionRetiroMaterialesEscombrosComponent&#45;&gt;RegistroDiarioPorCuadrillaModule</title>
<path fill="none" stroke="black" d="M343,-85.09C343,-107.01 343,-140.8 343,-140.8 343,-140.8 1763.77,-140.8 1763.77,-140.8"/>
<polygon fill="black" stroke="black" points="1763.77,-144.3 1773.77,-140.8 1763.77,-137.3 1763.77,-144.3"/>
</g>
<!-- TabSeccionesComponent -->
<g id="node13" class="node">
<title>TabSeccionesComponent</title>
<polygon fill="#ffffb3" stroke="black" points="183.58,-84.8 24.42,-84.8 24.42,-48.8 183.58,-48.8 183.58,-84.8"/>
<text text-anchor="middle" x="104" y="-62.6" font-family="Times,serif" font-size="14.00">TabSeccionesComponent</text>
</g>
<!-- TabSeccionesComponent&#45;&gt;RegistroDiarioPorCuadrillaModule -->
<g id="edge13" class="edge">
<title>TabSeccionesComponent&#45;&gt;RegistroDiarioPorCuadrillaModule</title>
<path fill="none" stroke="black" d="M104,-85.12C104,-108.46 104,-145.8 104,-145.8 104,-145.8 1763.84,-145.8 1763.84,-145.8"/>
<polygon fill="black" stroke="black" points="1763.84,-149.3 1773.84,-145.8 1763.84,-142.3 1763.84,-149.3"/>
</g>
<!-- RegistroDiarioPorCuadrillaRoutingModule -->
<g id="node15" class="node">
<title>RegistroDiarioPorCuadrillaRoutingModule</title>
<polygon fill="#8dd3c7" stroke="black" points="3416.91,-84.8 3413.91,-88.8 3392.91,-88.8 3389.91,-84.8 3157.09,-84.8 3157.09,-48.8 3416.91,-48.8 3416.91,-84.8"/>
<text text-anchor="middle" x="3287" y="-62.6" font-family="Times,serif" font-size="14.00">RegistroDiarioPorCuadrillaRoutingModule</text>
</g>
<!-- RegistroDiarioPorCuadrillaRoutingModule&#45;&gt;RegistroDiarioPorCuadrillaModule -->
<g id="edge14" class="edge">
<title>RegistroDiarioPorCuadrillaRoutingModule&#45;&gt;RegistroDiarioPorCuadrillaModule</title>
<path fill="none" stroke="black" d="M3287,-85.12C3287,-108.46 3287,-145.8 3287,-145.8 3287,-145.8 1998.41,-145.8 1998.41,-145.8"/>
<polygon fill="black" stroke="black" points="1998.41,-142.3 1988.41,-145.8 1998.41,-149.3 1998.41,-142.3"/>
</g>
<!-- SharedModule -->
<g id="node16" class="node">
<title>SharedModule</title>
<polygon fill="#8dd3c7" stroke="black" points="3139.42,-84.8 3136.42,-88.8 3115.42,-88.8 3112.42,-84.8 3040.58,-84.8 3040.58,-48.8 3139.42,-48.8 3139.42,-84.8"/>
<text text-anchor="middle" x="3090" y="-62.6" font-family="Times,serif" font-size="14.00">SharedModule</text>
</g>
<!-- SharedModule&#45;&gt;RegistroDiarioPorCuadrillaModule -->
<g id="edge15" class="edge">
<title>SharedModule&#45;&gt;RegistroDiarioPorCuadrillaModule</title>
<path fill="none" stroke="black" d="M3090,-85.09C3090,-107.01 3090,-140.8 3090,-140.8 3090,-140.8 1998.29,-140.8 1998.29,-140.8"/>
<polygon fill="black" stroke="black" points="1998.29,-137.3 1988.29,-140.8 1998.29,-144.3 1998.29,-137.3"/>
</g>
</g>
</svg>
