<?xml version="1.0" encoding="UTF-8" standalone="no"?>
<!DOCTYPE svg PUBLIC "-//W3C//DTD SVG 1.1//EN"
 "http://www.w3.org/Graphics/SVG/1.1/DTD/svg11.dtd">
<!-- Generated by graphviz version 2.47.3 (20210619.1520)
 -->
<!-- Title: dependencies Pages: 1 -->
<svg width="3384pt" height="247pt"
 viewBox="0.00 0.00 3384.00 246.80" xmlns="http://www.w3.org/2000/svg" xmlns:xlink="http://www.w3.org/1999/xlink">
<g id="graph0" class="graph" transform="scale(1 1) rotate(0) translate(4 242.8)">
<title>dependencies</title>
<polygon fill="white" stroke="transparent" points="-4,4 -4,-242.8 3380,-242.8 3380,4 -4,4"/>
<text text-anchor="middle" x="1688" y="-8.2" font-family="sans-serif" font-size="14.00">dependencies</text>
<g id="clust1" class="cluster">
<title>cluster_SolicitudEnsayoLaboratorioModule</title>
<polygon fill="none" stroke="black" stroke-dasharray="1,5" points="8,-32.8 8,-230.8 3368,-230.8 3368,-32.8 8,-32.8"/>
</g>
<g id="clust2" class="cluster">
<title>cluster_SolicitudEnsayoLaboratorioModule_declarations</title>
<polygon fill="none" stroke="black" points="418,-40.8 418,-92.8 3360,-92.8 3360,-40.8 418,-40.8"/>
</g>
<g id="clust18" class="cluster">
<title>cluster_SolicitudEnsayoLaboratorioModule_exports</title>
<polygon fill="none" stroke="black" points="1283,-170.8 1283,-222.8 2246,-222.8 2246,-170.8 1283,-170.8"/>
</g>
<g id="clust17" class="cluster">
<title>cluster_SolicitudEnsayoLaboratorioModule_imports</title>
<polygon fill="none" stroke="black" points="16,-40.8 16,-92.8 410,-92.8 410,-40.8 16,-40.8"/>
</g>
<!-- InformeDetalleComponent -->
<g id="node1" class="node">
<title>InformeDetalleComponent</title>
<polygon fill="#ffffb3" stroke="black" points="3352.34,-84.8 3185.66,-84.8 3185.66,-48.8 3352.34,-48.8 3352.34,-84.8"/>
<text text-anchor="middle" x="3269" y="-62.6" font-family="Times,serif" font-size="14.00">InformeDetalleComponent</text>
</g>
<!-- SolicitudEnsayoLaboratorioModule -->
<g id="node15" class="node">
<title>SolicitudEnsayoLaboratorioModule</title>
<polygon fill="#8dd3c7" stroke="black" points="1858.91,-149.8 1855.91,-153.8 1834.91,-153.8 1831.91,-149.8 1641.09,-149.8 1641.09,-113.8 1858.91,-113.8 1858.91,-149.8"/>
<text text-anchor="middle" x="1750" y="-127.6" font-family="Times,serif" font-size="14.00">SolicitudEnsayoLaboratorioModule</text>
</g>
<!-- InformeDetalleComponent&#45;&gt;SolicitudEnsayoLaboratorioModule -->
<g id="edge1" class="edge">
<title>InformeDetalleComponent&#45;&gt;SolicitudEnsayoLaboratorioModule</title>
<path fill="none" stroke="black" d="M3269,-84.96C3269,-107.15 3269,-141.8 3269,-141.8 3269,-141.8 1868.94,-141.8 1868.94,-141.8"/>
<polygon fill="black" stroke="black" points="1868.94,-138.3 1858.94,-141.8 1868.94,-145.3 1868.94,-138.3"/>
</g>
<!-- ModalConfirmarComponent -->
<g id="node2" class="node">
<title>ModalConfirmarComponent</title>
<polygon fill="#ffffb3" stroke="black" points="3167.2,-84.8 2990.8,-84.8 2990.8,-48.8 3167.2,-48.8 3167.2,-84.8"/>
<text text-anchor="middle" x="3079" y="-62.6" font-family="Times,serif" font-size="14.00">ModalConfirmarComponent</text>
</g>
<!-- ModalConfirmarComponent&#45;&gt;SolicitudEnsayoLaboratorioModule -->
<g id="edge2" class="edge">
<title>ModalConfirmarComponent&#45;&gt;SolicitudEnsayoLaboratorioModule</title>
<path fill="none" stroke="black" d="M3079,-85.08C3079,-106.12 3079,-137.8 3079,-137.8 3079,-137.8 1868.76,-137.8 1868.76,-137.8"/>
<polygon fill="black" stroke="black" points="1868.76,-134.3 1858.76,-137.8 1868.76,-141.3 1868.76,-134.3"/>
</g>
<!-- ModalListaEnsayosComponent -->
<g id="node3" class="node">
<title>ModalListaEnsayosComponent</title>
<polygon fill="#ffffb3" stroke="black" points="2973.03,-84.8 2780.97,-84.8 2780.97,-48.8 2973.03,-48.8 2973.03,-84.8"/>
<text text-anchor="middle" x="2877" y="-62.6" font-family="Times,serif" font-size="14.00">ModalListaEnsayosComponent</text>
</g>
<!-- ModalListaEnsayosComponent&#45;&gt;SolicitudEnsayoLaboratorioModule -->
<g id="edge3" class="edge">
<title>ModalListaEnsayosComponent&#45;&gt;SolicitudEnsayoLaboratorioModule</title>
<path fill="none" stroke="black" d="M2877,-85.11C2877,-104.95 2877,-133.8 2877,-133.8 2877,-133.8 1868.83,-133.8 1868.83,-133.8"/>
<polygon fill="black" stroke="black" points="1868.83,-130.3 1858.83,-133.8 1868.83,-137.3 1868.83,-130.3"/>
</g>
<!-- ModalListaMaterialesComponent -->
<g id="node4" class="node">
<title>ModalListaMaterialesComponent</title>
<polygon fill="#ffffb3" stroke="black" points="2762.46,-84.8 2557.54,-84.8 2557.54,-48.8 2762.46,-48.8 2762.46,-84.8"/>
<text text-anchor="middle" x="2660" y="-62.6" font-family="Times,serif" font-size="14.00">ModalListaMaterialesComponent</text>
</g>
<!-- ModalListaMaterialesComponent&#45;&gt;SolicitudEnsayoLaboratorioModule -->
<g id="edge4" class="edge">
<title>ModalListaMaterialesComponent&#45;&gt;SolicitudEnsayoLaboratorioModule</title>
<path fill="none" stroke="black" d="M2660,-85.02C2660,-103.63 2660,-129.8 2660,-129.8 2660,-129.8 1868.86,-129.8 1868.86,-129.8"/>
<polygon fill="black" stroke="black" points="1868.86,-126.3 1858.86,-129.8 1868.86,-133.3 1868.86,-126.3"/>
</g>
<!-- ModalTableAsociarComponent -->
<g id="node5" class="node">
<title>ModalTableAsociarComponent</title>
<polygon fill="#ffffb3" stroke="black" points="2539.79,-84.8 2346.21,-84.8 2346.21,-48.8 2539.79,-48.8 2539.79,-84.8"/>
<text text-anchor="middle" x="2443" y="-62.6" font-family="Times,serif" font-size="14.00">ModalTableAsociarComponent</text>
</g>
<!-- ModalTableAsociarComponent&#45;&gt;SolicitudEnsayoLaboratorioModule -->
<g id="edge5" class="edge">
<title>ModalTableAsociarComponent&#45;&gt;SolicitudEnsayoLaboratorioModule</title>
<path fill="none" stroke="black" d="M2443,-84.82C2443,-102.17 2443,-125.8 2443,-125.8 2443,-125.8 1869.04,-125.8 1869.04,-125.8"/>
<polygon fill="black" stroke="black" points="1869.04,-122.3 1859.04,-125.8 1869.04,-129.3 1869.04,-122.3"/>
</g>
<!-- RegistrarServicioComponent -->
<g id="node6" class="node">
<title>RegistrarServicioComponent</title>
<polygon fill="#ffffb3" stroke="black" points="2328.8,-84.8 2149.2,-84.8 2149.2,-48.8 2328.8,-48.8 2328.8,-84.8"/>
<text text-anchor="middle" x="2239" y="-62.6" font-family="Times,serif" font-size="14.00">RegistrarServicioComponent</text>
</g>
<!-- RegistrarServicioComponent&#45;&gt;SolicitudEnsayoLaboratorioModule -->
<g id="edge6" class="edge">
<title>RegistrarServicioComponent&#45;&gt;SolicitudEnsayoLaboratorioModule</title>
<path fill="none" stroke="black" d="M2193.71,-84.81C2193.71,-100.85 2193.71,-121.8 2193.71,-121.8 2193.71,-121.8 1868.83,-121.8 1868.83,-121.8"/>
<polygon fill="black" stroke="black" points="1868.83,-118.3 1858.83,-121.8 1868.83,-125.3 1868.83,-118.3"/>
</g>
<!-- ServicioApiquesComponent -->
<g id="node7" class="node">
<title>ServicioApiquesComponent</title>
<polygon fill="#ffffb3" stroke="black" points="2131.14,-84.8 1956.86,-84.8 1956.86,-48.8 2131.14,-48.8 2131.14,-84.8"/>
<text text-anchor="middle" x="2044" y="-62.6" font-family="Times,serif" font-size="14.00">ServicioApiquesComponent</text>
</g>
<!-- ServicioApiquesComponent&#45;&gt;SolicitudEnsayoLaboratorioModule -->
<g id="edge7" class="edge">
<title>ServicioApiquesComponent&#45;&gt;SolicitudEnsayoLaboratorioModule</title>
<path fill="none" stroke="black" d="M1999.43,-84.92C1999.43,-99.58 1999.43,-117.8 1999.43,-117.8 1999.43,-117.8 1869.04,-117.8 1869.04,-117.8"/>
<polygon fill="black" stroke="black" points="1869.04,-114.3 1859.04,-117.8 1869.04,-121.3 1869.04,-114.3"/>
</g>
<!-- ServicioDensidadComponent -->
<g id="node8" class="node">
<title>ServicioDensidadComponent</title>
<polygon fill="#ffffb3" stroke="black" points="1938.36,-84.8 1757.64,-84.8 1757.64,-48.8 1938.36,-48.8 1938.36,-84.8"/>
<text text-anchor="middle" x="1848" y="-62.6" font-family="Times,serif" font-size="14.00">ServicioDensidadComponent</text>
</g>
<!-- ServicioDensidadComponent&#45;&gt;SolicitudEnsayoLaboratorioModule -->
<g id="edge8" class="edge">
<title>ServicioDensidadComponent&#45;&gt;SolicitudEnsayoLaboratorioModule</title>
<path fill="none" stroke="black" d="M1808.14,-84.91C1808.14,-84.91 1808.14,-103.79 1808.14,-103.79"/>
<polygon fill="black" stroke="black" points="1804.64,-103.79 1808.14,-113.79 1811.64,-103.79 1804.64,-103.79"/>
</g>
<!-- ServicioFormulaComponent -->
<g id="node9" class="node">
<title>ServicioFormulaComponent</title>
<polygon fill="#ffffb3" stroke="black" points="1739.93,-84.8 1564.07,-84.8 1564.07,-48.8 1739.93,-48.8 1739.93,-84.8"/>
<text text-anchor="middle" x="1652" y="-62.6" font-family="Times,serif" font-size="14.00">ServicioFormulaComponent</text>
</g>
<!-- ServicioFormulaComponent&#45;&gt;SolicitudEnsayoLaboratorioModule -->
<g id="edge9" class="edge">
<title>ServicioFormulaComponent&#45;&gt;SolicitudEnsayoLaboratorioModule</title>
<path fill="none" stroke="black" d="M1690.5,-84.91C1690.5,-84.91 1690.5,-103.79 1690.5,-103.79"/>
<polygon fill="black" stroke="black" points="1687,-103.79 1690.5,-113.79 1694,-103.79 1687,-103.79"/>
</g>
<!-- ServicioNucleoComponent -->
<g id="node10" class="node">
<title>ServicioNucleoComponent</title>
<polygon fill="#ffffb3" stroke="black" points="1546.41,-84.8 1377.59,-84.8 1377.59,-48.8 1546.41,-48.8 1546.41,-84.8"/>
<text text-anchor="middle" x="1462" y="-62.6" font-family="Times,serif" font-size="14.00">ServicioNucleoComponent</text>
</g>
<!-- ServicioNucleoComponent&#45;&gt;SolicitudEnsayoLaboratorioModule -->
<g id="edge10" class="edge">
<title>ServicioNucleoComponent&#45;&gt;SolicitudEnsayoLaboratorioModule</title>
<path fill="none" stroke="black" d="M1508.62,-84.92C1508.62,-99.58 1508.62,-117.8 1508.62,-117.8 1508.62,-117.8 1630.96,-117.8 1630.96,-117.8"/>
<polygon fill="black" stroke="black" points="1630.96,-121.3 1640.96,-117.8 1630.96,-114.3 1630.96,-121.3"/>
</g>
<!-- ServicioOtrosComponent -->
<g id="node11" class="node">
<title>ServicioOtrosComponent</title>
<polygon fill="#ffffb3" stroke="black" points="1359.59,-84.8 1200.41,-84.8 1200.41,-48.8 1359.59,-48.8 1359.59,-84.8"/>
<text text-anchor="middle" x="1280" y="-62.6" font-family="Times,serif" font-size="14.00">ServicioOtrosComponent</text>
</g>
<!-- ServicioOtrosComponent&#45;&gt;SolicitudEnsayoLaboratorioModule -->
<g id="edge11" class="edge">
<title>ServicioOtrosComponent&#45;&gt;SolicitudEnsayoLaboratorioModule</title>
<path fill="none" stroke="black" d="M1325.12,-84.81C1325.12,-100.85 1325.12,-121.8 1325.12,-121.8 1325.12,-121.8 1631.14,-121.8 1631.14,-121.8"/>
<polygon fill="black" stroke="black" points="1631.14,-125.3 1641.14,-121.8 1631.14,-118.3 1631.14,-125.3"/>
</g>
<!-- SolicitudEnsayoLaboratorioComponent -->
<g id="node12" class="node">
<title>SolicitudEnsayoLaboratorioComponent</title>
<polygon fill="#ffffb3" stroke="black" points="1182.69,-84.8 943.31,-84.8 943.31,-48.8 1182.69,-48.8 1182.69,-84.8"/>
<text text-anchor="middle" x="1063" y="-62.6" font-family="Times,serif" font-size="14.00">SolicitudEnsayoLaboratorioComponent</text>
</g>
<!-- SolicitudEnsayoLaboratorioComponent&#45;&gt;SolicitudEnsayoLaboratorioModule -->
<g id="edge12" class="edge">
<title>SolicitudEnsayoLaboratorioComponent&#45;&gt;SolicitudEnsayoLaboratorioModule</title>
<path fill="none" stroke="black" d="M1063,-84.82C1063,-102.17 1063,-125.8 1063,-125.8 1063,-125.8 1631.14,-125.8 1631.14,-125.8"/>
<polygon fill="black" stroke="black" points="1631.14,-129.3 1641.14,-125.8 1631.14,-122.3 1631.14,-129.3"/>
</g>
<!-- TableMantenimientosActivosComponent -->
<g id="node13" class="node">
<title>TableMantenimientosActivosComponent</title>
<polygon fill="#ffffb3" stroke="black" points="925.74,-84.8 678.26,-84.8 678.26,-48.8 925.74,-48.8 925.74,-84.8"/>
<text text-anchor="middle" x="802" y="-62.6" font-family="Times,serif" font-size="14.00">TableMantenimientosActivosComponent</text>
</g>
<!-- TableMantenimientosActivosComponent&#45;&gt;SolicitudEnsayoLaboratorioModule -->
<g id="edge13" class="edge">
<title>TableMantenimientosActivosComponent&#45;&gt;SolicitudEnsayoLaboratorioModule</title>
<path fill="none" stroke="black" d="M802,-85.02C802,-103.63 802,-129.8 802,-129.8 802,-129.8 1631.25,-129.8 1631.25,-129.8"/>
<polygon fill="black" stroke="black" points="1631.25,-133.3 1641.25,-129.8 1631.25,-126.3 1631.25,-133.3"/>
</g>
<!-- TableNomenclaturaApiqueComponent -->
<g id="node14" class="node">
<title>TableNomenclaturaApiqueComponent</title>
<polygon fill="#ffffb3" stroke="black" points="659.71,-84.8 426.29,-84.8 426.29,-48.8 659.71,-48.8 659.71,-84.8"/>
<text text-anchor="middle" x="543" y="-62.6" font-family="Times,serif" font-size="14.00">TableNomenclaturaApiqueComponent</text>
</g>
<!-- TableNomenclaturaApiqueComponent&#45;&gt;SolicitudEnsayoLaboratorioModule -->
<g id="edge14" class="edge">
<title>TableNomenclaturaApiqueComponent&#45;&gt;SolicitudEnsayoLaboratorioModule</title>
<path fill="none" stroke="black" d="M543,-85.11C543,-104.95 543,-133.8 543,-133.8 543,-133.8 1631.29,-133.8 1631.29,-133.8"/>
<polygon fill="black" stroke="black" points="1631.29,-137.3 1641.29,-133.8 1631.29,-130.3 1631.29,-137.3"/>
</g>
<!-- ServicioApiquesComponent  -->
<g id="node18" class="node">
<title>ServicioApiquesComponent </title>
<polygon fill="#fb8072" stroke="black" points="2238.14,-214.8 2059.86,-214.8 2059.86,-178.8 2238.14,-178.8 2238.14,-214.8"/>
<text text-anchor="middle" x="2149" y="-192.6" font-family="Times,serif" font-size="14.00">ServicioApiquesComponent </text>
</g>
<!-- SolicitudEnsayoLaboratorioModule&#45;&gt;ServicioApiquesComponent  -->
<g id="edge17" class="edge">
<title>SolicitudEnsayoLaboratorioModule&#45;&gt;ServicioApiquesComponent </title>
<path fill="none" stroke="black" stroke-dasharray="5,2" d="M1858.88,-145.8C1960.19,-145.8 2095.62,-145.8 2095.62,-145.8 2095.62,-145.8 2095.62,-168.68 2095.62,-168.68"/>
<polygon fill="black" stroke="black" points="2092.13,-168.68 2095.62,-178.68 2099.13,-168.68 2092.13,-168.68"/>
</g>
<!-- ServicioDensidadComponent  -->
<g id="node19" class="node">
<title>ServicioDensidadComponent </title>
<polygon fill="#fb8072" stroke="black" points="2042.36,-214.8 1857.64,-214.8 1857.64,-178.8 2042.36,-178.8 2042.36,-214.8"/>
<text text-anchor="middle" x="1950" y="-192.6" font-family="Times,serif" font-size="14.00">ServicioDensidadComponent </text>
</g>
<!-- SolicitudEnsayoLaboratorioModule&#45;&gt;ServicioDensidadComponent  -->
<g id="edge18" class="edge">
<title>SolicitudEnsayoLaboratorioModule&#45;&gt;ServicioDensidadComponent </title>
<path fill="none" stroke="black" stroke-dasharray="5,2" d="M1848.64,-149.91C1848.64,-169.14 1848.64,-196.8 1848.64,-196.8 1848.64,-196.8 1849.54,-196.8 1849.54,-196.8"/>
<polygon fill="black" stroke="black" points="1847.64,-200.3 1857.64,-196.8 1847.64,-193.3 1847.64,-200.3"/>
</g>
<!-- ServicioFormulaComponent  -->
<g id="node20" class="node">
<title>ServicioFormulaComponent </title>
<polygon fill="#fb8072" stroke="black" points="1839.43,-214.8 1660.57,-214.8 1660.57,-178.8 1839.43,-178.8 1839.43,-214.8"/>
<text text-anchor="middle" x="1750" y="-192.6" font-family="Times,serif" font-size="14.00">ServicioFormulaComponent </text>
</g>
<!-- SolicitudEnsayoLaboratorioModule&#45;&gt;ServicioFormulaComponent  -->
<g id="edge19" class="edge">
<title>SolicitudEnsayoLaboratorioModule&#45;&gt;ServicioFormulaComponent </title>
<path fill="none" stroke="black" stroke-dasharray="5,2" d="M1750,-149.91C1750,-149.91 1750,-168.79 1750,-168.79"/>
<polygon fill="black" stroke="black" points="1746.5,-168.79 1750,-178.79 1753.5,-168.79 1746.5,-168.79"/>
</g>
<!-- ServicioNucleoComponent  -->
<g id="node21" class="node">
<title>ServicioNucleoComponent </title>
<polygon fill="#fb8072" stroke="black" points="1642.91,-214.8 1471.09,-214.8 1471.09,-178.8 1642.91,-178.8 1642.91,-214.8"/>
<text text-anchor="middle" x="1557" y="-192.6" font-family="Times,serif" font-size="14.00">ServicioNucleoComponent </text>
</g>
<!-- SolicitudEnsayoLaboratorioModule&#45;&gt;ServicioNucleoComponent  -->
<g id="edge20" class="edge">
<title>SolicitudEnsayoLaboratorioModule&#45;&gt;ServicioNucleoComponent </title>
<path fill="none" stroke="black" stroke-dasharray="5,2" d="M1651.75,-149.91C1651.75,-169.14 1651.75,-196.8 1651.75,-196.8 1651.75,-196.8 1650.87,-196.8 1650.87,-196.8"/>
<polygon fill="black" stroke="black" points="1653,-193.3 1643,-196.8 1653,-200.3 1653,-193.3"/>
</g>
<!-- ServicioOtrosComponent  -->
<g id="node22" class="node">
<title>ServicioOtrosComponent </title>
<polygon fill="#fb8072" stroke="black" points="1453.09,-214.8 1290.91,-214.8 1290.91,-178.8 1453.09,-178.8 1453.09,-214.8"/>
<text text-anchor="middle" x="1372" y="-192.6" font-family="Times,serif" font-size="14.00">ServicioOtrosComponent </text>
</g>
<!-- SolicitudEnsayoLaboratorioModule&#45;&gt;ServicioOtrosComponent  -->
<g id="edge21" class="edge">
<title>SolicitudEnsayoLaboratorioModule&#45;&gt;ServicioOtrosComponent </title>
<path fill="none" stroke="black" stroke-dasharray="5,2" d="M1640.95,-145.8C1543.35,-145.8 1415.54,-145.8 1415.54,-145.8 1415.54,-145.8 1415.54,-168.68 1415.54,-168.68"/>
<polygon fill="black" stroke="black" points="1412.04,-168.68 1415.54,-178.68 1419.04,-168.68 1412.04,-168.68"/>
</g>
<!-- SharedModule -->
<g id="node16" class="node">
<title>SharedModule</title>
<polygon fill="#8dd3c7" stroke="black" points="402.42,-84.8 399.42,-88.8 378.42,-88.8 375.42,-84.8 303.58,-84.8 303.58,-48.8 402.42,-48.8 402.42,-84.8"/>
<text text-anchor="middle" x="353" y="-62.6" font-family="Times,serif" font-size="14.00">SharedModule</text>
</g>
<!-- SharedModule&#45;&gt;SolicitudEnsayoLaboratorioModule -->
<g id="edge15" class="edge">
<title>SharedModule&#45;&gt;SolicitudEnsayoLaboratorioModule</title>
<path fill="none" stroke="black" d="M353,-85.08C353,-106.12 353,-137.8 353,-137.8 353,-137.8 1631.25,-137.8 1631.25,-137.8"/>
<polygon fill="black" stroke="black" points="1631.25,-141.3 1641.25,-137.8 1631.25,-134.3 1631.25,-141.3"/>
</g>
<!-- SolicitudEnsayoLaboratorioRoutingModule -->
<g id="node17" class="node">
<title>SolicitudEnsayoLaboratorioRoutingModule</title>
<polygon fill="#8dd3c7" stroke="black" points="286.02,-84.8 283.02,-88.8 262.02,-88.8 259.02,-84.8 23.98,-84.8 23.98,-48.8 286.02,-48.8 286.02,-84.8"/>
<text text-anchor="middle" x="155" y="-62.6" font-family="Times,serif" font-size="14.00">SolicitudEnsayoLaboratorioRoutingModule</text>
</g>
<!-- SolicitudEnsayoLaboratorioRoutingModule&#45;&gt;SolicitudEnsayoLaboratorioModule -->
<g id="edge16" class="edge">
<title>SolicitudEnsayoLaboratorioRoutingModule&#45;&gt;SolicitudEnsayoLaboratorioModule</title>
<path fill="none" stroke="black" d="M155,-84.96C155,-107.15 155,-141.8 155,-141.8 155,-141.8 1631,-141.8 1631,-141.8"/>
<polygon fill="black" stroke="black" points="1631,-145.3 1641,-141.8 1631,-138.3 1631,-145.3"/>
</g>
</g>
</svg>
