<?xml version="1.0" encoding="UTF-8" standalone="no"?>
<!DOCTYPE svg PUBLIC "-//W3C//DTD SVG 1.1//EN"
 "http://www.w3.org/Graphics/SVG/1.1/DTD/svg11.dtd">
<!-- Generated by graphviz version 2.47.3 (20210619.1520)
 -->
<!-- Title: dependencies Pages: 1 -->
<svg width="1236pt" height="174pt"
 viewBox="0.00 0.00 1236.00 173.80" xmlns="http://www.w3.org/2000/svg" xmlns:xlink="http://www.w3.org/1999/xlink">
<g id="graph0" class="graph" transform="scale(1 1) rotate(0) translate(4 169.8)">
<title>dependencies</title>
<polygon fill="white" stroke="transparent" points="-4,4 -4,-169.8 1232,-169.8 1232,4 -4,4"/>
<text text-anchor="middle" x="614" y="-8.2" font-family="sans-serif" font-size="14.00">dependencies</text>
<g id="clust1" class="cluster">
<title>cluster_AsignarVisitaModule</title>
<polygon fill="none" stroke="black" stroke-dasharray="1,5" points="8,-32.8 8,-157.8 1220,-157.8 1220,-32.8 8,-32.8"/>
</g>
<g id="clust8" class="cluster">
<title>cluster_AsignarVisitaModule_imports</title>
<polygon fill="none" stroke="black" points="898,-40.8 898,-92.8 1212,-92.8 1212,-40.8 898,-40.8"/>
</g>
<g id="clust2" class="cluster">
<title>cluster_AsignarVisitaModule_declarations</title>
<polygon fill="none" stroke="black" points="16,-40.8 16,-92.8 890,-92.8 890,-40.8 16,-40.8"/>
</g>
<!-- AgendaVisitasComponent -->
<g id="node1" class="node">
<title>AgendaVisitasComponent</title>
<polygon fill="#ffffb3" stroke="black" points="881.75,-84.8 718.25,-84.8 718.25,-48.8 881.75,-48.8 881.75,-84.8"/>
<text text-anchor="middle" x="800" y="-62.6" font-family="Times,serif" font-size="14.00">AgendaVisitasComponent</text>
</g>
<!-- AsignarVisitaModule -->
<g id="node6" class="node">
<title>AsignarVisitaModule</title>
<polygon fill="#8dd3c7" stroke="black" points="682.8,-149.8 679.8,-153.8 658.8,-153.8 655.8,-149.8 545.2,-149.8 545.2,-113.8 682.8,-113.8 682.8,-149.8"/>
<text text-anchor="middle" x="614" y="-127.6" font-family="Times,serif" font-size="14.00">AsignarVisitaModule</text>
</g>
<!-- AgendaVisitasComponent&#45;&gt;AsignarVisitaModule -->
<g id="edge1" class="edge">
<title>AgendaVisitasComponent&#45;&gt;AsignarVisitaModule</title>
<path fill="none" stroke="black" d="M800,-84.83C800,-101.2 800,-122.8 800,-122.8 800,-122.8 692.73,-122.8 692.73,-122.8"/>
<polygon fill="black" stroke="black" points="692.73,-119.3 682.73,-122.8 692.73,-126.3 692.73,-119.3"/>
</g>
<!-- AsignarRecursoComponent -->
<g id="node2" class="node">
<title>AsignarRecursoComponent</title>
<polygon fill="#ffffb3" stroke="black" points="699.52,-84.8 528.48,-84.8 528.48,-48.8 699.52,-48.8 699.52,-84.8"/>
<text text-anchor="middle" x="614" y="-62.6" font-family="Times,serif" font-size="14.00">AsignarRecursoComponent</text>
</g>
<!-- AsignarRecursoComponent&#45;&gt;AsignarVisitaModule -->
<g id="edge2" class="edge">
<title>AsignarRecursoComponent&#45;&gt;AsignarVisitaModule</title>
<path fill="none" stroke="black" d="M614,-84.91C614,-84.91 614,-103.79 614,-103.79"/>
<polygon fill="black" stroke="black" points="610.5,-103.79 614,-113.79 617.5,-103.79 610.5,-103.79"/>
</g>
<!-- AsignarVisitasComponent -->
<g id="node3" class="node">
<title>AsignarVisitasComponent</title>
<polygon fill="#ffffb3" stroke="black" points="510.03,-84.8 345.97,-84.8 345.97,-48.8 510.03,-48.8 510.03,-84.8"/>
<text text-anchor="middle" x="428" y="-62.6" font-family="Times,serif" font-size="14.00">AsignarVisitasComponent</text>
</g>
<!-- AsignarVisitasComponent&#45;&gt;AsignarVisitaModule -->
<g id="edge3" class="edge">
<title>AsignarVisitasComponent&#45;&gt;AsignarVisitaModule</title>
<path fill="none" stroke="black" d="M428,-84.83C428,-101.2 428,-122.8 428,-122.8 428,-122.8 535.27,-122.8 535.27,-122.8"/>
<polygon fill="black" stroke="black" points="535.27,-126.3 545.27,-122.8 535.27,-119.3 535.27,-126.3"/>
</g>
<!-- DialogVerVisitaDiseno -->
<g id="node4" class="node">
<title>DialogVerVisitaDiseno</title>
<polygon fill="#ffffb3" stroke="black" points="328.18,-84.8 179.82,-84.8 179.82,-48.8 328.18,-48.8 328.18,-84.8"/>
<text text-anchor="middle" x="254" y="-62.6" font-family="Times,serif" font-size="14.00">DialogVerVisitaDiseno</text>
</g>
<!-- DialogVerVisitaDiseno&#45;&gt;AsignarVisitaModule -->
<g id="edge4" class="edge">
<title>DialogVerVisitaDiseno&#45;&gt;AsignarVisitaModule</title>
<path fill="none" stroke="black" d="M254,-84.91C254,-104.14 254,-131.8 254,-131.8 254,-131.8 535.01,-131.8 535.01,-131.8"/>
<polygon fill="black" stroke="black" points="535.01,-135.3 545.01,-131.8 535.01,-128.3 535.01,-135.3"/>
</g>
<!-- VerGrupoComponent -->
<g id="node5" class="node">
<title>VerGrupoComponent</title>
<polygon fill="#ffffb3" stroke="black" points="162.08,-84.8 23.92,-84.8 23.92,-48.8 162.08,-48.8 162.08,-84.8"/>
<text text-anchor="middle" x="93" y="-62.6" font-family="Times,serif" font-size="14.00">VerGrupoComponent</text>
</g>
<!-- VerGrupoComponent&#45;&gt;AsignarVisitaModule -->
<g id="edge5" class="edge">
<title>VerGrupoComponent&#45;&gt;AsignarVisitaModule</title>
<path fill="none" stroke="black" d="M93,-85.09C93,-107.01 93,-140.8 93,-140.8 93,-140.8 535.08,-140.8 535.08,-140.8"/>
<polygon fill="black" stroke="black" points="535.08,-144.3 545.08,-140.8 535.08,-137.3 535.08,-144.3"/>
</g>
<!-- AsignarVisitaRoutingModule -->
<g id="node7" class="node">
<title>AsignarVisitaRoutingModule</title>
<polygon fill="#8dd3c7" stroke="black" points="1204.42,-84.8 1201.42,-88.8 1180.42,-88.8 1177.42,-84.8 1021.58,-84.8 1021.58,-48.8 1204.42,-48.8 1204.42,-84.8"/>
<text text-anchor="middle" x="1113" y="-62.6" font-family="Times,serif" font-size="14.00">AsignarVisitaRoutingModule</text>
</g>
<!-- AsignarVisitaRoutingModule&#45;&gt;AsignarVisitaModule -->
<g id="edge6" class="edge">
<title>AsignarVisitaRoutingModule&#45;&gt;AsignarVisitaModule</title>
<path fill="none" stroke="black" d="M1113,-85.09C1113,-107.01 1113,-140.8 1113,-140.8 1113,-140.8 692.86,-140.8 692.86,-140.8"/>
<polygon fill="black" stroke="black" points="692.86,-137.3 682.86,-140.8 692.86,-144.3 692.86,-137.3"/>
</g>
<!-- SharedModule -->
<g id="node8" class="node">
<title>SharedModule</title>
<polygon fill="#8dd3c7" stroke="black" points="1004.42,-84.8 1001.42,-88.8 980.42,-88.8 977.42,-84.8 905.58,-84.8 905.58,-48.8 1004.42,-48.8 1004.42,-84.8"/>
<text text-anchor="middle" x="955" y="-62.6" font-family="Times,serif" font-size="14.00">SharedModule</text>
</g>
<!-- SharedModule&#45;&gt;AsignarVisitaModule -->
<g id="edge7" class="edge">
<title>SharedModule&#45;&gt;AsignarVisitaModule</title>
<path fill="none" stroke="black" d="M955,-84.91C955,-104.14 955,-131.8 955,-131.8 955,-131.8 693.01,-131.8 693.01,-131.8"/>
<polygon fill="black" stroke="black" points="693.01,-128.3 683.01,-131.8 693.01,-135.3 693.01,-128.3"/>
</g>
</g>
</svg>
