<?xml version="1.0" encoding="UTF-8" standalone="no"?>
<!DOCTYPE svg PUBLIC "-//W3C//DTD SVG 1.1//EN"
 "http://www.w3.org/Graphics/SVG/1.1/DTD/svg11.dtd">
<!-- Generated by graphviz version 2.47.3 (20210619.1520)
 -->
<!-- Title: dependencies Pages: 1 -->
<svg width="2065pt" height="174pt"
 viewBox="0.00 0.00 2065.00 173.80" xmlns="http://www.w3.org/2000/svg" xmlns:xlink="http://www.w3.org/1999/xlink">
<g id="graph0" class="graph" transform="scale(1 1) rotate(0) translate(4 169.8)">
<title>dependencies</title>
<polygon fill="white" stroke="transparent" points="-4,4 -4,-169.8 2061,-169.8 2061,4 -4,4"/>
<text text-anchor="middle" x="1028.5" y="-8.2" font-family="sans-serif" font-size="14.00">dependencies</text>
<g id="clust1" class="cluster">
<title>cluster_RegistroProgramacionDiariaModule</title>
<polygon fill="none" stroke="black" stroke-dasharray="1,5" points="8,-32.8 8,-157.8 2049,-157.8 2049,-32.8 8,-32.8"/>
</g>
<g id="clust2" class="cluster">
<title>cluster_RegistroProgramacionDiariaModule_declarations</title>
<polygon fill="none" stroke="black" points="422,-40.8 422,-92.8 2041,-92.8 2041,-40.8 422,-40.8"/>
</g>
<g id="clust11" class="cluster">
<title>cluster_RegistroProgramacionDiariaModule_imports</title>
<polygon fill="none" stroke="black" points="16,-40.8 16,-92.8 414,-92.8 414,-40.8 16,-40.8"/>
</g>
<!-- DialogConfirmComponent -->
<g id="node1" class="node">
<title>DialogConfirmComponent</title>
<polygon fill="#ffffb3" stroke="black" points="2033.37,-84.8 1866.63,-84.8 1866.63,-48.8 2033.37,-48.8 2033.37,-84.8"/>
<text text-anchor="middle" x="1950" y="-62.6" font-family="Times,serif" font-size="14.00">DialogConfirmComponent</text>
</g>
<!-- RegistroProgramacionDiariaModule -->
<g id="node9" class="node">
<title>RegistroProgramacionDiariaModule</title>
<polygon fill="#8dd3c7" stroke="black" points="1200.49,-149.8 1197.49,-153.8 1176.49,-153.8 1173.49,-149.8 979.51,-149.8 979.51,-113.8 1200.49,-113.8 1200.49,-149.8"/>
<text text-anchor="middle" x="1090" y="-127.6" font-family="Times,serif" font-size="14.00">RegistroProgramacionDiariaModule</text>
</g>
<!-- DialogConfirmComponent&#45;&gt;RegistroProgramacionDiariaModule -->
<g id="edge1" class="edge">
<title>DialogConfirmComponent&#45;&gt;RegistroProgramacionDiariaModule</title>
<path fill="none" stroke="black" d="M1950,-84.81C1950,-107.29 1950,-142.8 1950,-142.8 1950,-142.8 1210.67,-142.8 1210.67,-142.8"/>
<polygon fill="black" stroke="black" points="1210.67,-139.3 1200.67,-142.8 1210.67,-146.3 1210.67,-139.3"/>
</g>
<!-- MapComponent -->
<g id="node2" class="node">
<title>MapComponent</title>
<polygon fill="#ffffb3" stroke="black" points="1848.49,-84.8 1741.51,-84.8 1741.51,-48.8 1848.49,-48.8 1848.49,-84.8"/>
<text text-anchor="middle" x="1795" y="-62.6" font-family="Times,serif" font-size="14.00">MapComponent</text>
</g>
<!-- MapComponent&#45;&gt;RegistroProgramacionDiariaModule -->
<g id="edge2" class="edge">
<title>MapComponent&#45;&gt;RegistroProgramacionDiariaModule</title>
<path fill="none" stroke="black" d="M1795,-84.93C1795,-105.37 1795,-135.8 1795,-135.8 1795,-135.8 1210.54,-135.8 1210.54,-135.8"/>
<polygon fill="black" stroke="black" points="1210.54,-132.3 1200.54,-135.8 1210.54,-139.3 1210.54,-132.3"/>
</g>
<!-- MsgErrorDirective -->
<g id="node3" class="node">
<title>MsgErrorDirective</title>
<polygon fill="#ffffb3" stroke="black" points="1723.01,-84.8 1600.99,-84.8 1600.99,-48.8 1723.01,-48.8 1723.01,-84.8"/>
<text text-anchor="middle" x="1662" y="-62.6" font-family="Times,serif" font-size="14.00">MsgErrorDirective</text>
</g>
<!-- MsgErrorDirective&#45;&gt;RegistroProgramacionDiariaModule -->
<g id="edge3" class="edge">
<title>MsgErrorDirective&#45;&gt;RegistroProgramacionDiariaModule</title>
<path fill="none" stroke="black" d="M1662,-85.07C1662,-103.36 1662,-128.8 1662,-128.8 1662,-128.8 1210.29,-128.8 1210.29,-128.8"/>
<polygon fill="black" stroke="black" points="1210.29,-125.3 1200.29,-128.8 1210.29,-132.3 1210.29,-125.3"/>
</g>
<!-- SeccionEquipoPortatilComponent -->
<g id="node4" class="node">
<title>SeccionEquipoPortatilComponent</title>
<polygon fill="#ffffb3" stroke="black" points="1582.81,-84.8 1375.19,-84.8 1375.19,-48.8 1582.81,-48.8 1582.81,-84.8"/>
<text text-anchor="middle" x="1479" y="-62.6" font-family="Times,serif" font-size="14.00">SeccionEquipoPortatilComponent</text>
</g>
<!-- SeccionEquipoPortatilComponent&#45;&gt;RegistroProgramacionDiariaModule -->
<g id="edge4" class="edge">
<title>SeccionEquipoPortatilComponent&#45;&gt;RegistroProgramacionDiariaModule</title>
<path fill="none" stroke="black" d="M1479,-84.81C1479,-100.85 1479,-121.8 1479,-121.8 1479,-121.8 1210.43,-121.8 1210.43,-121.8"/>
<polygon fill="black" stroke="black" points="1210.43,-118.3 1200.43,-121.8 1210.43,-125.3 1210.43,-118.3"/>
</g>
<!-- SeccionInspeccionYOficialCuadrillaComponent -->
<g id="node5" class="node">
<title>SeccionInspeccionYOficialCuadrillaComponent</title>
<polygon fill="#ffffb3" stroke="black" points="1357.86,-84.8 1070.14,-84.8 1070.14,-48.8 1357.86,-48.8 1357.86,-84.8"/>
<text text-anchor="middle" x="1214" y="-62.6" font-family="Times,serif" font-size="14.00">SeccionInspeccionYOficialCuadrillaComponent</text>
</g>
<!-- SeccionInspeccionYOficialCuadrillaComponent&#45;&gt;RegistroProgramacionDiariaModule -->
<g id="edge5" class="edge">
<title>SeccionInspeccionYOficialCuadrillaComponent&#45;&gt;RegistroProgramacionDiariaModule</title>
<path fill="none" stroke="black" d="M1135.28,-84.91C1135.28,-84.91 1135.28,-103.79 1135.28,-103.79"/>
<polygon fill="black" stroke="black" points="1131.78,-103.79 1135.28,-113.79 1138.78,-103.79 1131.78,-103.79"/>
</g>
<!-- SeccionMaterialComponent -->
<g id="node6" class="node">
<title>SeccionMaterialComponent</title>
<polygon fill="#ffffb3" stroke="black" points="1052.57,-84.8 879.43,-84.8 879.43,-48.8 1052.57,-48.8 1052.57,-84.8"/>
<text text-anchor="middle" x="966" y="-62.6" font-family="Times,serif" font-size="14.00">SeccionMaterialComponent</text>
</g>
<!-- SeccionMaterialComponent&#45;&gt;RegistroProgramacionDiariaModule -->
<g id="edge6" class="edge">
<title>SeccionMaterialComponent&#45;&gt;RegistroProgramacionDiariaModule</title>
<path fill="none" stroke="black" d="M1016.14,-84.91C1016.14,-84.91 1016.14,-103.79 1016.14,-103.79"/>
<polygon fill="black" stroke="black" points="1012.64,-103.79 1016.14,-113.79 1019.64,-103.79 1012.64,-103.79"/>
</g>
<!-- SeccionPersonalComponent -->
<g id="node7" class="node">
<title>SeccionPersonalComponent</title>
<polygon fill="#ffffb3" stroke="black" points="861.86,-84.8 688.14,-84.8 688.14,-48.8 861.86,-48.8 861.86,-84.8"/>
<text text-anchor="middle" x="775" y="-62.6" font-family="Times,serif" font-size="14.00">SeccionPersonalComponent</text>
</g>
<!-- SeccionPersonalComponent&#45;&gt;RegistroProgramacionDiariaModule -->
<g id="edge7" class="edge">
<title>SeccionPersonalComponent&#45;&gt;RegistroProgramacionDiariaModule</title>
<path fill="none" stroke="black" d="M775,-84.81C775,-100.85 775,-121.8 775,-121.8 775,-121.8 969.39,-121.8 969.39,-121.8"/>
<polygon fill="black" stroke="black" points="969.39,-125.3 979.39,-121.8 969.39,-118.3 969.39,-125.3"/>
</g>
<!-- SeccionProgramacionDiariaComponent -->
<g id="node8" class="node">
<title>SeccionProgramacionDiariaComponent</title>
<polygon fill="#ffffb3" stroke="black" points="669.66,-84.8 430.34,-84.8 430.34,-48.8 669.66,-48.8 669.66,-84.8"/>
<text text-anchor="middle" x="550" y="-62.6" font-family="Times,serif" font-size="14.00">SeccionProgramacionDiariaComponent</text>
</g>
<!-- SeccionProgramacionDiariaComponent&#45;&gt;RegistroProgramacionDiariaModule -->
<g id="edge8" class="edge">
<title>SeccionProgramacionDiariaComponent&#45;&gt;RegistroProgramacionDiariaModule</title>
<path fill="none" stroke="black" d="M550,-85.07C550,-103.36 550,-128.8 550,-128.8 550,-128.8 969.75,-128.8 969.75,-128.8"/>
<polygon fill="black" stroke="black" points="969.75,-132.3 979.75,-128.8 969.75,-125.3 969.75,-132.3"/>
</g>
<!-- RegistroProgramacionDiariaRoutingModule -->
<g id="node10" class="node">
<title>RegistroProgramacionDiariaRoutingModule</title>
<polygon fill="#8dd3c7" stroke="black" points="405.61,-84.8 402.61,-88.8 381.61,-88.8 378.61,-84.8 140.39,-84.8 140.39,-48.8 405.61,-48.8 405.61,-84.8"/>
<text text-anchor="middle" x="273" y="-62.6" font-family="Times,serif" font-size="14.00">RegistroProgramacionDiariaRoutingModule</text>
</g>
<!-- RegistroProgramacionDiariaRoutingModule&#45;&gt;RegistroProgramacionDiariaModule -->
<g id="edge9" class="edge">
<title>RegistroProgramacionDiariaRoutingModule&#45;&gt;RegistroProgramacionDiariaModule</title>
<path fill="none" stroke="black" d="M273,-84.93C273,-105.37 273,-135.8 273,-135.8 273,-135.8 969.39,-135.8 969.39,-135.8"/>
<polygon fill="black" stroke="black" points="969.39,-139.3 979.39,-135.8 969.39,-132.3 969.39,-139.3"/>
</g>
<!-- SharedModule -->
<g id="node11" class="node">
<title>SharedModule</title>
<polygon fill="#8dd3c7" stroke="black" points="122.42,-84.8 119.42,-88.8 98.42,-88.8 95.42,-84.8 23.58,-84.8 23.58,-48.8 122.42,-48.8 122.42,-84.8"/>
<text text-anchor="middle" x="73" y="-62.6" font-family="Times,serif" font-size="14.00">SharedModule</text>
</g>
<!-- SharedModule&#45;&gt;RegistroProgramacionDiariaModule -->
<g id="edge10" class="edge">
<title>SharedModule&#45;&gt;RegistroProgramacionDiariaModule</title>
<path fill="none" stroke="black" d="M73,-84.81C73,-107.29 73,-142.8 73,-142.8 73,-142.8 969.71,-142.8 969.71,-142.8"/>
<polygon fill="black" stroke="black" points="969.71,-146.3 979.71,-142.8 969.71,-139.3 969.71,-146.3"/>
</g>
</g>
</svg>
