<?xml version="1.0" encoding="UTF-8" standalone="no"?>
<!DOCTYPE svg PUBLIC "-//W3C//DTD SVG 1.1//EN"
 "http://www.w3.org/Graphics/SVG/1.1/DTD/svg11.dtd">
<!-- Generated by graphviz version 2.47.3 (20210619.1520)
 -->
<!-- Title: dependencies Pages: 1 -->
<svg width="1128pt" height="247pt"
 viewBox="0.00 0.00 1128.00 246.80" xmlns="http://www.w3.org/2000/svg" xmlns:xlink="http://www.w3.org/1999/xlink">
<g id="graph0" class="graph" transform="scale(1 1) rotate(0) translate(4 242.8)">
<title>dependencies</title>
<polygon fill="white" stroke="transparent" points="-4,4 -4,-242.8 1124,-242.8 1124,4 -4,4"/>
<text text-anchor="middle" x="560" y="-8.2" font-family="sans-serif" font-size="14.00">dependencies</text>
<g id="clust1" class="cluster">
<title>cluster_GestionReservaModule</title>
<polygon fill="none" stroke="black" stroke-dasharray="1,5" points="8,-32.8 8,-230.8 1112,-230.8 1112,-32.8 8,-32.8"/>
</g>
<g id="clust2" class="cluster">
<title>cluster_GestionReservaModule_declarations</title>
<polygon fill="none" stroke="black" points="350,-40.8 350,-92.8 1104,-92.8 1104,-40.8 350,-40.8"/>
</g>
<g id="clust8" class="cluster">
<title>cluster_GestionReservaModule_exports</title>
<polygon fill="none" stroke="black" points="459,-170.8 459,-222.8 651,-222.8 651,-170.8 459,-170.8"/>
</g>
<g id="clust7" class="cluster">
<title>cluster_GestionReservaModule_imports</title>
<polygon fill="none" stroke="black" points="16,-40.8 16,-92.8 342,-92.8 342,-40.8 16,-40.8"/>
</g>
<!-- BuscarRadicadoComponent -->
<g id="node1" class="node">
<title>BuscarRadicadoComponent</title>
<polygon fill="#ffffb3" stroke="black" points="1095.57,-84.8 922.43,-84.8 922.43,-48.8 1095.57,-48.8 1095.57,-84.8"/>
<text text-anchor="middle" x="1009" y="-62.6" font-family="Times,serif" font-size="14.00">BuscarRadicadoComponent</text>
</g>
<!-- GestionReservaModule -->
<g id="node5" class="node">
<title>GestionReservaModule</title>
<polygon fill="#8dd3c7" stroke="black" points="629.18,-149.8 626.18,-153.8 605.18,-153.8 602.18,-149.8 480.82,-149.8 480.82,-113.8 629.18,-113.8 629.18,-149.8"/>
<text text-anchor="middle" x="555" y="-127.6" font-family="Times,serif" font-size="14.00">GestionReservaModule</text>
</g>
<!-- BuscarRadicadoComponent&#45;&gt;GestionReservaModule -->
<g id="edge1" class="edge">
<title>BuscarRadicadoComponent&#45;&gt;GestionReservaModule</title>
<path fill="none" stroke="black" d="M1009,-85.08C1009,-106.12 1009,-137.8 1009,-137.8 1009,-137.8 639.21,-137.8 639.21,-137.8"/>
<polygon fill="black" stroke="black" points="639.21,-134.3 629.21,-137.8 639.21,-141.3 639.21,-134.3"/>
</g>
<!-- GestionarReservaComponent -->
<g id="node2" class="node">
<title>GestionarReservaComponent</title>
<polygon fill="#ffffb3" stroke="black" points="904.34,-84.8 723.66,-84.8 723.66,-48.8 904.34,-48.8 904.34,-84.8"/>
<text text-anchor="middle" x="814" y="-62.6" font-family="Times,serif" font-size="14.00">GestionarReservaComponent</text>
</g>
<!-- GestionarReservaComponent&#45;&gt;GestionReservaModule -->
<g id="edge2" class="edge">
<title>GestionarReservaComponent&#45;&gt;GestionReservaModule</title>
<path fill="none" stroke="black" d="M814,-84.82C814,-102.17 814,-125.8 814,-125.8 814,-125.8 639.22,-125.8 639.22,-125.8"/>
<polygon fill="black" stroke="black" points="639.22,-122.3 629.22,-125.8 639.22,-129.3 639.22,-122.3"/>
</g>
<!-- ModalComponent -->
<g id="node3" class="node">
<title>ModalComponent</title>
<polygon fill="#ffffb3" stroke="black" points="705.88,-84.8 588.12,-84.8 588.12,-48.8 705.88,-48.8 705.88,-84.8"/>
<text text-anchor="middle" x="647" y="-62.6" font-family="Times,serif" font-size="14.00">ModalComponent</text>
</g>
<!-- ModalComponent&#45;&gt;GestionReservaModule -->
<g id="edge3" class="edge">
<title>ModalComponent&#45;&gt;GestionReservaModule</title>
<path fill="none" stroke="black" d="M608.58,-84.91C608.58,-84.91 608.58,-103.79 608.58,-103.79"/>
<polygon fill="black" stroke="black" points="605.08,-103.79 608.58,-113.79 612.08,-103.79 605.08,-103.79"/>
</g>
<!-- TablaGestionPendienteComponent -->
<g id="node4" class="node">
<title>TablaGestionPendienteComponent</title>
<polygon fill="#ffffb3" stroke="black" points="569.96,-84.8 358.04,-84.8 358.04,-48.8 569.96,-48.8 569.96,-84.8"/>
<text text-anchor="middle" x="464" y="-62.6" font-family="Times,serif" font-size="14.00">TablaGestionPendienteComponent</text>
</g>
<!-- TablaGestionPendienteComponent&#45;&gt;GestionReservaModule -->
<g id="edge4" class="edge">
<title>TablaGestionPendienteComponent&#45;&gt;GestionReservaModule</title>
<path fill="none" stroke="black" d="M525.44,-84.91C525.44,-84.91 525.44,-103.79 525.44,-103.79"/>
<polygon fill="black" stroke="black" points="521.94,-103.79 525.44,-113.79 528.94,-103.79 521.94,-103.79"/>
</g>
<!-- BuscarRadicadoComponent  -->
<g id="node8" class="node">
<title>BuscarRadicadoComponent </title>
<polygon fill="#fb8072" stroke="black" points="643.07,-214.8 466.93,-214.8 466.93,-178.8 643.07,-178.8 643.07,-214.8"/>
<text text-anchor="middle" x="555" y="-192.6" font-family="Times,serif" font-size="14.00">BuscarRadicadoComponent </text>
</g>
<!-- GestionReservaModule&#45;&gt;BuscarRadicadoComponent  -->
<g id="edge7" class="edge">
<title>GestionReservaModule&#45;&gt;BuscarRadicadoComponent </title>
<path fill="none" stroke="black" stroke-dasharray="5,2" d="M555,-149.91C555,-149.91 555,-168.79 555,-168.79"/>
<polygon fill="black" stroke="black" points="551.5,-168.79 555,-178.79 558.5,-168.79 551.5,-168.79"/>
</g>
<!-- GestionReservaRoutingModule -->
<g id="node6" class="node">
<title>GestionReservaRoutingModule</title>
<polygon fill="#8dd3c7" stroke="black" points="333.8,-84.8 330.8,-88.8 309.8,-88.8 306.8,-84.8 140.2,-84.8 140.2,-48.8 333.8,-48.8 333.8,-84.8"/>
<text text-anchor="middle" x="237" y="-62.6" font-family="Times,serif" font-size="14.00">GestionReservaRoutingModule</text>
</g>
<!-- GestionReservaRoutingModule&#45;&gt;GestionReservaModule -->
<g id="edge5" class="edge">
<title>GestionReservaRoutingModule&#45;&gt;GestionReservaModule</title>
<path fill="none" stroke="black" d="M237,-84.82C237,-102.17 237,-125.8 237,-125.8 237,-125.8 470.84,-125.8 470.84,-125.8"/>
<polygon fill="black" stroke="black" points="470.84,-129.3 480.84,-125.8 470.84,-122.3 470.84,-129.3"/>
</g>
<!-- SharedModule -->
<g id="node7" class="node">
<title>SharedModule</title>
<polygon fill="#8dd3c7" stroke="black" points="122.42,-84.8 119.42,-88.8 98.42,-88.8 95.42,-84.8 23.58,-84.8 23.58,-48.8 122.42,-48.8 122.42,-84.8"/>
<text text-anchor="middle" x="73" y="-62.6" font-family="Times,serif" font-size="14.00">SharedModule</text>
</g>
<!-- SharedModule&#45;&gt;GestionReservaModule -->
<g id="edge6" class="edge">
<title>SharedModule&#45;&gt;GestionReservaModule</title>
<path fill="none" stroke="black" d="M73,-85.08C73,-106.12 73,-137.8 73,-137.8 73,-137.8 470.74,-137.8 470.74,-137.8"/>
<polygon fill="black" stroke="black" points="470.74,-141.3 480.74,-137.8 470.74,-134.3 470.74,-141.3"/>
</g>
</g>
</svg>
