<?xml version="1.0" encoding="UTF-8" standalone="no"?>
<!DOCTYPE svg PUBLIC "-//W3C//DTD SVG 1.1//EN"
 "http://www.w3.org/Graphics/SVG/1.1/DTD/svg11.dtd">
<!-- Generated by graphviz version 2.47.3 (20210619.1520)
 -->
<!-- Title: dependencies Pages: 1 -->
<svg width="2069pt" height="174pt"
 viewBox="0.00 0.00 2069.00 173.80" xmlns="http://www.w3.org/2000/svg" xmlns:xlink="http://www.w3.org/1999/xlink">
<g id="graph0" class="graph" transform="scale(1 1) rotate(0) translate(4 169.8)">
<title>dependencies</title>
<polygon fill="white" stroke="transparent" points="-4,4 -4,-169.8 2065,-169.8 2065,4 -4,4"/>
<text text-anchor="middle" x="1030.5" y="-8.2" font-family="sans-serif" font-size="14.00">dependencies</text>
<g id="clust1" class="cluster">
<title>cluster_MantenimientoModule</title>
<polygon fill="none" stroke="black" stroke-dasharray="1,5" points="8,-32.8 8,-157.8 2053,-157.8 2053,-32.8 8,-32.8"/>
</g>
<g id="clust11" class="cluster">
<title>cluster_MantenimientoModule_imports</title>
<polygon fill="none" stroke="black" points="1723,-40.8 1723,-92.8 2045,-92.8 2045,-40.8 1723,-40.8"/>
</g>
<g id="clust2" class="cluster">
<title>cluster_MantenimientoModule_declarations</title>
<polygon fill="none" stroke="black" points="16,-40.8 16,-92.8 1715,-92.8 1715,-40.8 16,-40.8"/>
</g>
<!-- AsignarConductorOperarioComponent -->
<g id="node1" class="node">
<title>AsignarConductorOperarioComponent</title>
<polygon fill="#ffffb3" stroke="black" points="1707.5,-84.8 1472.5,-84.8 1472.5,-48.8 1707.5,-48.8 1707.5,-84.8"/>
<text text-anchor="middle" x="1590" y="-62.6" font-family="Times,serif" font-size="14.00">AsignarConductorOperarioComponent</text>
</g>
<!-- MantenimientoModule -->
<g id="node9" class="node">
<title>MantenimientoModule</title>
<polygon fill="#8dd3c7" stroke="black" points="1054.59,-149.8 1051.59,-153.8 1030.59,-153.8 1027.59,-149.8 909.41,-149.8 909.41,-113.8 1054.59,-113.8 1054.59,-149.8"/>
<text text-anchor="middle" x="982" y="-127.6" font-family="Times,serif" font-size="14.00">MantenimientoModule</text>
</g>
<!-- AsignarConductorOperarioComponent&#45;&gt;MantenimientoModule -->
<g id="edge1" class="edge">
<title>AsignarConductorOperarioComponent&#45;&gt;MantenimientoModule</title>
<path fill="none" stroke="black" d="M1590,-85.07C1590,-103.36 1590,-128.8 1590,-128.8 1590,-128.8 1064.74,-128.8 1064.74,-128.8"/>
<polygon fill="black" stroke="black" points="1064.74,-125.3 1054.74,-128.8 1064.74,-132.3 1064.74,-125.3"/>
</g>
<!-- CalendarioAsignacionCoComponent -->
<g id="node2" class="node">
<title>CalendarioAsignacionCoComponent</title>
<polygon fill="#ffffb3" stroke="black" points="1454.35,-84.8 1231.65,-84.8 1231.65,-48.8 1454.35,-48.8 1454.35,-84.8"/>
<text text-anchor="middle" x="1343" y="-62.6" font-family="Times,serif" font-size="14.00">CalendarioAsignacionCoComponent</text>
</g>
<!-- CalendarioAsignacionCoComponent&#45;&gt;MantenimientoModule -->
<g id="edge2" class="edge">
<title>CalendarioAsignacionCoComponent&#45;&gt;MantenimientoModule</title>
<path fill="none" stroke="black" d="M1343,-84.81C1343,-100.85 1343,-121.8 1343,-121.8 1343,-121.8 1064.62,-121.8 1064.62,-121.8"/>
<polygon fill="black" stroke="black" points="1064.62,-118.3 1054.62,-121.8 1064.62,-125.3 1064.62,-118.3"/>
</g>
<!-- DialogoMotivoCancelacionComponent -->
<g id="node3" class="node">
<title>DialogoMotivoCancelacionComponent</title>
<polygon fill="#ffffb3" stroke="black" points="1213.35,-84.8 976.65,-84.8 976.65,-48.8 1213.35,-48.8 1213.35,-84.8"/>
<text text-anchor="middle" x="1095" y="-62.6" font-family="Times,serif" font-size="14.00">DialogoMotivoCancelacionComponent</text>
</g>
<!-- DialogoMotivoCancelacionComponent&#45;&gt;MantenimientoModule -->
<g id="edge3" class="edge">
<title>DialogoMotivoCancelacionComponent&#45;&gt;MantenimientoModule</title>
<path fill="none" stroke="black" d="M1015.56,-84.91C1015.56,-84.91 1015.56,-103.79 1015.56,-103.79"/>
<polygon fill="black" stroke="black" points="1012.06,-103.79 1015.56,-113.79 1019.06,-103.79 1012.06,-103.79"/>
</g>
<!-- EditarAsignacionComponent -->
<g id="node4" class="node">
<title>EditarAsignacionComponent</title>
<polygon fill="#ffffb3" stroke="black" points="958.8,-84.8 779.2,-84.8 779.2,-48.8 958.8,-48.8 958.8,-84.8"/>
<text text-anchor="middle" x="869" y="-62.6" font-family="Times,serif" font-size="14.00">EditarAsignacionComponent</text>
</g>
<!-- EditarAsignacionComponent&#45;&gt;MantenimientoModule -->
<g id="edge4" class="edge">
<title>EditarAsignacionComponent&#45;&gt;MantenimientoModule</title>
<path fill="none" stroke="black" d="M934.05,-84.91C934.05,-84.91 934.05,-103.79 934.05,-103.79"/>
<polygon fill="black" stroke="black" points="930.55,-103.79 934.05,-113.79 937.55,-103.79 930.55,-103.79"/>
</g>
<!-- EditarProgramacionComponent -->
<g id="node5" class="node">
<title>EditarProgramacionComponent</title>
<polygon fill="#ffffb3" stroke="black" points="761.07,-84.8 566.93,-84.8 566.93,-48.8 761.07,-48.8 761.07,-84.8"/>
<text text-anchor="middle" x="664" y="-62.6" font-family="Times,serif" font-size="14.00">EditarProgramacionComponent</text>
</g>
<!-- EditarProgramacionComponent&#45;&gt;MantenimientoModule -->
<g id="edge5" class="edge">
<title>EditarProgramacionComponent&#45;&gt;MantenimientoModule</title>
<path fill="none" stroke="black" d="M664,-84.81C664,-100.85 664,-121.8 664,-121.8 664,-121.8 899.44,-121.8 899.44,-121.8"/>
<polygon fill="black" stroke="black" points="899.44,-125.3 909.44,-121.8 899.44,-118.3 899.44,-125.3"/>
</g>
<!-- EditarReporteFalloComponent -->
<g id="node6" class="node">
<title>EditarReporteFalloComponent</title>
<polygon fill="#ffffb3" stroke="black" points="549.14,-84.8 360.86,-84.8 360.86,-48.8 549.14,-48.8 549.14,-84.8"/>
<text text-anchor="middle" x="455" y="-62.6" font-family="Times,serif" font-size="14.00">EditarReporteFalloComponent</text>
</g>
<!-- EditarReporteFalloComponent&#45;&gt;MantenimientoModule -->
<g id="edge6" class="edge">
<title>EditarReporteFalloComponent&#45;&gt;MantenimientoModule</title>
<path fill="none" stroke="black" d="M455,-85.07C455,-103.36 455,-128.8 455,-128.8 455,-128.8 899.28,-128.8 899.28,-128.8"/>
<polygon fill="black" stroke="black" points="899.28,-132.3 909.28,-128.8 899.28,-125.3 899.28,-132.3"/>
</g>
<!-- ProgramarComponent -->
<g id="node7" class="node">
<title>ProgramarComponent</title>
<polygon fill="#ffffb3" stroke="black" points="342.42,-84.8 201.58,-84.8 201.58,-48.8 342.42,-48.8 342.42,-84.8"/>
<text text-anchor="middle" x="272" y="-62.6" font-family="Times,serif" font-size="14.00">ProgramarComponent</text>
</g>
<!-- ProgramarComponent&#45;&gt;MantenimientoModule -->
<g id="edge7" class="edge">
<title>ProgramarComponent&#45;&gt;MantenimientoModule</title>
<path fill="none" stroke="black" d="M272,-84.93C272,-105.37 272,-135.8 272,-135.8 272,-135.8 899.35,-135.8 899.35,-135.8"/>
<polygon fill="black" stroke="black" points="899.35,-139.3 909.35,-135.8 899.35,-132.3 899.35,-139.3"/>
</g>
<!-- ReportarFalloComponent -->
<g id="node8" class="node">
<title>ReportarFalloComponent</title>
<polygon fill="#ffffb3" stroke="black" points="183.59,-84.8 24.41,-84.8 24.41,-48.8 183.59,-48.8 183.59,-84.8"/>
<text text-anchor="middle" x="104" y="-62.6" font-family="Times,serif" font-size="14.00">ReportarFalloComponent</text>
</g>
<!-- ReportarFalloComponent&#45;&gt;MantenimientoModule -->
<g id="edge8" class="edge">
<title>ReportarFalloComponent&#45;&gt;MantenimientoModule</title>
<path fill="none" stroke="black" d="M104,-84.81C104,-107.29 104,-142.8 104,-142.8 104,-142.8 899.4,-142.8 899.4,-142.8"/>
<polygon fill="black" stroke="black" points="899.4,-146.3 909.4,-142.8 899.4,-139.3 899.4,-146.3"/>
</g>
<!-- MantenimientoRoutingModule -->
<g id="node10" class="node">
<title>MantenimientoRoutingModule</title>
<polygon fill="#8dd3c7" stroke="black" points="2037.21,-84.8 2034.21,-88.8 2013.21,-88.8 2010.21,-84.8 1846.79,-84.8 1846.79,-48.8 2037.21,-48.8 2037.21,-84.8"/>
<text text-anchor="middle" x="1942" y="-62.6" font-family="Times,serif" font-size="14.00">MantenimientoRoutingModule</text>
</g>
<!-- MantenimientoRoutingModule&#45;&gt;MantenimientoModule -->
<g id="edge9" class="edge">
<title>MantenimientoRoutingModule&#45;&gt;MantenimientoModule</title>
<path fill="none" stroke="black" d="M1942,-84.81C1942,-107.29 1942,-142.8 1942,-142.8 1942,-142.8 1064.55,-142.8 1064.55,-142.8"/>
<polygon fill="black" stroke="black" points="1064.55,-139.3 1054.55,-142.8 1064.55,-146.3 1064.55,-139.3"/>
</g>
<!-- SharedModule -->
<g id="node11" class="node">
<title>SharedModule</title>
<polygon fill="#8dd3c7" stroke="black" points="1829.42,-84.8 1826.42,-88.8 1805.42,-88.8 1802.42,-84.8 1730.58,-84.8 1730.58,-48.8 1829.42,-48.8 1829.42,-84.8"/>
<text text-anchor="middle" x="1780" y="-62.6" font-family="Times,serif" font-size="14.00">SharedModule</text>
</g>
<!-- SharedModule&#45;&gt;MantenimientoModule -->
<g id="edge10" class="edge">
<title>SharedModule&#45;&gt;MantenimientoModule</title>
<path fill="none" stroke="black" d="M1780,-84.93C1780,-105.37 1780,-135.8 1780,-135.8 1780,-135.8 1064.58,-135.8 1064.58,-135.8"/>
<polygon fill="black" stroke="black" points="1064.58,-132.3 1054.58,-135.8 1064.58,-139.3 1064.58,-132.3"/>
</g>
</g>
</svg>
