<?xml version="1.0" encoding="UTF-8" standalone="no"?>
<!DOCTYPE svg PUBLIC "-//W3C//DTD SVG 1.1//EN"
 "http://www.w3.org/Graphics/SVG/1.1/DTD/svg11.dtd">
<!-- Generated by graphviz version 2.47.3 (20210619.1520)
 -->
<!-- Title: dependencies Pages: 1 -->
<svg width="2384pt" height="174pt"
 viewBox="0.00 0.00 2384.00 173.80" xmlns="http://www.w3.org/2000/svg" xmlns:xlink="http://www.w3.org/1999/xlink">
<g id="graph0" class="graph" transform="scale(1 1) rotate(0) translate(4 169.8)">
<title>dependencies</title>
<polygon fill="white" stroke="transparent" points="-4,4 -4,-169.8 2380,-169.8 2380,4 -4,4"/>
<text text-anchor="middle" x="1188" y="-8.2" font-family="sans-serif" font-size="14.00">dependencies</text>
<g id="clust1" class="cluster">
<title>cluster_VincularPksModule</title>
<polygon fill="none" stroke="black" stroke-dasharray="1,5" points="8,-32.8 8,-157.8 2368,-157.8 2368,-32.8 8,-32.8"/>
</g>
<g id="clust12" class="cluster">
<title>cluster_VincularPksModule_imports</title>
<polygon fill="none" stroke="black" points="1888,-40.8 1888,-92.8 2360,-92.8 2360,-40.8 1888,-40.8"/>
</g>
<g id="clust2" class="cluster">
<title>cluster_VincularPksModule_declarations</title>
<polygon fill="none" stroke="black" points="16,-40.8 16,-92.8 1880,-92.8 1880,-40.8 16,-40.8"/>
</g>
<!-- AsignarMisionalidadComponent -->
<g id="node1" class="node">
<title>AsignarMisionalidadComponent</title>
<polygon fill="#ffffb3" stroke="black" points="1871.53,-84.8 1672.47,-84.8 1672.47,-48.8 1871.53,-48.8 1871.53,-84.8"/>
<text text-anchor="middle" x="1772" y="-62.6" font-family="Times,serif" font-size="14.00">AsignarMisionalidadComponent</text>
</g>
<!-- VincularPksModule -->
<g id="node10" class="node">
<title>VincularPksModule</title>
<polygon fill="#8dd3c7" stroke="black" points="1301.25,-149.8 1298.25,-153.8 1277.25,-153.8 1274.25,-149.8 1172.75,-149.8 1172.75,-113.8 1301.25,-113.8 1301.25,-149.8"/>
<text text-anchor="middle" x="1237" y="-127.6" font-family="Times,serif" font-size="14.00">VincularPksModule</text>
</g>
<!-- AsignarMisionalidadComponent&#45;&gt;VincularPksModule -->
<g id="edge1" class="edge">
<title>AsignarMisionalidadComponent&#45;&gt;VincularPksModule</title>
<path fill="none" stroke="black" d="M1772,-84.82C1772,-102.17 1772,-125.8 1772,-125.8 1772,-125.8 1311.27,-125.8 1311.27,-125.8"/>
<polygon fill="black" stroke="black" points="1311.27,-122.3 1301.27,-125.8 1311.27,-129.3 1311.27,-122.3"/>
</g>
<!-- AsignarSeguimientoComponent -->
<g id="node2" class="node">
<title>AsignarSeguimientoComponent</title>
<polygon fill="#ffffb3" stroke="black" points="1654.42,-84.8 1457.58,-84.8 1457.58,-48.8 1654.42,-48.8 1654.42,-84.8"/>
<text text-anchor="middle" x="1556" y="-62.6" font-family="Times,serif" font-size="14.00">AsignarSeguimientoComponent</text>
</g>
<!-- AsignarSeguimientoComponent&#45;&gt;VincularPksModule -->
<g id="edge2" class="edge">
<title>AsignarSeguimientoComponent&#45;&gt;VincularPksModule</title>
<path fill="none" stroke="black" d="M1556,-85.04C1556,-100.37 1556,-119.8 1556,-119.8 1556,-119.8 1311.55,-119.8 1311.55,-119.8"/>
<polygon fill="black" stroke="black" points="1311.55,-116.3 1301.55,-119.8 1311.55,-123.3 1311.55,-116.3"/>
</g>
<!-- GestionarPeticionarioComponent -->
<g id="node3" class="node">
<title>GestionarPeticionarioComponent</title>
<polygon fill="#ffffb3" stroke="black" points="1439.9,-84.8 1236.1,-84.8 1236.1,-48.8 1439.9,-48.8 1439.9,-84.8"/>
<text text-anchor="middle" x="1338" y="-62.6" font-family="Times,serif" font-size="14.00">GestionarPeticionarioComponent</text>
</g>
<!-- GestionarPeticionarioComponent&#45;&gt;VincularPksModule -->
<g id="edge3" class="edge">
<title>GestionarPeticionarioComponent&#45;&gt;VincularPksModule</title>
<path fill="none" stroke="black" d="M1268.84,-84.91C1268.84,-84.91 1268.84,-103.79 1268.84,-103.79"/>
<polygon fill="black" stroke="black" points="1265.34,-103.79 1268.84,-113.79 1272.34,-103.79 1265.34,-103.79"/>
</g>
<!-- SegMapaUmvComponent -->
<g id="node4" class="node">
<title>SegMapaUmvComponent</title>
<polygon fill="#ffffb3" stroke="black" points="1218.2,-84.8 1055.8,-84.8 1055.8,-48.8 1218.2,-48.8 1218.2,-84.8"/>
<text text-anchor="middle" x="1137" y="-62.6" font-family="Times,serif" font-size="14.00">SegMapaUmvComponent</text>
</g>
<!-- SegMapaUmvComponent&#45;&gt;VincularPksModule -->
<g id="edge4" class="edge">
<title>SegMapaUmvComponent&#45;&gt;VincularPksModule</title>
<path fill="none" stroke="black" d="M1195.36,-84.91C1195.36,-84.91 1195.36,-103.79 1195.36,-103.79"/>
<polygon fill="black" stroke="black" points="1191.86,-103.79 1195.36,-113.79 1198.86,-103.79 1191.86,-103.79"/>
</g>
<!-- TablaRadicadoVinculadoComponent -->
<g id="node5" class="node">
<title>TablaRadicadoVinculadoComponent</title>
<polygon fill="#ffffb3" stroke="black" points="1038.39,-84.8 813.61,-84.8 813.61,-48.8 1038.39,-48.8 1038.39,-84.8"/>
<text text-anchor="middle" x="926" y="-62.6" font-family="Times,serif" font-size="14.00">TablaRadicadoVinculadoComponent</text>
</g>
<!-- TablaRadicadoVinculadoComponent&#45;&gt;VincularPksModule -->
<g id="edge5" class="edge">
<title>TablaRadicadoVinculadoComponent&#45;&gt;VincularPksModule</title>
<path fill="none" stroke="black" d="M926,-85.04C926,-100.37 926,-119.8 926,-119.8 926,-119.8 1162.56,-119.8 1162.56,-119.8"/>
<polygon fill="black" stroke="black" points="1162.56,-123.3 1172.56,-119.8 1162.56,-116.3 1162.56,-123.3"/>
</g>
<!-- TablaSeguimientosComponent -->
<g id="node6" class="node">
<title>TablaSeguimientosComponent</title>
<polygon fill="#ffffb3" stroke="black" points="795.92,-84.8 606.08,-84.8 606.08,-48.8 795.92,-48.8 795.92,-84.8"/>
<text text-anchor="middle" x="701" y="-62.6" font-family="Times,serif" font-size="14.00">TablaSeguimientosComponent</text>
</g>
<!-- TablaSeguimientosComponent&#45;&gt;VincularPksModule -->
<g id="edge6" class="edge">
<title>TablaSeguimientosComponent&#45;&gt;VincularPksModule</title>
<path fill="none" stroke="black" d="M701,-84.82C701,-102.17 701,-125.8 701,-125.8 701,-125.8 1162.61,-125.8 1162.61,-125.8"/>
<polygon fill="black" stroke="black" points="1162.61,-129.3 1172.61,-125.8 1162.61,-122.3 1162.61,-129.3"/>
</g>
<!-- TablaVincularComponent -->
<g id="node7" class="node">
<title>TablaVincularComponent</title>
<polygon fill="#ffffb3" stroke="black" points="588.18,-84.8 425.82,-84.8 425.82,-48.8 588.18,-48.8 588.18,-84.8"/>
<text text-anchor="middle" x="507" y="-62.6" font-family="Times,serif" font-size="14.00">TablaVincularComponent</text>
</g>
<!-- TablaVincularComponent&#45;&gt;VincularPksModule -->
<g id="edge7" class="edge">
<title>TablaVincularComponent&#45;&gt;VincularPksModule</title>
<path fill="none" stroke="black" d="M507,-84.91C507,-104.14 507,-131.8 507,-131.8 507,-131.8 1162.54,-131.8 1162.54,-131.8"/>
<polygon fill="black" stroke="black" points="1162.54,-135.3 1172.54,-131.8 1162.54,-128.3 1162.54,-135.3"/>
</g>
<!-- VincularPeticionarioComponent -->
<g id="node8" class="node">
<title>VincularPeticionarioComponent</title>
<polygon fill="#ffffb3" stroke="black" points="407.96,-84.8 210.04,-84.8 210.04,-48.8 407.96,-48.8 407.96,-84.8"/>
<text text-anchor="middle" x="309" y="-62.6" font-family="Times,serif" font-size="14.00">VincularPeticionarioComponent</text>
</g>
<!-- VincularPeticionarioComponent&#45;&gt;VincularPksModule -->
<g id="edge8" class="edge">
<title>VincularPeticionarioComponent&#45;&gt;VincularPksModule</title>
<path fill="none" stroke="black" d="M309,-85.08C309,-106.12 309,-137.8 309,-137.8 309,-137.8 1162.48,-137.8 1162.48,-137.8"/>
<polygon fill="black" stroke="black" points="1162.48,-141.3 1172.48,-137.8 1162.48,-134.3 1162.48,-141.3"/>
</g>
<!-- WebMapaUmvComponent -->
<g id="node9" class="node">
<title>WebMapaUmvComponent</title>
<polygon fill="#ffffb3" stroke="black" points="191.63,-84.8 24.37,-84.8 24.37,-48.8 191.63,-48.8 191.63,-84.8"/>
<text text-anchor="middle" x="108" y="-62.6" font-family="Times,serif" font-size="14.00">WebMapaUmvComponent</text>
</g>
<!-- WebMapaUmvComponent&#45;&gt;VincularPksModule -->
<g id="edge9" class="edge">
<title>WebMapaUmvComponent&#45;&gt;VincularPksModule</title>
<path fill="none" stroke="black" d="M108,-84.89C108,-107.93 108,-144.8 108,-144.8 108,-144.8 1162.66,-144.8 1162.66,-144.8"/>
<polygon fill="black" stroke="black" points="1162.66,-148.3 1172.66,-144.8 1162.66,-141.3 1162.66,-148.3"/>
</g>
<!-- GestionReservaModule -->
<g id="node11" class="node">
<title>GestionReservaModule</title>
<polygon fill="#8dd3c7" stroke="black" points="2352.18,-84.8 2349.18,-88.8 2328.18,-88.8 2325.18,-84.8 2203.82,-84.8 2203.82,-48.8 2352.18,-48.8 2352.18,-84.8"/>
<text text-anchor="middle" x="2278" y="-62.6" font-family="Times,serif" font-size="14.00">GestionReservaModule</text>
</g>
<!-- GestionReservaModule&#45;&gt;VincularPksModule -->
<g id="edge10" class="edge">
<title>GestionReservaModule&#45;&gt;VincularPksModule</title>
<path fill="none" stroke="black" d="M2278,-84.89C2278,-107.93 2278,-144.8 2278,-144.8 2278,-144.8 1311.33,-144.8 1311.33,-144.8"/>
<polygon fill="black" stroke="black" points="1311.33,-141.3 1301.33,-144.8 1311.33,-148.3 1311.33,-141.3"/>
</g>
<!-- SharedModule -->
<g id="node12" class="node">
<title>SharedModule</title>
<polygon fill="#8dd3c7" stroke="black" points="2186.42,-84.8 2183.42,-88.8 2162.42,-88.8 2159.42,-84.8 2087.58,-84.8 2087.58,-48.8 2186.42,-48.8 2186.42,-84.8"/>
<text text-anchor="middle" x="2137" y="-62.6" font-family="Times,serif" font-size="14.00">SharedModule</text>
</g>
<!-- SharedModule&#45;&gt;VincularPksModule -->
<g id="edge11" class="edge">
<title>SharedModule&#45;&gt;VincularPksModule</title>
<path fill="none" stroke="black" d="M2137,-85.08C2137,-106.12 2137,-137.8 2137,-137.8 2137,-137.8 1311.36,-137.8 1311.36,-137.8"/>
<polygon fill="black" stroke="black" points="1311.36,-134.3 1301.36,-137.8 1311.36,-141.3 1311.36,-134.3"/>
</g>
<!-- VincularPksRoutingModule -->
<g id="node13" class="node">
<title>VincularPksRoutingModule</title>
<polygon fill="#8dd3c7" stroke="black" points="2069.87,-84.8 2066.87,-88.8 2045.87,-88.8 2042.87,-84.8 1896.13,-84.8 1896.13,-48.8 2069.87,-48.8 2069.87,-84.8"/>
<text text-anchor="middle" x="1983" y="-62.6" font-family="Times,serif" font-size="14.00">VincularPksRoutingModule</text>
</g>
<!-- VincularPksRoutingModule&#45;&gt;VincularPksModule -->
<g id="edge12" class="edge">
<title>VincularPksRoutingModule&#45;&gt;VincularPksModule</title>
<path fill="none" stroke="black" d="M1983,-84.91C1983,-104.14 1983,-131.8 1983,-131.8 1983,-131.8 1311.57,-131.8 1311.57,-131.8"/>
<polygon fill="black" stroke="black" points="1311.57,-128.3 1301.57,-131.8 1311.57,-135.3 1311.57,-128.3"/>
</g>
</g>
</svg>
