<?xml version="1.0" encoding="UTF-8" standalone="no"?>
<!DOCTYPE svg PUBLIC "-//W3C//DTD SVG 1.1//EN"
 "http://www.w3.org/Graphics/SVG/1.1/DTD/svg11.dtd">
<!-- Generated by graphviz version 2.47.3 (20210619.1520)
 -->
<!-- Title: dependencies Pages: 1 -->
<svg width="950pt" height="174pt"
 viewBox="0.00 0.00 950.00 173.80" xmlns="http://www.w3.org/2000/svg" xmlns:xlink="http://www.w3.org/1999/xlink">
<g id="graph0" class="graph" transform="scale(1 1) rotate(0) translate(4 169.8)">
<title>dependencies</title>
<polygon fill="white" stroke="transparent" points="-4,4 -4,-169.8 946,-169.8 946,4 -4,4"/>
<text text-anchor="middle" x="471" y="-8.2" font-family="sans-serif" font-size="14.00">dependencies</text>
<g id="clust1" class="cluster">
<title>cluster_ValidacionVisitaDiagnosticoModule</title>
<polygon fill="none" stroke="black" stroke-dasharray="1,5" points="8,-32.8 8,-157.8 934,-157.8 934,-32.8 8,-32.8"/>
</g>
<g id="clust5" class="cluster">
<title>cluster_ValidacionVisitaDiagnosticoModule_imports</title>
<polygon fill="none" stroke="black" points="526,-40.8 526,-92.8 926,-92.8 926,-40.8 526,-40.8"/>
</g>
<g id="clust2" class="cluster">
<title>cluster_ValidacionVisitaDiagnosticoModule_declarations</title>
<polygon fill="none" stroke="black" points="16,-40.8 16,-92.8 518,-92.8 518,-40.8 16,-40.8"/>
</g>
<!-- ValidacionVisitaDiagnosticoComponent -->
<g id="node1" class="node">
<title>ValidacionVisitaDiagnosticoComponent</title>
<polygon fill="#ffffb3" stroke="black" points="509.84,-84.8 266.16,-84.8 266.16,-48.8 509.84,-48.8 509.84,-84.8"/>
<text text-anchor="middle" x="388" y="-62.6" font-family="Times,serif" font-size="14.00">ValidacionVisitaDiagnosticoComponent</text>
</g>
<!-- ValidacionVisitaDiagnosticoModule -->
<g id="node3" class="node">
<title>ValidacionVisitaDiagnosticoModule</title>
<polygon fill="#8dd3c7" stroke="black" points="639.06,-149.8 636.06,-153.8 615.06,-153.8 612.06,-149.8 416.94,-149.8 416.94,-113.8 639.06,-113.8 639.06,-149.8"/>
<text text-anchor="middle" x="528" y="-127.6" font-family="Times,serif" font-size="14.00">ValidacionVisitaDiagnosticoModule</text>
</g>
<!-- ValidacionVisitaDiagnosticoComponent&#45;&gt;ValidacionVisitaDiagnosticoModule -->
<g id="edge1" class="edge">
<title>ValidacionVisitaDiagnosticoComponent&#45;&gt;ValidacionVisitaDiagnosticoModule</title>
<path fill="none" stroke="black" d="M463.45,-84.91C463.45,-84.91 463.45,-103.79 463.45,-103.79"/>
<polygon fill="black" stroke="black" points="459.95,-103.79 463.45,-113.79 466.95,-103.79 459.95,-103.79"/>
</g>
<!-- ValidarVisitaDiagnosticoComponent -->
<g id="node2" class="node">
<title>ValidarVisitaDiagnosticoComponent</title>
<polygon fill="#ffffb3" stroke="black" points="248.4,-84.8 23.6,-84.8 23.6,-48.8 248.4,-48.8 248.4,-84.8"/>
<text text-anchor="middle" x="136" y="-62.6" font-family="Times,serif" font-size="14.00">ValidarVisitaDiagnosticoComponent</text>
</g>
<!-- ValidarVisitaDiagnosticoComponent&#45;&gt;ValidacionVisitaDiagnosticoModule -->
<g id="edge2" class="edge">
<title>ValidarVisitaDiagnosticoComponent&#45;&gt;ValidacionVisitaDiagnosticoModule</title>
<path fill="none" stroke="black" d="M136,-84.91C136,-104.14 136,-131.8 136,-131.8 136,-131.8 406.72,-131.8 406.72,-131.8"/>
<polygon fill="black" stroke="black" points="406.72,-135.3 416.72,-131.8 406.72,-128.3 406.72,-135.3"/>
</g>
<!-- SharedModule -->
<g id="node4" class="node">
<title>SharedModule</title>
<polygon fill="#8dd3c7" stroke="black" points="918.42,-84.8 915.42,-88.8 894.42,-88.8 891.42,-84.8 819.58,-84.8 819.58,-48.8 918.42,-48.8 918.42,-84.8"/>
<text text-anchor="middle" x="869" y="-62.6" font-family="Times,serif" font-size="14.00">SharedModule</text>
</g>
<!-- SharedModule&#45;&gt;ValidacionVisitaDiagnosticoModule -->
<g id="edge3" class="edge">
<title>SharedModule&#45;&gt;ValidacionVisitaDiagnosticoModule</title>
<path fill="none" stroke="black" d="M869,-84.91C869,-104.14 869,-131.8 869,-131.8 869,-131.8 649.18,-131.8 649.18,-131.8"/>
<polygon fill="black" stroke="black" points="649.18,-128.3 639.18,-131.8 649.18,-135.3 649.18,-128.3"/>
</g>
<!-- ValidacionVisitaDiagnosticoRoutingModule -->
<g id="node5" class="node">
<title>ValidacionVisitaDiagnosticoRoutingModule</title>
<polygon fill="#8dd3c7" stroke="black" points="801.68,-84.8 798.68,-88.8 777.68,-88.8 774.68,-84.8 534.32,-84.8 534.32,-48.8 801.68,-48.8 801.68,-84.8"/>
<text text-anchor="middle" x="668" y="-62.6" font-family="Times,serif" font-size="14.00">ValidacionVisitaDiagnosticoRoutingModule</text>
</g>
<!-- ValidacionVisitaDiagnosticoRoutingModule&#45;&gt;ValidacionVisitaDiagnosticoModule -->
<g id="edge4" class="edge">
<title>ValidacionVisitaDiagnosticoRoutingModule&#45;&gt;ValidacionVisitaDiagnosticoModule</title>
<path fill="none" stroke="black" d="M586.72,-84.91C586.72,-84.91 586.72,-103.79 586.72,-103.79"/>
<polygon fill="black" stroke="black" points="583.22,-103.79 586.72,-113.79 590.22,-103.79 583.22,-103.79"/>
</g>
</g>
</svg>
