<?xml version="1.0" encoding="UTF-8" standalone="no"?>
<!DOCTYPE svg PUBLIC "-//W3C//DTD SVG 1.1//EN"
 "http://www.w3.org/Graphics/SVG/1.1/DTD/svg11.dtd">
<!-- Generated by graphviz version 2.47.3 (20210619.1520)
 -->
<!-- Title: dependencies Pages: 1 -->
<svg width="1498pt" height="174pt"
 viewBox="0.00 0.00 1498.00 173.80" xmlns="http://www.w3.org/2000/svg" xmlns:xlink="http://www.w3.org/1999/xlink">
<g id="graph0" class="graph" transform="scale(1 1) rotate(0) translate(4 169.8)">
<title>dependencies</title>
<polygon fill="white" stroke="transparent" points="-4,4 -4,-169.8 1494,-169.8 1494,4 -4,4"/>
<text text-anchor="middle" x="745" y="-8.2" font-family="sans-serif" font-size="14.00">dependencies</text>
<g id="clust1" class="cluster">
<title>cluster_GestionMisionalidadModule</title>
<polygon fill="none" stroke="black" stroke-dasharray="1,5" points="8,-32.8 8,-157.8 1482,-157.8 1482,-32.8 8,-32.8"/>
</g>
<g id="clust2" class="cluster">
<title>cluster_GestionMisionalidadModule_declarations</title>
<polygon fill="none" stroke="black" points="378,-40.8 378,-92.8 1474,-92.8 1474,-40.8 378,-40.8"/>
</g>
<g id="clust8" class="cluster">
<title>cluster_GestionMisionalidadModule_imports</title>
<polygon fill="none" stroke="black" points="16,-40.8 16,-92.8 370,-92.8 370,-40.8 16,-40.8"/>
</g>
<!-- DialogVerVisitaDiagnostico -->
<g id="node1" class="node">
<title>DialogVerVisitaDiagnostico</title>
<polygon fill="#ffffb3" stroke="black" points="1466.17,-84.8 1289.83,-84.8 1289.83,-48.8 1466.17,-48.8 1466.17,-84.8"/>
<text text-anchor="middle" x="1378" y="-62.6" font-family="Times,serif" font-size="14.00">DialogVerVisitaDiagnostico</text>
</g>
<!-- GestionMisionalidadModule -->
<g id="node6" class="node">
<title>GestionMisionalidadModule</title>
<polygon fill="#8dd3c7" stroke="black" points="803.48,-149.8 800.48,-153.8 779.48,-153.8 776.48,-149.8 626.52,-149.8 626.52,-113.8 803.48,-113.8 803.48,-149.8"/>
<text text-anchor="middle" x="715" y="-127.6" font-family="Times,serif" font-size="14.00">GestionMisionalidadModule</text>
</g>
<!-- DialogVerVisitaDiagnostico&#45;&gt;GestionMisionalidadModule -->
<g id="edge1" class="edge">
<title>DialogVerVisitaDiagnostico&#45;&gt;GestionMisionalidadModule</title>
<path fill="none" stroke="black" d="M1378,-85.09C1378,-107.01 1378,-140.8 1378,-140.8 1378,-140.8 813.73,-140.8 813.73,-140.8"/>
<polygon fill="black" stroke="black" points="813.73,-137.3 803.73,-140.8 813.73,-144.3 813.73,-137.3"/>
</g>
<!-- DialogVerVisitaDisenioComponent -->
<g id="node2" class="node">
<title>DialogVerVisitaDisenioComponent</title>
<polygon fill="#ffffb3" stroke="black" points="1271.9,-84.8 1054.1,-84.8 1054.1,-48.8 1271.9,-48.8 1271.9,-84.8"/>
<text text-anchor="middle" x="1163" y="-62.6" font-family="Times,serif" font-size="14.00">DialogVerVisitaDisenioComponent</text>
</g>
<!-- DialogVerVisitaDisenioComponent&#45;&gt;GestionMisionalidadModule -->
<g id="edge2" class="edge">
<title>DialogVerVisitaDisenioComponent&#45;&gt;GestionMisionalidadModule</title>
<path fill="none" stroke="black" d="M1163,-84.91C1163,-104.14 1163,-131.8 1163,-131.8 1163,-131.8 813.51,-131.8 813.51,-131.8"/>
<polygon fill="black" stroke="black" points="813.51,-128.3 803.51,-131.8 813.51,-135.3 813.51,-128.3"/>
</g>
<!-- GestionMisionalidadComponent -->
<g id="node3" class="node">
<title>GestionMisionalidadComponent</title>
<polygon fill="#ffffb3" stroke="black" points="1036.26,-84.8 837.74,-84.8 837.74,-48.8 1036.26,-48.8 1036.26,-84.8"/>
<text text-anchor="middle" x="937" y="-62.6" font-family="Times,serif" font-size="14.00">GestionMisionalidadComponent</text>
</g>
<!-- GestionMisionalidadComponent&#45;&gt;GestionMisionalidadModule -->
<g id="edge3" class="edge">
<title>GestionMisionalidadComponent&#45;&gt;GestionMisionalidadModule</title>
<path fill="none" stroke="black" d="M937,-84.83C937,-101.2 937,-122.8 937,-122.8 937,-122.8 813.7,-122.8 813.7,-122.8"/>
<polygon fill="black" stroke="black" points="813.7,-119.3 803.7,-122.8 813.7,-126.3 813.7,-119.3"/>
</g>
<!-- GestionarMisionalidadComponent -->
<g id="node4" class="node">
<title>GestionarMisionalidadComponent</title>
<polygon fill="#ffffb3" stroke="black" points="819.64,-84.8 610.36,-84.8 610.36,-48.8 819.64,-48.8 819.64,-84.8"/>
<text text-anchor="middle" x="715" y="-62.6" font-family="Times,serif" font-size="14.00">GestionarMisionalidadComponent</text>
</g>
<!-- GestionarMisionalidadComponent&#45;&gt;GestionMisionalidadModule -->
<g id="edge4" class="edge">
<title>GestionarMisionalidadComponent&#45;&gt;GestionMisionalidadModule</title>
<path fill="none" stroke="black" d="M715,-84.91C715,-84.91 715,-103.79 715,-103.79"/>
<polygon fill="black" stroke="black" points="711.5,-103.79 715,-113.79 718.5,-103.79 711.5,-103.79"/>
</g>
<!-- GestionarSeguimientoComponent -->
<g id="node5" class="node">
<title>GestionarSeguimientoComponent</title>
<polygon fill="#ffffb3" stroke="black" points="592.03,-84.8 385.97,-84.8 385.97,-48.8 592.03,-48.8 592.03,-84.8"/>
<text text-anchor="middle" x="489" y="-62.6" font-family="Times,serif" font-size="14.00">GestionarSeguimientoComponent</text>
</g>
<!-- GestionarSeguimientoComponent&#45;&gt;GestionMisionalidadModule -->
<g id="edge5" class="edge">
<title>GestionarSeguimientoComponent&#45;&gt;GestionMisionalidadModule</title>
<path fill="none" stroke="black" d="M489,-84.83C489,-101.2 489,-122.8 489,-122.8 489,-122.8 616.33,-122.8 616.33,-122.8"/>
<polygon fill="black" stroke="black" points="616.33,-126.3 626.33,-122.8 616.33,-119.3 616.33,-126.3"/>
</g>
<!-- GestionMisionalidadRoutingModule -->
<g id="node7" class="node">
<title>GestionMisionalidadRoutingModule</title>
<polygon fill="#8dd3c7" stroke="black" points="362.1,-84.8 359.1,-88.8 338.1,-88.8 335.1,-84.8 139.9,-84.8 139.9,-48.8 362.1,-48.8 362.1,-84.8"/>
<text text-anchor="middle" x="251" y="-62.6" font-family="Times,serif" font-size="14.00">GestionMisionalidadRoutingModule</text>
</g>
<!-- GestionMisionalidadRoutingModule&#45;&gt;GestionMisionalidadModule -->
<g id="edge6" class="edge">
<title>GestionMisionalidadRoutingModule&#45;&gt;GestionMisionalidadModule</title>
<path fill="none" stroke="black" d="M251,-84.91C251,-104.14 251,-131.8 251,-131.8 251,-131.8 616.36,-131.8 616.36,-131.8"/>
<polygon fill="black" stroke="black" points="616.36,-135.3 626.36,-131.8 616.36,-128.3 616.36,-135.3"/>
</g>
<!-- SharedModule -->
<g id="node8" class="node">
<title>SharedModule</title>
<polygon fill="#8dd3c7" stroke="black" points="122.42,-84.8 119.42,-88.8 98.42,-88.8 95.42,-84.8 23.58,-84.8 23.58,-48.8 122.42,-48.8 122.42,-84.8"/>
<text text-anchor="middle" x="73" y="-62.6" font-family="Times,serif" font-size="14.00">SharedModule</text>
</g>
<!-- SharedModule&#45;&gt;GestionMisionalidadModule -->
<g id="edge7" class="edge">
<title>SharedModule&#45;&gt;GestionMisionalidadModule</title>
<path fill="none" stroke="black" d="M73,-85.09C73,-107.01 73,-140.8 73,-140.8 73,-140.8 616.41,-140.8 616.41,-140.8"/>
<polygon fill="black" stroke="black" points="616.41,-144.3 626.41,-140.8 616.41,-137.3 616.41,-144.3"/>
</g>
</g>
</svg>
