<?xml version="1.0" encoding="UTF-8" standalone="no"?>
<!DOCTYPE svg PUBLIC "-//W3C//DTD SVG 1.1//EN"
 "http://www.w3.org/Graphics/SVG/1.1/DTD/svg11.dtd">
<!-- Generated by graphviz version 2.47.3 (20210619.1520)
 -->
<!-- Title: dependencies Pages: 1 -->
<svg width="1767pt" height="247pt"
 viewBox="0.00 0.00 1767.00 246.80" xmlns="http://www.w3.org/2000/svg" xmlns:xlink="http://www.w3.org/1999/xlink">
<g id="graph0" class="graph" transform="scale(1 1) rotate(0) translate(4 242.8)">
<title>dependencies</title>
<polygon fill="white" stroke="transparent" points="-4,4 -4,-242.8 1763,-242.8 1763,4 -4,4"/>
<text text-anchor="middle" x="879.5" y="-8.2" font-family="sans-serif" font-size="14.00">dependencies</text>
<g id="clust1" class="cluster">
<title>cluster_DocumentosMantenimientoVialModule</title>
<polygon fill="none" stroke="black" stroke-dasharray="1,5" points="8,-32.8 8,-230.8 1751,-230.8 1751,-32.8 8,-32.8"/>
</g>
<g id="clust2" class="cluster">
<title>cluster_DocumentosMantenimientoVialModule_declarations</title>
<polygon fill="none" stroke="black" points="442,-40.8 442,-92.8 1743,-92.8 1743,-40.8 442,-40.8"/>
</g>
<g id="clust12" class="cluster">
<title>cluster_DocumentosMantenimientoVialModule_bootstrap</title>
<polygon fill="none" stroke="black" points="773,-170.8 773,-222.8 1003,-222.8 1003,-170.8 773,-170.8"/>
</g>
<g id="clust10" class="cluster">
<title>cluster_DocumentosMantenimientoVialModule_imports</title>
<polygon fill="none" stroke="black" points="16,-40.8 16,-92.8 434,-92.8 434,-40.8 16,-40.8"/>
</g>
<!-- CargueDocumentosComponent -->
<g id="node1" class="node">
<title>CargueDocumentosComponent</title>
<polygon fill="#ffffb3" stroke="black" points="1735.02,-84.8 1542.98,-84.8 1542.98,-48.8 1735.02,-48.8 1735.02,-84.8"/>
<text text-anchor="middle" x="1639" y="-62.6" font-family="Times,serif" font-size="14.00">CargueDocumentosComponent</text>
</g>
<!-- DocumentosMantenimientoVialModule -->
<g id="node8" class="node">
<title>DocumentosMantenimientoVialModule</title>
<polygon fill="#8dd3c7" stroke="black" points="1007.96,-149.8 1004.96,-153.8 983.96,-153.8 980.96,-149.8 768.04,-149.8 768.04,-113.8 1007.96,-113.8 1007.96,-149.8"/>
<text text-anchor="middle" x="888" y="-127.6" font-family="Times,serif" font-size="14.00">DocumentosMantenimientoVialModule</text>
</g>
<!-- CargueDocumentosComponent&#45;&gt;DocumentosMantenimientoVialModule -->
<g id="edge1" class="edge">
<title>CargueDocumentosComponent&#45;&gt;DocumentosMantenimientoVialModule</title>
<path fill="none" stroke="black" d="M1639,-85.09C1639,-107.01 1639,-140.8 1639,-140.8 1639,-140.8 1018.24,-140.8 1018.24,-140.8"/>
<polygon fill="black" stroke="black" points="1018.24,-137.3 1008.24,-140.8 1018.24,-144.3 1018.24,-137.3"/>
</g>
<!-- DetalleDocumentosComponent -->
<g id="node2" class="node">
<title>DetalleDocumentosComponent</title>
<polygon fill="#ffffb3" stroke="black" points="1524.02,-84.8 1331.98,-84.8 1331.98,-48.8 1524.02,-48.8 1524.02,-84.8"/>
<text text-anchor="middle" x="1428" y="-62.6" font-family="Times,serif" font-size="14.00">DetalleDocumentosComponent</text>
</g>
<!-- DetalleDocumentosComponent&#45;&gt;DocumentosMantenimientoVialModule -->
<g id="edge2" class="edge">
<title>DetalleDocumentosComponent&#45;&gt;DocumentosMantenimientoVialModule</title>
<path fill="none" stroke="black" d="M1428,-84.91C1428,-104.14 1428,-131.8 1428,-131.8 1428,-131.8 1018.18,-131.8 1018.18,-131.8"/>
<polygon fill="black" stroke="black" points="1018.18,-128.3 1008.18,-131.8 1018.18,-135.3 1018.18,-128.3"/>
</g>
<!-- DndDirective -->
<g id="node3" class="node">
<title>DndDirective</title>
<polygon fill="#ffffb3" stroke="black" points="1314.19,-84.8 1221.81,-84.8 1221.81,-48.8 1314.19,-48.8 1314.19,-84.8"/>
<text text-anchor="middle" x="1268" y="-62.6" font-family="Times,serif" font-size="14.00">DndDirective</text>
</g>
<!-- DndDirective&#45;&gt;DocumentosMantenimientoVialModule -->
<g id="edge3" class="edge">
<title>DndDirective&#45;&gt;DocumentosMantenimientoVialModule</title>
<path fill="none" stroke="black" d="M1268,-84.83C1268,-101.2 1268,-122.8 1268,-122.8 1268,-122.8 1017.97,-122.8 1017.97,-122.8"/>
<polygon fill="black" stroke="black" points="1017.97,-119.3 1007.97,-122.8 1017.97,-126.3 1017.97,-119.3"/>
</g>
<!-- DropZoneDocumentosComponent -->
<g id="node4" class="node">
<title>DropZoneDocumentosComponent</title>
<polygon fill="#ffffb3" stroke="black" points="1203.63,-84.8 994.37,-84.8 994.37,-48.8 1203.63,-48.8 1203.63,-84.8"/>
<text text-anchor="middle" x="1099" y="-62.6" font-family="Times,serif" font-size="14.00">DropZoneDocumentosComponent</text>
</g>
<!-- DropZoneDocumentosComponent&#45;&gt;DocumentosMantenimientoVialModule -->
<g id="edge4" class="edge">
<title>DropZoneDocumentosComponent&#45;&gt;DocumentosMantenimientoVialModule</title>
<path fill="none" stroke="black" d="M1001.08,-84.91C1001.08,-84.91 1001.08,-103.79 1001.08,-103.79"/>
<polygon fill="black" stroke="black" points="997.58,-103.79 1001.08,-113.79 1004.58,-103.79 997.58,-103.79"/>
</g>
<!-- ModalConfirmarComponent -->
<g id="node5" class="node">
<title>ModalConfirmarComponent</title>
<polygon fill="#ffffb3" stroke="black" points="976.2,-84.8 799.8,-84.8 799.8,-48.8 976.2,-48.8 976.2,-84.8"/>
<text text-anchor="middle" x="888" y="-62.6" font-family="Times,serif" font-size="14.00">ModalConfirmarComponent</text>
</g>
<!-- ModalConfirmarComponent&#45;&gt;DocumentosMantenimientoVialModule -->
<g id="edge5" class="edge">
<title>ModalConfirmarComponent&#45;&gt;DocumentosMantenimientoVialModule</title>
<path fill="none" stroke="black" d="M888,-84.91C888,-84.91 888,-103.79 888,-103.79"/>
<polygon fill="black" stroke="black" points="884.5,-103.79 888,-113.79 891.5,-103.79 884.5,-103.79"/>
</g>
<!-- ProgressComponent -->
<g id="node6" class="node">
<title>ProgressComponent</title>
<polygon fill="#ffffb3" stroke="black" points="781.54,-84.8 652.46,-84.8 652.46,-48.8 781.54,-48.8 781.54,-84.8"/>
<text text-anchor="middle" x="717" y="-62.6" font-family="Times,serif" font-size="14.00">ProgressComponent</text>
</g>
<!-- ProgressComponent&#45;&gt;DocumentosMantenimientoVialModule -->
<g id="edge6" class="edge">
<title>ProgressComponent&#45;&gt;DocumentosMantenimientoVialModule</title>
<path fill="none" stroke="black" d="M774.9,-84.91C774.9,-84.91 774.9,-103.79 774.9,-103.79"/>
<polygon fill="black" stroke="black" points="771.4,-103.79 774.9,-113.79 778.4,-103.79 771.4,-103.79"/>
</g>
<!-- TableDocumentosComponent -->
<g id="node7" class="node">
<title>TableDocumentosComponent</title>
<polygon fill="#ffffb3" stroke="black" points="633.97,-84.8 450.03,-84.8 450.03,-48.8 633.97,-48.8 633.97,-84.8"/>
<text text-anchor="middle" x="542" y="-62.6" font-family="Times,serif" font-size="14.00">TableDocumentosComponent</text>
</g>
<!-- TableDocumentosComponent&#45;&gt;DocumentosMantenimientoVialModule -->
<g id="edge7" class="edge">
<title>TableDocumentosComponent&#45;&gt;DocumentosMantenimientoVialModule</title>
<path fill="none" stroke="black" d="M542,-84.83C542,-101.2 542,-122.8 542,-122.8 542,-122.8 757.96,-122.8 757.96,-122.8"/>
<polygon fill="black" stroke="black" points="757.96,-126.3 767.96,-122.8 757.96,-119.3 757.96,-126.3"/>
</g>
<!-- DropZoneDocumentosComponent  -->
<g id="node11" class="node">
<title>DropZoneDocumentosComponent </title>
<polygon fill="#80b1d3" stroke="black" points="994.63,-214.8 781.37,-214.8 781.37,-178.8 994.63,-178.8 994.63,-214.8"/>
<text text-anchor="middle" x="888" y="-192.6" font-family="Times,serif" font-size="14.00">DropZoneDocumentosComponent </text>
</g>
<!-- DocumentosMantenimientoVialModule&#45;&gt;DropZoneDocumentosComponent  -->
<g id="edge10" class="edge">
<title>DocumentosMantenimientoVialModule&#45;&gt;DropZoneDocumentosComponent </title>
<path fill="none" stroke="black" stroke-dasharray="1,5" d="M888,-149.91C888,-149.91 888,-168.79 888,-168.79"/>
<polygon fill="black" stroke="black" points="884.5,-168.79 888,-178.79 891.5,-168.79 884.5,-168.79"/>
</g>
<!-- DocumentosMantenimientoVialRoutingModule -->
<g id="node9" class="node">
<title>DocumentosMantenimientoVialRoutingModule</title>
<polygon fill="#8dd3c7" stroke="black" points="425.57,-84.8 422.57,-88.8 401.57,-88.8 398.57,-84.8 140.43,-84.8 140.43,-48.8 425.57,-48.8 425.57,-84.8"/>
<text text-anchor="middle" x="283" y="-62.6" font-family="Times,serif" font-size="14.00">DocumentosMantenimientoVialRoutingModule</text>
</g>
<!-- DocumentosMantenimientoVialRoutingModule&#45;&gt;DocumentosMantenimientoVialModule -->
<g id="edge8" class="edge">
<title>DocumentosMantenimientoVialRoutingModule&#45;&gt;DocumentosMantenimientoVialModule</title>
<path fill="none" stroke="black" d="M283,-84.91C283,-104.14 283,-131.8 283,-131.8 283,-131.8 757.75,-131.8 757.75,-131.8"/>
<polygon fill="black" stroke="black" points="757.75,-135.3 767.75,-131.8 757.75,-128.3 757.75,-135.3"/>
</g>
<!-- SharedModule -->
<g id="node10" class="node">
<title>SharedModule</title>
<polygon fill="#8dd3c7" stroke="black" points="122.42,-84.8 119.42,-88.8 98.42,-88.8 95.42,-84.8 23.58,-84.8 23.58,-48.8 122.42,-48.8 122.42,-84.8"/>
<text text-anchor="middle" x="73" y="-62.6" font-family="Times,serif" font-size="14.00">SharedModule</text>
</g>
<!-- SharedModule&#45;&gt;DocumentosMantenimientoVialModule -->
<g id="edge9" class="edge">
<title>SharedModule&#45;&gt;DocumentosMantenimientoVialModule</title>
<path fill="none" stroke="black" d="M73,-85.09C73,-107.01 73,-140.8 73,-140.8 73,-140.8 757.74,-140.8 757.74,-140.8"/>
<polygon fill="black" stroke="black" points="757.74,-144.3 767.74,-140.8 757.74,-137.3 757.74,-144.3"/>
</g>
</g>
</svg>
