<?xml version="1.0" encoding="UTF-8" standalone="no"?>
<!DOCTYPE svg PUBLIC "-//W3C//DTD SVG 1.1//EN"
 "http://www.w3.org/Graphics/SVG/1.1/DTD/svg11.dtd">
<!-- Generated by graphviz version 2.47.3 (20210619.1520)
 -->
<!-- Title: dependencies Pages: 1 -->
<svg width="1571pt" height="174pt"
 viewBox="0.00 0.00 1571.00 173.80" xmlns="http://www.w3.org/2000/svg" xmlns:xlink="http://www.w3.org/1999/xlink">
<g id="graph0" class="graph" transform="scale(1 1) rotate(0) translate(4 169.8)">
<title>dependencies</title>
<polygon fill="white" stroke="transparent" points="-4,4 -4,-169.8 1567,-169.8 1567,4 -4,4"/>
<text text-anchor="middle" x="781.5" y="-8.2" font-family="sans-serif" font-size="14.00">dependencies</text>
<g id="clust1" class="cluster">
<title>cluster_IntervencionModule</title>
<polygon fill="none" stroke="black" stroke-dasharray="1,5" points="8,-32.8 8,-157.8 1555,-157.8 1555,-32.8 8,-32.8"/>
</g>
<g id="clust2" class="cluster">
<title>cluster_IntervencionModule_declarations</title>
<polygon fill="none" stroke="black" points="332,-40.8 332,-92.8 1547,-92.8 1547,-40.8 332,-40.8"/>
</g>
<g id="clust8" class="cluster">
<title>cluster_IntervencionModule_imports</title>
<polygon fill="none" stroke="black" points="16,-40.8 16,-92.8 324,-92.8 324,-40.8 16,-40.8"/>
</g>
<!-- ControlSolicitudesPmtComponent -->
<g id="node1" class="node">
<title>ControlSolicitudesPmtComponent</title>
<polygon fill="#ffffb3" stroke="black" points="1539.39,-84.8 1330.61,-84.8 1330.61,-48.8 1539.39,-48.8 1539.39,-84.8"/>
<text text-anchor="middle" x="1435" y="-62.6" font-family="Times,serif" font-size="14.00">ControlSolicitudesPmtComponent</text>
</g>
<!-- IntervencionModule -->
<g id="node6" class="node">
<title>IntervencionModule</title>
<polygon fill="#8dd3c7" stroke="black" points="830.3,-149.8 827.3,-153.8 806.3,-153.8 803.3,-149.8 699.7,-149.8 699.7,-113.8 830.3,-113.8 830.3,-149.8"/>
<text text-anchor="middle" x="765" y="-127.6" font-family="Times,serif" font-size="14.00">IntervencionModule</text>
</g>
<!-- ControlSolicitudesPmtComponent&#45;&gt;IntervencionModule -->
<g id="edge1" class="edge">
<title>ControlSolicitudesPmtComponent&#45;&gt;IntervencionModule</title>
<path fill="none" stroke="black" d="M1435,-85.09C1435,-107.01 1435,-140.8 1435,-140.8 1435,-140.8 840.16,-140.8 840.16,-140.8"/>
<polygon fill="black" stroke="black" points="840.16,-137.3 830.16,-140.8 840.16,-144.3 840.16,-137.3"/>
</g>
<!-- EditarAsociarCoiComponent -->
<g id="node2" class="node">
<title>EditarAsociarCoiComponent</title>
<polygon fill="#ffffb3" stroke="black" points="1312.8,-84.8 1133.2,-84.8 1133.2,-48.8 1312.8,-48.8 1312.8,-84.8"/>
<text text-anchor="middle" x="1223" y="-62.6" font-family="Times,serif" font-size="14.00">EditarAsociarCoiComponent</text>
</g>
<!-- EditarAsociarCoiComponent&#45;&gt;IntervencionModule -->
<g id="edge2" class="edge">
<title>EditarAsociarCoiComponent&#45;&gt;IntervencionModule</title>
<path fill="none" stroke="black" d="M1223,-84.91C1223,-104.14 1223,-131.8 1223,-131.8 1223,-131.8 840.62,-131.8 840.62,-131.8"/>
<polygon fill="black" stroke="black" points="840.62,-128.3 830.62,-131.8 840.62,-135.3 840.62,-128.3"/>
</g>
<!-- EditarAsociarSolicitudComponent -->
<g id="node3" class="node">
<title>EditarAsociarSolicitudComponent</title>
<polygon fill="#ffffb3" stroke="black" points="1115.63,-84.8 906.37,-84.8 906.37,-48.8 1115.63,-48.8 1115.63,-84.8"/>
<text text-anchor="middle" x="1011" y="-62.6" font-family="Times,serif" font-size="14.00">EditarAsociarSolicitudComponent</text>
</g>
<!-- EditarAsociarSolicitudComponent&#45;&gt;IntervencionModule -->
<g id="edge3" class="edge">
<title>EditarAsociarSolicitudComponent&#45;&gt;IntervencionModule</title>
<path fill="none" stroke="black" d="M1011,-84.83C1011,-101.2 1011,-122.8 1011,-122.8 1011,-122.8 840.28,-122.8 840.28,-122.8"/>
<polygon fill="black" stroke="black" points="840.28,-119.3 830.28,-122.8 840.28,-126.3 840.28,-119.3"/>
</g>
<!-- EditarProgramacionPeriodicaComponent -->
<g id="node4" class="node">
<title>EditarProgramacionPeriodicaComponent</title>
<polygon fill="#ffffb3" stroke="black" points="888.44,-84.8 641.56,-84.8 641.56,-48.8 888.44,-48.8 888.44,-84.8"/>
<text text-anchor="middle" x="765" y="-62.6" font-family="Times,serif" font-size="14.00">EditarProgramacionPeriodicaComponent</text>
</g>
<!-- EditarProgramacionPeriodicaComponent&#45;&gt;IntervencionModule -->
<g id="edge4" class="edge">
<title>EditarProgramacionPeriodicaComponent&#45;&gt;IntervencionModule</title>
<path fill="none" stroke="black" d="M765,-84.91C765,-84.91 765,-103.79 765,-103.79"/>
<polygon fill="black" stroke="black" points="761.5,-103.79 765,-113.79 768.5,-103.79 761.5,-103.79"/>
</g>
<!-- ProgramacionPeriodicaIntervencionComponent -->
<g id="node5" class="node">
<title>ProgramacionPeriodicaIntervencionComponent</title>
<polygon fill="#ffffb3" stroke="black" points="623.98,-84.8 340.02,-84.8 340.02,-48.8 623.98,-48.8 623.98,-84.8"/>
<text text-anchor="middle" x="482" y="-62.6" font-family="Times,serif" font-size="14.00">ProgramacionPeriodicaIntervencionComponent</text>
</g>
<!-- ProgramacionPeriodicaIntervencionComponent&#45;&gt;IntervencionModule -->
<g id="edge5" class="edge">
<title>ProgramacionPeriodicaIntervencionComponent&#45;&gt;IntervencionModule</title>
<path fill="none" stroke="black" d="M482,-84.83C482,-101.2 482,-122.8 482,-122.8 482,-122.8 689.72,-122.8 689.72,-122.8"/>
<polygon fill="black" stroke="black" points="689.72,-126.3 699.72,-122.8 689.72,-119.3 689.72,-126.3"/>
</g>
<!-- IntervencionRoutingModule -->
<g id="node7" class="node">
<title>IntervencionRoutingModule</title>
<polygon fill="#8dd3c7" stroke="black" points="315.91,-84.8 312.91,-88.8 291.91,-88.8 288.91,-84.8 140.09,-84.8 140.09,-48.8 315.91,-48.8 315.91,-84.8"/>
<text text-anchor="middle" x="228" y="-62.6" font-family="Times,serif" font-size="14.00">IntervencionRoutingModule</text>
</g>
<!-- IntervencionRoutingModule&#45;&gt;IntervencionModule -->
<g id="edge6" class="edge">
<title>IntervencionRoutingModule&#45;&gt;IntervencionModule</title>
<path fill="none" stroke="black" d="M228,-84.91C228,-104.14 228,-131.8 228,-131.8 228,-131.8 689.69,-131.8 689.69,-131.8"/>
<polygon fill="black" stroke="black" points="689.69,-135.3 699.69,-131.8 689.69,-128.3 689.69,-135.3"/>
</g>
<!-- SharedModule -->
<g id="node8" class="node">
<title>SharedModule</title>
<polygon fill="#8dd3c7" stroke="black" points="122.42,-84.8 119.42,-88.8 98.42,-88.8 95.42,-84.8 23.58,-84.8 23.58,-48.8 122.42,-48.8 122.42,-84.8"/>
<text text-anchor="middle" x="73" y="-62.6" font-family="Times,serif" font-size="14.00">SharedModule</text>
</g>
<!-- SharedModule&#45;&gt;IntervencionModule -->
<g id="edge7" class="edge">
<title>SharedModule&#45;&gt;IntervencionModule</title>
<path fill="none" stroke="black" d="M73,-85.09C73,-107.01 73,-140.8 73,-140.8 73,-140.8 689.59,-140.8 689.59,-140.8"/>
<polygon fill="black" stroke="black" points="689.59,-144.3 699.59,-140.8 689.59,-137.3 689.59,-144.3"/>
</g>
</g>
</svg>
