<?xml version="1.0" encoding="UTF-8" standalone="no"?>
<!DOCTYPE svg PUBLIC "-//W3C//DTD SVG 1.1//EN"
 "http://www.w3.org/Graphics/SVG/1.1/DTD/svg11.dtd">
<!-- Generated by graphviz version 2.47.3 (20210619.1520)
 -->
<!-- Title: dependencies Pages: 1 -->
<svg width="1402pt" height="174pt"
 viewBox="0.00 0.00 1402.00 173.80" xmlns="http://www.w3.org/2000/svg" xmlns:xlink="http://www.w3.org/1999/xlink">
<g id="graph0" class="graph" transform="scale(1 1) rotate(0) translate(4 169.8)">
<title>dependencies</title>
<polygon fill="white" stroke="transparent" points="-4,4 -4,-169.8 1398,-169.8 1398,4 -4,4"/>
<text text-anchor="middle" x="697" y="-8.2" font-family="sans-serif" font-size="14.00">dependencies</text>
<g id="clust1" class="cluster">
<title>cluster_AforosModule</title>
<polygon fill="none" stroke="black" stroke-dasharray="1,5" points="8,-32.8 8,-157.8 1386,-157.8 1386,-32.8 8,-32.8"/>
</g>
<g id="clust9" class="cluster">
<title>cluster_AforosModule_imports</title>
<polygon fill="none" stroke="black" points="1102,-40.8 1102,-92.8 1378,-92.8 1378,-40.8 1102,-40.8"/>
</g>
<g id="clust2" class="cluster">
<title>cluster_AforosModule_declarations</title>
<polygon fill="none" stroke="black" points="16,-40.8 16,-92.8 1094,-92.8 1094,-40.8 16,-40.8"/>
</g>
<!-- AforosComponent -->
<g id="node1" class="node">
<title>AforosComponent</title>
<polygon fill="#ffffb3" stroke="black" points="1086.2,-84.8 965.8,-84.8 965.8,-48.8 1086.2,-48.8 1086.2,-84.8"/>
<text text-anchor="middle" x="1026" y="-62.6" font-family="Times,serif" font-size="14.00">AforosComponent</text>
</g>
<!-- AforosModule -->
<g id="node7" class="node">
<title>AforosModule</title>
<polygon fill="#8dd3c7" stroke="black" points="820.42,-149.8 817.42,-153.8 796.42,-153.8 793.42,-149.8 721.58,-149.8 721.58,-113.8 820.42,-113.8 820.42,-149.8"/>
<text text-anchor="middle" x="771" y="-127.6" font-family="Times,serif" font-size="14.00">AforosModule</text>
</g>
<!-- AforosComponent&#45;&gt;AforosModule -->
<g id="edge1" class="edge">
<title>AforosComponent&#45;&gt;AforosModule</title>
<path fill="none" stroke="black" d="M1026,-84.83C1026,-101.2 1026,-122.8 1026,-122.8 1026,-122.8 830.47,-122.8 830.47,-122.8"/>
<polygon fill="black" stroke="black" points="830.47,-119.3 820.47,-122.8 830.47,-126.3 830.47,-119.3"/>
</g>
<!-- AnalisisTransitoComponent -->
<g id="node2" class="node">
<title>AnalisisTransitoComponent</title>
<polygon fill="#ffffb3" stroke="black" points="947.87,-84.8 774.13,-84.8 774.13,-48.8 947.87,-48.8 947.87,-84.8"/>
<text text-anchor="middle" x="861" y="-62.6" font-family="Times,serif" font-size="14.00">AnalisisTransitoComponent</text>
</g>
<!-- AnalisisTransitoComponent&#45;&gt;AforosModule -->
<g id="edge2" class="edge">
<title>AnalisisTransitoComponent&#45;&gt;AforosModule</title>
<path fill="none" stroke="black" d="M797.14,-84.91C797.14,-84.91 797.14,-103.79 797.14,-103.79"/>
<polygon fill="black" stroke="black" points="793.64,-103.79 797.14,-113.79 800.64,-103.79 793.64,-103.79"/>
</g>
<!-- ListaAforosComponent -->
<g id="node3" class="node">
<title>ListaAforosComponent</title>
<polygon fill="#ffffb3" stroke="black" points="756.2,-84.8 607.8,-84.8 607.8,-48.8 756.2,-48.8 756.2,-84.8"/>
<text text-anchor="middle" x="682" y="-62.6" font-family="Times,serif" font-size="14.00">ListaAforosComponent</text>
</g>
<!-- ListaAforosComponent&#45;&gt;AforosModule -->
<g id="edge3" class="edge">
<title>ListaAforosComponent&#45;&gt;AforosModule</title>
<path fill="none" stroke="black" d="M738.94,-84.91C738.94,-84.91 738.94,-103.79 738.94,-103.79"/>
<polygon fill="black" stroke="black" points="735.44,-103.79 738.94,-113.79 742.44,-103.79 735.44,-103.79"/>
</g>
<!-- MapaSeleccionComponent -->
<g id="node4" class="node">
<title>MapaSeleccionComponent</title>
<polygon fill="#ffffb3" stroke="black" points="589.63,-84.8 422.37,-84.8 422.37,-48.8 589.63,-48.8 589.63,-84.8"/>
<text text-anchor="middle" x="506" y="-62.6" font-family="Times,serif" font-size="14.00">MapaSeleccionComponent</text>
</g>
<!-- MapaSeleccionComponent&#45;&gt;AforosModule -->
<g id="edge4" class="edge">
<title>MapaSeleccionComponent&#45;&gt;AforosModule</title>
<path fill="none" stroke="black" d="M506,-84.83C506,-101.2 506,-122.8 506,-122.8 506,-122.8 711.78,-122.8 711.78,-122.8"/>
<polygon fill="black" stroke="black" points="711.78,-126.3 721.78,-122.8 711.78,-119.3 711.78,-126.3"/>
</g>
<!-- RegistroAforosComponent -->
<g id="node5" class="node">
<title>RegistroAforosComponent</title>
<polygon fill="#ffffb3" stroke="black" points="403.64,-84.8 236.36,-84.8 236.36,-48.8 403.64,-48.8 403.64,-84.8"/>
<text text-anchor="middle" x="320" y="-62.6" font-family="Times,serif" font-size="14.00">RegistroAforosComponent</text>
</g>
<!-- RegistroAforosComponent&#45;&gt;AforosModule -->
<g id="edge5" class="edge">
<title>RegistroAforosComponent&#45;&gt;AforosModule</title>
<path fill="none" stroke="black" d="M320,-84.91C320,-104.14 320,-131.8 320,-131.8 320,-131.8 711.45,-131.8 711.45,-131.8"/>
<polygon fill="black" stroke="black" points="711.45,-135.3 721.45,-131.8 711.44,-128.3 711.45,-135.3"/>
</g>
<!-- RegistroDatosAforoComponent -->
<g id="node6" class="node">
<title>RegistroDatosAforoComponent</title>
<polygon fill="#ffffb3" stroke="black" points="218.35,-84.8 23.65,-84.8 23.65,-48.8 218.35,-48.8 218.35,-84.8"/>
<text text-anchor="middle" x="121" y="-62.6" font-family="Times,serif" font-size="14.00">RegistroDatosAforoComponent</text>
</g>
<!-- RegistroDatosAforoComponent&#45;&gt;AforosModule -->
<g id="edge6" class="edge">
<title>RegistroDatosAforoComponent&#45;&gt;AforosModule</title>
<path fill="none" stroke="black" d="M121,-85.09C121,-107.01 121,-140.8 121,-140.8 121,-140.8 711.61,-140.8 711.61,-140.8"/>
<polygon fill="black" stroke="black" points="711.61,-144.3 721.61,-140.8 711.61,-137.3 711.61,-144.3"/>
</g>
<!-- AforosRoutingModule -->
<g id="node8" class="node">
<title>AforosRoutingModule</title>
<polygon fill="#8dd3c7" stroke="black" points="1369.54,-84.8 1366.54,-88.8 1345.54,-88.8 1342.54,-84.8 1226.46,-84.8 1226.46,-48.8 1369.54,-48.8 1369.54,-84.8"/>
<text text-anchor="middle" x="1298" y="-62.6" font-family="Times,serif" font-size="14.00">AforosRoutingModule</text>
</g>
<!-- AforosRoutingModule&#45;&gt;AforosModule -->
<g id="edge7" class="edge">
<title>AforosRoutingModule&#45;&gt;AforosModule</title>
<path fill="none" stroke="black" d="M1298,-85.09C1298,-107.01 1298,-140.8 1298,-140.8 1298,-140.8 830.58,-140.8 830.58,-140.8"/>
<polygon fill="black" stroke="black" points="830.58,-137.3 820.58,-140.8 830.58,-144.3 830.58,-137.3"/>
</g>
<!-- SharedModule -->
<g id="node9" class="node">
<title>SharedModule</title>
<polygon fill="#8dd3c7" stroke="black" points="1208.42,-84.8 1205.42,-88.8 1184.42,-88.8 1181.42,-84.8 1109.58,-84.8 1109.58,-48.8 1208.42,-48.8 1208.42,-84.8"/>
<text text-anchor="middle" x="1159" y="-62.6" font-family="Times,serif" font-size="14.00">SharedModule</text>
</g>
<!-- SharedModule&#45;&gt;AforosModule -->
<g id="edge8" class="edge">
<title>SharedModule&#45;&gt;AforosModule</title>
<path fill="none" stroke="black" d="M1159,-84.91C1159,-104.14 1159,-131.8 1159,-131.8 1159,-131.8 830.53,-131.8 830.53,-131.8"/>
<polygon fill="black" stroke="black" points="830.53,-128.3 820.53,-131.8 830.53,-135.3 830.53,-128.3"/>
</g>
</g>
</svg>
