<?xml version="1.0" encoding="UTF-8" standalone="no"?>
<!DOCTYPE svg PUBLIC "-//W3C//DTD SVG 1.1//EN"
 "http://www.w3.org/Graphics/SVG/1.1/DTD/svg11.dtd">
<!-- Generated by graphviz version 2.47.3 (20210619.1520)
 -->
<!-- Title: dependencies Pages: 1 -->
<svg width="678pt" height="174pt"
 viewBox="0.00 0.00 678.00 173.80" xmlns="http://www.w3.org/2000/svg" xmlns:xlink="http://www.w3.org/1999/xlink">
<g id="graph0" class="graph" transform="scale(1 1) rotate(0) translate(4 169.8)">
<title>dependencies</title>
<polygon fill="white" stroke="transparent" points="-4,4 -4,-169.8 674,-169.8 674,4 -4,4"/>
<text text-anchor="middle" x="335" y="-8.2" font-family="sans-serif" font-size="14.00">dependencies</text>
<g id="clust1" class="cluster">
<title>cluster_RevisionVisitaDiagnosticoModule</title>
<polygon fill="none" stroke="black" stroke-dasharray="1,5" points="8,-32.8 8,-157.8 662,-157.8 662,-32.8 8,-32.8"/>
</g>
<g id="clust2" class="cluster">
<title>cluster_RevisionVisitaDiagnosticoModule_declarations</title>
<polygon fill="none" stroke="black" points="412,-40.8 412,-92.8 654,-92.8 654,-40.8 412,-40.8"/>
</g>
<g id="clust4" class="cluster">
<title>cluster_RevisionVisitaDiagnosticoModule_imports</title>
<polygon fill="none" stroke="black" points="16,-40.8 16,-92.8 404,-92.8 404,-40.8 16,-40.8"/>
</g>
<!-- RevisarVisitaDiagnosticoComponent -->
<g id="node1" class="node">
<title>RevisarVisitaDiagnosticoComponent</title>
<polygon fill="#ffffb3" stroke="black" points="645.68,-84.8 420.32,-84.8 420.32,-48.8 645.68,-48.8 645.68,-84.8"/>
<text text-anchor="middle" x="533" y="-62.6" font-family="Times,serif" font-size="14.00">RevisarVisitaDiagnosticoComponent</text>
</g>
<!-- RevisionVisitaDiagnosticoModule -->
<g id="node2" class="node">
<title>RevisionVisitaDiagnosticoModule</title>
<polygon fill="#8dd3c7" stroke="black" points="373.42,-149.8 370.42,-153.8 349.42,-153.8 346.42,-149.8 162.58,-149.8 162.58,-113.8 373.42,-113.8 373.42,-149.8"/>
<text text-anchor="middle" x="268" y="-127.6" font-family="Times,serif" font-size="14.00">RevisionVisitaDiagnosticoModule</text>
</g>
<!-- RevisarVisitaDiagnosticoComponent&#45;&gt;RevisionVisitaDiagnosticoModule -->
<g id="edge1" class="edge">
<title>RevisarVisitaDiagnosticoComponent&#45;&gt;RevisionVisitaDiagnosticoModule</title>
<path fill="none" stroke="black" d="M533,-84.91C533,-104.14 533,-131.8 533,-131.8 533,-131.8 383.5,-131.8 383.5,-131.8"/>
<polygon fill="black" stroke="black" points="383.5,-128.3 373.5,-131.8 383.5,-135.3 383.5,-128.3"/>
</g>
<!-- RevisionVisitaDiagnosticoRoutingModule -->
<g id="node3" class="node">
<title>RevisionVisitaDiagnosticoRoutingModule</title>
<polygon fill="#8dd3c7" stroke="black" points="395.53,-84.8 392.53,-88.8 371.53,-88.8 368.53,-84.8 140.47,-84.8 140.47,-48.8 395.53,-48.8 395.53,-84.8"/>
<text text-anchor="middle" x="268" y="-62.6" font-family="Times,serif" font-size="14.00">RevisionVisitaDiagnosticoRoutingModule</text>
</g>
<!-- RevisionVisitaDiagnosticoRoutingModule&#45;&gt;RevisionVisitaDiagnosticoModule -->
<g id="edge2" class="edge">
<title>RevisionVisitaDiagnosticoRoutingModule&#45;&gt;RevisionVisitaDiagnosticoModule</title>
<path fill="none" stroke="black" d="M268,-84.91C268,-84.91 268,-103.79 268,-103.79"/>
<polygon fill="black" stroke="black" points="264.5,-103.79 268,-113.79 271.5,-103.79 264.5,-103.79"/>
</g>
<!-- SharedModule -->
<g id="node4" class="node">
<title>SharedModule</title>
<polygon fill="#8dd3c7" stroke="black" points="122.42,-84.8 119.42,-88.8 98.42,-88.8 95.42,-84.8 23.58,-84.8 23.58,-48.8 122.42,-48.8 122.42,-84.8"/>
<text text-anchor="middle" x="73" y="-62.6" font-family="Times,serif" font-size="14.00">SharedModule</text>
</g>
<!-- SharedModule&#45;&gt;RevisionVisitaDiagnosticoModule -->
<g id="edge3" class="edge">
<title>SharedModule&#45;&gt;RevisionVisitaDiagnosticoModule</title>
<path fill="none" stroke="black" d="M73,-84.91C73,-104.14 73,-131.8 73,-131.8 73,-131.8 152.51,-131.8 152.51,-131.8"/>
<polygon fill="black" stroke="black" points="152.51,-135.3 162.51,-131.8 152.51,-128.3 152.51,-135.3"/>
</g>
</g>
</svg>
