<?xml version="1.0" encoding="UTF-8" standalone="no"?>
<!DOCTYPE svg PUBLIC "-//W3C//DTD SVG 1.1//EN"
 "http://www.w3.org/Graphics/SVG/1.1/DTD/svg11.dtd">
<!-- Generated by graphviz version 2.47.3 (20210619.1520)
 -->
<!-- Title: dependencies Pages: 1 -->
<svg width="1085pt" height="174pt"
 viewBox="0.00 0.00 1085.00 173.80" xmlns="http://www.w3.org/2000/svg" xmlns:xlink="http://www.w3.org/1999/xlink">
<g id="graph0" class="graph" transform="scale(1 1) rotate(0) translate(4 169.8)">
<title>dependencies</title>
<polygon fill="white" stroke="transparent" points="-4,4 -4,-169.8 1081,-169.8 1081,4 -4,4"/>
<text text-anchor="middle" x="538.5" y="-8.2" font-family="sans-serif" font-size="14.00">dependencies</text>
<g id="clust1" class="cluster">
<title>cluster_CarguesMejoramientoModule</title>
<polygon fill="none" stroke="black" stroke-dasharray="1,5" points="8,-32.8 8,-157.8 1069,-157.8 1069,-32.8 8,-32.8"/>
</g>
<g id="clust2" class="cluster">
<title>cluster_CarguesMejoramientoModule_declarations</title>
<polygon fill="none" stroke="black" points="386,-40.8 386,-92.8 1061,-92.8 1061,-40.8 386,-40.8"/>
</g>
<g id="clust6" class="cluster">
<title>cluster_CarguesMejoramientoModule_imports</title>
<polygon fill="none" stroke="black" points="16,-40.8 16,-92.8 378,-92.8 378,-40.8 16,-40.8"/>
</g>
<!-- CarguesMejoramientoComponent -->
<g id="node1" class="node">
<title>CarguesMejoramientoComponent</title>
<polygon fill="#ffffb3" stroke="black" points="1053.02,-84.8 846.98,-84.8 846.98,-48.8 1053.02,-48.8 1053.02,-84.8"/>
<text text-anchor="middle" x="950" y="-62.6" font-family="Times,serif" font-size="14.00">CarguesMejoramientoComponent</text>
</g>
<!-- CarguesMejoramientoModule -->
<g id="node4" class="node">
<title>CarguesMejoramientoModule</title>
<polygon fill="#8dd3c7" stroke="black" points="576.23,-149.8 573.23,-153.8 552.23,-153.8 549.23,-149.8 391.77,-149.8 391.77,-113.8 576.23,-113.8 576.23,-149.8"/>
<text text-anchor="middle" x="484" y="-127.6" font-family="Times,serif" font-size="14.00">CarguesMejoramientoModule</text>
</g>
<!-- CarguesMejoramientoComponent&#45;&gt;CarguesMejoramientoModule -->
<g id="edge1" class="edge">
<title>CarguesMejoramientoComponent&#45;&gt;CarguesMejoramientoModule</title>
<path fill="none" stroke="black" d="M950,-85.08C950,-106.12 950,-137.8 950,-137.8 950,-137.8 586.35,-137.8 586.35,-137.8"/>
<polygon fill="black" stroke="black" points="586.35,-134.3 576.35,-137.8 586.35,-141.3 586.35,-134.3"/>
</g>
<!-- ProgramacionVisitaTecnicaComponent -->
<g id="node2" class="node">
<title>ProgramacionVisitaTecnicaComponent</title>
<polygon fill="#ffffb3" stroke="black" points="828.6,-84.8 591.4,-84.8 591.4,-48.8 828.6,-48.8 828.6,-84.8"/>
<text text-anchor="middle" x="710" y="-62.6" font-family="Times,serif" font-size="14.00">ProgramacionVisitaTecnicaComponent</text>
</g>
<!-- ProgramacionVisitaTecnicaComponent&#45;&gt;CarguesMejoramientoModule -->
<g id="edge2" class="edge">
<title>ProgramacionVisitaTecnicaComponent&#45;&gt;CarguesMejoramientoModule</title>
<path fill="none" stroke="black" d="M710,-84.82C710,-102.17 710,-125.8 710,-125.8 710,-125.8 586.25,-125.8 586.25,-125.8"/>
<polygon fill="black" stroke="black" points="586.25,-122.3 576.25,-125.8 586.25,-129.3 586.25,-122.3"/>
</g>
<!-- SincroniacionSPIComponent -->
<g id="node3" class="node">
<title>SincroniacionSPIComponent</title>
<polygon fill="#ffffb3" stroke="black" points="573.82,-84.8 394.18,-84.8 394.18,-48.8 573.82,-48.8 573.82,-84.8"/>
<text text-anchor="middle" x="484" y="-62.6" font-family="Times,serif" font-size="14.00">SincroniacionSPIComponent</text>
</g>
<!-- SincroniacionSPIComponent&#45;&gt;CarguesMejoramientoModule -->
<g id="edge3" class="edge">
<title>SincroniacionSPIComponent&#45;&gt;CarguesMejoramientoModule</title>
<path fill="none" stroke="black" d="M484,-84.91C484,-84.91 484,-103.79 484,-103.79"/>
<polygon fill="black" stroke="black" points="480.5,-103.79 484,-113.79 487.5,-103.79 480.5,-103.79"/>
</g>
<!-- CarguesMejoramientoRoutingModule -->
<g id="node5" class="node">
<title>CarguesMejoramientoRoutingModule</title>
<polygon fill="#8dd3c7" stroke="black" points="369.85,-84.8 366.85,-88.8 345.85,-88.8 342.85,-84.8 140.15,-84.8 140.15,-48.8 369.85,-48.8 369.85,-84.8"/>
<text text-anchor="middle" x="255" y="-62.6" font-family="Times,serif" font-size="14.00">CarguesMejoramientoRoutingModule</text>
</g>
<!-- CarguesMejoramientoRoutingModule&#45;&gt;CarguesMejoramientoModule -->
<g id="edge4" class="edge">
<title>CarguesMejoramientoRoutingModule&#45;&gt;CarguesMejoramientoModule</title>
<path fill="none" stroke="black" d="M255,-84.82C255,-102.17 255,-125.8 255,-125.8 255,-125.8 381.52,-125.8 381.52,-125.8"/>
<polygon fill="black" stroke="black" points="381.52,-129.3 391.52,-125.8 381.52,-122.3 381.52,-129.3"/>
</g>
<!-- SharedModule -->
<g id="node6" class="node">
<title>SharedModule</title>
<polygon fill="#8dd3c7" stroke="black" points="122.42,-84.8 119.42,-88.8 98.42,-88.8 95.42,-84.8 23.58,-84.8 23.58,-48.8 122.42,-48.8 122.42,-84.8"/>
<text text-anchor="middle" x="73" y="-62.6" font-family="Times,serif" font-size="14.00">SharedModule</text>
</g>
<!-- SharedModule&#45;&gt;CarguesMejoramientoModule -->
<g id="edge5" class="edge">
<title>SharedModule&#45;&gt;CarguesMejoramientoModule</title>
<path fill="none" stroke="black" d="M73,-85.08C73,-106.12 73,-137.8 73,-137.8 73,-137.8 381.76,-137.8 381.76,-137.8"/>
<polygon fill="black" stroke="black" points="381.76,-141.3 391.76,-137.8 381.76,-134.3 381.76,-141.3"/>
</g>
</g>
</svg>
