<?xml version="1.0" encoding="UTF-8" standalone="no"?>
<!DOCTYPE svg PUBLIC "-//W3C//DTD SVG 1.1//EN"
 "http://www.w3.org/Graphics/SVG/1.1/DTD/svg11.dtd">
<!-- Generated by graphviz version 2.47.3 (20210619.1520)
 -->
<!-- Title: dependencies Pages: 1 -->
<svg width="1324pt" height="239pt"
 viewBox="0.00 0.00 1324.00 238.80" xmlns="http://www.w3.org/2000/svg" xmlns:xlink="http://www.w3.org/1999/xlink">
<g id="graph0" class="graph" transform="scale(1 1) rotate(0) translate(4 234.8)">
<title>dependencies</title>
<polygon fill="white" stroke="transparent" points="-4,4 -4,-234.8 1320,-234.8 1320,4 -4,4"/>
<text text-anchor="middle" x="658" y="-8.2" font-family="sans-serif" font-size="14.00">dependencies</text>
<g id="clust1" class="cluster">
<title>cluster_RegistroVisitaVerificacionModule</title>
<polygon fill="none" stroke="black" stroke-dasharray="1,5" points="8,-32.8 8,-222.8 1308,-222.8 1308,-32.8 8,-32.8"/>
</g>
<g id="clust2" class="cluster">
<title>cluster_RegistroVisitaVerificacionModule_declarations</title>
<polygon fill="none" stroke="black" points="412,-105.8 412,-157.8 1300,-157.8 1300,-105.8 412,-105.8"/>
</g>
<g id="clust6" class="cluster">
<title>cluster_RegistroVisitaVerificacionModule_RegistroVisitaVerificacionComponent_providers</title>
<polygon fill="none" stroke="black" points="482,-40.8 482,-92.8 590,-92.8 590,-40.8 482,-40.8"/>
</g>
<g id="clust7" class="cluster">
<title>cluster_RegistroVisitaVerificacionModule_imports</title>
<polygon fill="none" stroke="black" points="16,-105.8 16,-157.8 404,-157.8 404,-105.8 16,-105.8"/>
</g>
<!-- AreaIntervencionComponent -->
<g id="node1" class="node">
<title>AreaIntervencionComponent</title>
<polygon fill="#ffffb3" stroke="black" points="1291.78,-149.8 1112.22,-149.8 1112.22,-113.8 1291.78,-113.8 1291.78,-149.8"/>
<text text-anchor="middle" x="1202" y="-127.6" font-family="Times,serif" font-size="14.00">AreaIntervencionComponent</text>
</g>
<!-- RegistroVisitaVerificacionModule -->
<g id="node5" class="node">
<title>RegistroVisitaVerificacionModule</title>
<polygon fill="#8dd3c7" stroke="black" points="765.38,-214.8 762.38,-218.8 741.38,-218.8 738.38,-214.8 554.62,-214.8 554.62,-178.8 765.38,-178.8 765.38,-214.8"/>
<text text-anchor="middle" x="660" y="-192.6" font-family="Times,serif" font-size="14.00">RegistroVisitaVerificacionModule</text>
</g>
<!-- AreaIntervencionComponent&#45;&gt;RegistroVisitaVerificacionModule -->
<g id="edge1" class="edge">
<title>AreaIntervencionComponent&#45;&gt;RegistroVisitaVerificacionModule</title>
<path fill="none" stroke="black" d="M1202,-150.08C1202,-171.12 1202,-202.8 1202,-202.8 1202,-202.8 775.47,-202.8 775.47,-202.8"/>
<polygon fill="black" stroke="black" points="775.47,-199.3 765.47,-202.8 775.47,-206.3 775.47,-199.3"/>
</g>
<!-- ListaVerificacionComponent -->
<g id="node2" class="node">
<title>ListaVerificacionComponent</title>
<polygon fill="#ffffb3" stroke="black" points="1094.78,-149.8 915.22,-149.8 915.22,-113.8 1094.78,-113.8 1094.78,-149.8"/>
<text text-anchor="middle" x="1005" y="-127.6" font-family="Times,serif" font-size="14.00">ListaVerificacionComponent</text>
</g>
<!-- ListaVerificacionComponent&#45;&gt;RegistroVisitaVerificacionModule -->
<g id="edge2" class="edge">
<title>ListaVerificacionComponent&#45;&gt;RegistroVisitaVerificacionModule</title>
<path fill="none" stroke="black" d="M1005,-149.82C1005,-167.17 1005,-190.8 1005,-190.8 1005,-190.8 775.39,-190.8 775.39,-190.8"/>
<polygon fill="black" stroke="black" points="775.39,-187.3 765.39,-190.8 775.39,-194.3 775.39,-187.3"/>
</g>
<!-- NovedadadesIntervencionComponent -->
<g id="node3" class="node">
<title>NovedadadesIntervencionComponent</title>
<polygon fill="#ffffb3" stroke="black" points="897.99,-149.8 670.01,-149.8 670.01,-113.8 897.99,-113.8 897.99,-149.8"/>
<text text-anchor="middle" x="784" y="-127.6" font-family="Times,serif" font-size="14.00">NovedadadesIntervencionComponent</text>
</g>
<!-- NovedadadesIntervencionComponent&#45;&gt;RegistroVisitaVerificacionModule -->
<g id="edge3" class="edge">
<title>NovedadadesIntervencionComponent&#45;&gt;RegistroVisitaVerificacionModule</title>
<path fill="none" stroke="black" d="M717.72,-149.91C717.72,-149.91 717.72,-168.79 717.72,-168.79"/>
<polygon fill="black" stroke="black" points="714.22,-168.79 717.72,-178.79 721.22,-168.79 714.22,-168.79"/>
</g>
<!-- RegistroVisitaVerificacionComponent -->
<g id="node4" class="node">
<title>RegistroVisitaVerificacionComponent</title>
<polygon fill="#ffffb3" stroke="black" points="652.17,-149.8 419.83,-149.8 419.83,-113.8 652.17,-113.8 652.17,-149.8"/>
<text text-anchor="middle" x="536" y="-127.6" font-family="Times,serif" font-size="14.00">RegistroVisitaVerificacionComponent</text>
</g>
<!-- RegistroVisitaVerificacionComponent&#45;&gt;RegistroVisitaVerificacionModule -->
<g id="edge4" class="edge">
<title>RegistroVisitaVerificacionComponent&#45;&gt;RegistroVisitaVerificacionModule</title>
<path fill="none" stroke="black" d="M603.45,-149.91C603.45,-149.91 603.45,-168.79 603.45,-168.79"/>
<polygon fill="black" stroke="black" points="599.95,-168.79 603.45,-178.79 606.95,-168.79 599.95,-168.79"/>
</g>
<!-- DatePipe -->
<g id="node6" class="node">
<title>DatePipe</title>
<ellipse fill="#fdb462" stroke="black" cx="536" cy="-66.8" rx="46.36" ry="18"/>
<text text-anchor="middle" x="536" y="-62.6" font-family="Times,serif" font-size="14.00">DatePipe</text>
</g>
<!-- DatePipe&#45;&gt;RegistroVisitaVerificacionComponent -->
<g id="edge5" class="edge">
<title>DatePipe&#45;&gt;RegistroVisitaVerificacionComponent</title>
<path fill="none" stroke="black" d="M536,-84.91C536,-84.91 536,-103.79 536,-103.79"/>
<polygon fill="black" stroke="black" points="532.5,-103.79 536,-113.79 539.5,-103.79 532.5,-103.79"/>
</g>
<!-- RegistroVisitaVerificacionRoutingModule -->
<g id="node7" class="node">
<title>RegistroVisitaVerificacionRoutingModule</title>
<polygon fill="#8dd3c7" stroke="black" points="395.5,-149.8 392.5,-153.8 371.5,-153.8 368.5,-149.8 140.5,-149.8 140.5,-113.8 395.5,-113.8 395.5,-149.8"/>
<text text-anchor="middle" x="268" y="-127.6" font-family="Times,serif" font-size="14.00">RegistroVisitaVerificacionRoutingModule</text>
</g>
<!-- RegistroVisitaVerificacionRoutingModule&#45;&gt;RegistroVisitaVerificacionModule -->
<g id="edge6" class="edge">
<title>RegistroVisitaVerificacionRoutingModule&#45;&gt;RegistroVisitaVerificacionModule</title>
<path fill="none" stroke="black" d="M268,-149.82C268,-167.17 268,-190.8 268,-190.8 268,-190.8 544.69,-190.8 544.69,-190.8"/>
<polygon fill="black" stroke="black" points="544.69,-194.3 554.69,-190.8 544.69,-187.3 544.69,-194.3"/>
</g>
<!-- SharedModule -->
<g id="node8" class="node">
<title>SharedModule</title>
<polygon fill="#8dd3c7" stroke="black" points="122.42,-149.8 119.42,-153.8 98.42,-153.8 95.42,-149.8 23.58,-149.8 23.58,-113.8 122.42,-113.8 122.42,-149.8"/>
<text text-anchor="middle" x="73" y="-127.6" font-family="Times,serif" font-size="14.00">SharedModule</text>
</g>
<!-- SharedModule&#45;&gt;RegistroVisitaVerificacionModule -->
<g id="edge7" class="edge">
<title>SharedModule&#45;&gt;RegistroVisitaVerificacionModule</title>
<path fill="none" stroke="black" d="M73,-150.08C73,-171.12 73,-202.8 73,-202.8 73,-202.8 544.72,-202.8 544.72,-202.8"/>
<polygon fill="black" stroke="black" points="544.72,-206.3 554.72,-202.8 544.72,-199.3 544.72,-206.3"/>
</g>
</g>
</svg>
