<?xml version="1.0" encoding="UTF-8" standalone="no"?>
<!DOCTYPE svg PUBLIC "-//W3C//DTD SVG 1.1//EN"
 "http://www.w3.org/Graphics/SVG/1.1/DTD/svg11.dtd">
<!-- Generated by graphviz version 2.47.3 (20210619.1520)
 -->
<!-- Title: dependencies Pages: 1 -->
<svg width="2428pt" height="174pt"
 viewBox="0.00 0.00 2428.00 173.80" xmlns="http://www.w3.org/2000/svg" xmlns:xlink="http://www.w3.org/1999/xlink">
<g id="graph0" class="graph" transform="scale(1 1) rotate(0) translate(4 169.8)">
<title>dependencies</title>
<polygon fill="white" stroke="transparent" points="-4,4 -4,-169.8 2424,-169.8 2424,4 -4,4"/>
<text text-anchor="middle" x="1210" y="-8.2" font-family="sans-serif" font-size="14.00">dependencies</text>
<g id="clust1" class="cluster">
<title>cluster_RegistrarDisenoModule</title>
<polygon fill="none" stroke="black" stroke-dasharray="1,5" points="8,-32.8 8,-157.8 2412,-157.8 2412,-32.8 8,-32.8"/>
</g>
<g id="clust2" class="cluster">
<title>cluster_RegistrarDisenoModule_declarations</title>
<polygon fill="none" stroke="black" points="352,-40.8 352,-92.8 2404,-92.8 2404,-40.8 352,-40.8"/>
</g>
<g id="clust14" class="cluster">
<title>cluster_RegistrarDisenoModule_imports</title>
<polygon fill="none" stroke="black" points="16,-40.8 16,-92.8 344,-92.8 344,-40.8 16,-40.8"/>
</g>
<!-- ActualizarAlternativaComponent -->
<g id="node1" class="node">
<title>ActualizarAlternativaComponent</title>
<polygon fill="#ffffb3" stroke="black" points="2396.1,-84.8 2193.9,-84.8 2193.9,-48.8 2396.1,-48.8 2396.1,-84.8"/>
<text text-anchor="middle" x="2295" y="-62.6" font-family="Times,serif" font-size="14.00">ActualizarAlternativaComponent</text>
</g>
<!-- RegistrarDisenoModule -->
<g id="node12" class="node">
<title>RegistrarDisenoModule</title>
<polygon fill="#8dd3c7" stroke="black" points="1195.02,-149.8 1192.02,-153.8 1171.02,-153.8 1168.02,-149.8 1044.98,-149.8 1044.98,-113.8 1195.02,-113.8 1195.02,-149.8"/>
<text text-anchor="middle" x="1120" y="-127.6" font-family="Times,serif" font-size="14.00">RegistrarDisenoModule</text>
</g>
<!-- ActualizarAlternativaComponent&#45;&gt;RegistrarDisenoModule -->
<g id="edge1" class="edge">
<title>ActualizarAlternativaComponent&#45;&gt;RegistrarDisenoModule</title>
<path fill="none" stroke="black" d="M2295,-84.89C2295,-107.93 2295,-144.8 2295,-144.8 2295,-144.8 1205.29,-144.8 1205.29,-144.8"/>
<polygon fill="black" stroke="black" points="1205.29,-141.3 1195.29,-144.8 1205.29,-148.3 1205.29,-141.3"/>
</g>
<!-- ConsultaApiquesComponent -->
<g id="node2" class="node">
<title>ConsultaApiquesComponent</title>
<polygon fill="#ffffb3" stroke="black" points="2175.77,-84.8 1998.23,-84.8 1998.23,-48.8 2175.77,-48.8 2175.77,-84.8"/>
<text text-anchor="middle" x="2087" y="-62.6" font-family="Times,serif" font-size="14.00">ConsultaApiquesComponent</text>
</g>
<!-- ConsultaApiquesComponent&#45;&gt;RegistrarDisenoModule -->
<g id="edge2" class="edge">
<title>ConsultaApiquesComponent&#45;&gt;RegistrarDisenoModule</title>
<path fill="none" stroke="black" d="M2087,-84.84C2087,-106.46 2087,-139.8 2087,-139.8 2087,-139.8 1205.07,-139.8 1205.07,-139.8"/>
<polygon fill="black" stroke="black" points="1205.07,-136.3 1195.07,-139.8 1205.07,-143.3 1205.07,-136.3"/>
</g>
<!-- ListarAlternativasComponent -->
<g id="node3" class="node">
<title>ListarAlternativasComponent</title>
<polygon fill="#ffffb3" stroke="black" points="1980.4,-84.8 1797.6,-84.8 1797.6,-48.8 1980.4,-48.8 1980.4,-84.8"/>
<text text-anchor="middle" x="1889" y="-62.6" font-family="Times,serif" font-size="14.00">ListarAlternativasComponent</text>
</g>
<!-- ListarAlternativasComponent&#45;&gt;RegistrarDisenoModule -->
<g id="edge3" class="edge">
<title>ListarAlternativasComponent&#45;&gt;RegistrarDisenoModule</title>
<path fill="none" stroke="black" d="M1889,-85.02C1889,-105.17 1889,-134.8 1889,-134.8 1889,-134.8 1205.14,-134.8 1205.14,-134.8"/>
<polygon fill="black" stroke="black" points="1205.14,-131.3 1195.14,-134.8 1205.14,-138.3 1205.14,-131.3"/>
</g>
<!-- RegistroAlternativaComponent -->
<g id="node4" class="node">
<title>RegistroAlternativaComponent</title>
<polygon fill="#ffffb3" stroke="black" points="1779.74,-84.8 1588.26,-84.8 1588.26,-48.8 1779.74,-48.8 1779.74,-84.8"/>
<text text-anchor="middle" x="1684" y="-62.6" font-family="Times,serif" font-size="14.00">RegistroAlternativaComponent</text>
</g>
<!-- RegistroAlternativaComponent&#45;&gt;RegistrarDisenoModule -->
<g id="edge4" class="edge">
<title>RegistroAlternativaComponent&#45;&gt;RegistrarDisenoModule</title>
<path fill="none" stroke="black" d="M1684,-85.02C1684,-103.63 1684,-129.8 1684,-129.8 1684,-129.8 1205.19,-129.8 1205.19,-129.8"/>
<polygon fill="black" stroke="black" points="1205.19,-126.3 1195.19,-129.8 1205.19,-133.3 1205.19,-126.3"/>
</g>
<!-- RegistroCapaComponent -->
<g id="node5" class="node">
<title>RegistroCapaComponent</title>
<polygon fill="#ffffb3" stroke="black" points="1569.54,-84.8 1412.46,-84.8 1412.46,-48.8 1569.54,-48.8 1569.54,-84.8"/>
<text text-anchor="middle" x="1491" y="-62.6" font-family="Times,serif" font-size="14.00">RegistroCapaComponent</text>
</g>
<!-- RegistroCapaComponent&#45;&gt;RegistrarDisenoModule -->
<g id="edge5" class="edge">
<title>RegistroCapaComponent&#45;&gt;RegistrarDisenoModule</title>
<path fill="none" stroke="black" d="M1491,-84.83C1491,-101.86 1491,-124.8 1491,-124.8 1491,-124.8 1205.08,-124.8 1205.08,-124.8"/>
<polygon fill="black" stroke="black" points="1205.08,-121.3 1195.08,-124.8 1205.08,-128.3 1205.08,-121.3"/>
</g>
<!-- RegistroDisenoComponent -->
<g id="node6" class="node">
<title>RegistroDisenoComponent</title>
<polygon fill="#ffffb3" stroke="black" points="1394.43,-84.8 1225.57,-84.8 1225.57,-48.8 1394.43,-48.8 1394.43,-84.8"/>
<text text-anchor="middle" x="1310" y="-62.6" font-family="Times,serif" font-size="14.00">RegistroDisenoComponent</text>
</g>
<!-- RegistroDisenoComponent&#45;&gt;RegistrarDisenoModule -->
<g id="edge6" class="edge">
<title>RegistroDisenoComponent&#45;&gt;RegistrarDisenoModule</title>
<path fill="none" stroke="black" d="M1310,-85.04C1310,-100.37 1310,-119.8 1310,-119.8 1310,-119.8 1205.09,-119.8 1205.09,-119.8"/>
<polygon fill="black" stroke="black" points="1205.09,-116.3 1195.09,-119.8 1205.09,-123.3 1205.09,-116.3"/>
</g>
<!-- RegistroInsumosComponent -->
<g id="node7" class="node">
<title>RegistroInsumosComponent</title>
<polygon fill="#ffffb3" stroke="black" points="1208.21,-84.8 1031.79,-84.8 1031.79,-48.8 1208.21,-48.8 1208.21,-84.8"/>
<text text-anchor="middle" x="1120" y="-62.6" font-family="Times,serif" font-size="14.00">RegistroInsumosComponent</text>
</g>
<!-- RegistroInsumosComponent&#45;&gt;RegistrarDisenoModule -->
<g id="edge7" class="edge">
<title>RegistroInsumosComponent&#45;&gt;RegistrarDisenoModule</title>
<path fill="none" stroke="black" d="M1120,-84.91C1120,-84.91 1120,-103.79 1120,-103.79"/>
<polygon fill="black" stroke="black" points="1116.5,-103.79 1120,-113.79 1123.5,-103.79 1116.5,-103.79"/>
</g>
<!-- VerAlternativaComponent -->
<g id="node8" class="node">
<title>VerAlternativaComponent</title>
<polygon fill="#ffffb3" stroke="black" points="1013.79,-84.8 848.21,-84.8 848.21,-48.8 1013.79,-48.8 1013.79,-84.8"/>
<text text-anchor="middle" x="931" y="-62.6" font-family="Times,serif" font-size="14.00">VerAlternativaComponent</text>
</g>
<!-- VerAlternativaComponent&#45;&gt;RegistrarDisenoModule -->
<g id="edge8" class="edge">
<title>VerAlternativaComponent&#45;&gt;RegistrarDisenoModule</title>
<path fill="none" stroke="black" d="M931,-85.04C931,-100.37 931,-119.8 931,-119.8 931,-119.8 1034.76,-119.8 1034.76,-119.8"/>
<polygon fill="black" stroke="black" points="1034.76,-123.3 1044.76,-119.8 1034.76,-116.3 1034.76,-123.3"/>
</g>
<!-- VerFallasComponent -->
<g id="node9" class="node">
<title>VerFallasComponent</title>
<polygon fill="#ffffb3" stroke="black" points="829.75,-84.8 694.25,-84.8 694.25,-48.8 829.75,-48.8 829.75,-84.8"/>
<text text-anchor="middle" x="762" y="-62.6" font-family="Times,serif" font-size="14.00">VerFallasComponent</text>
</g>
<!-- VerFallasComponent&#45;&gt;RegistrarDisenoModule -->
<g id="edge9" class="edge">
<title>VerFallasComponent&#45;&gt;RegistrarDisenoModule</title>
<path fill="none" stroke="black" d="M762,-84.83C762,-101.86 762,-124.8 762,-124.8 762,-124.8 1034.95,-124.8 1034.95,-124.8"/>
<polygon fill="black" stroke="black" points="1034.95,-128.3 1044.95,-124.8 1034.95,-121.3 1034.95,-128.3"/>
</g>
<!-- VerFotosComponent -->
<g id="node10" class="node">
<title>VerFotosComponent</title>
<polygon fill="#ffffb3" stroke="black" points="675.93,-84.8 542.07,-84.8 542.07,-48.8 675.93,-48.8 675.93,-84.8"/>
<text text-anchor="middle" x="609" y="-62.6" font-family="Times,serif" font-size="14.00">VerFotosComponent</text>
</g>
<!-- VerFotosComponent&#45;&gt;RegistrarDisenoModule -->
<g id="edge10" class="edge">
<title>VerFotosComponent&#45;&gt;RegistrarDisenoModule</title>
<path fill="none" stroke="black" d="M609,-85.02C609,-103.63 609,-129.8 609,-129.8 609,-129.8 1034.87,-129.8 1034.87,-129.8"/>
<polygon fill="black" stroke="black" points="1034.87,-133.3 1044.87,-129.8 1034.87,-126.3 1034.87,-133.3"/>
</g>
<!-- VerOtroFactorComponent -->
<g id="node11" class="node">
<title>VerOtroFactorComponent</title>
<polygon fill="#ffffb3" stroke="black" points="523.74,-84.8 360.26,-84.8 360.26,-48.8 523.74,-48.8 523.74,-84.8"/>
<text text-anchor="middle" x="442" y="-62.6" font-family="Times,serif" font-size="14.00">VerOtroFactorComponent</text>
</g>
<!-- VerOtroFactorComponent&#45;&gt;RegistrarDisenoModule -->
<g id="edge11" class="edge">
<title>VerOtroFactorComponent&#45;&gt;RegistrarDisenoModule</title>
<path fill="none" stroke="black" d="M442,-85.02C442,-105.17 442,-134.8 442,-134.8 442,-134.8 1034.85,-134.8 1034.85,-134.8"/>
<polygon fill="black" stroke="black" points="1034.85,-138.3 1044.85,-134.8 1034.85,-131.3 1034.85,-138.3"/>
</g>
<!-- RegistrarDisenoRoutingModule -->
<g id="node13" class="node">
<title>RegistrarDisenoRoutingModule</title>
<polygon fill="#8dd3c7" stroke="black" points="335.64,-84.8 332.64,-88.8 311.64,-88.8 308.64,-84.8 140.36,-84.8 140.36,-48.8 335.64,-48.8 335.64,-84.8"/>
<text text-anchor="middle" x="238" y="-62.6" font-family="Times,serif" font-size="14.00">RegistrarDisenoRoutingModule</text>
</g>
<!-- RegistrarDisenoRoutingModule&#45;&gt;RegistrarDisenoModule -->
<g id="edge12" class="edge">
<title>RegistrarDisenoRoutingModule&#45;&gt;RegistrarDisenoModule</title>
<path fill="none" stroke="black" d="M238,-84.84C238,-106.46 238,-139.8 238,-139.8 238,-139.8 1034.8,-139.8 1034.8,-139.8"/>
<polygon fill="black" stroke="black" points="1034.8,-143.3 1044.8,-139.8 1034.8,-136.3 1034.8,-143.3"/>
</g>
<!-- SharedModule -->
<g id="node14" class="node">
<title>SharedModule</title>
<polygon fill="#8dd3c7" stroke="black" points="122.42,-84.8 119.42,-88.8 98.42,-88.8 95.42,-84.8 23.58,-84.8 23.58,-48.8 122.42,-48.8 122.42,-84.8"/>
<text text-anchor="middle" x="73" y="-62.6" font-family="Times,serif" font-size="14.00">SharedModule</text>
</g>
<!-- SharedModule&#45;&gt;RegistrarDisenoModule -->
<g id="edge13" class="edge">
<title>SharedModule&#45;&gt;RegistrarDisenoModule</title>
<path fill="none" stroke="black" d="M73,-84.89C73,-107.93 73,-144.8 73,-144.8 73,-144.8 1034.7,-144.8 1034.7,-144.8"/>
<polygon fill="black" stroke="black" points="1034.7,-148.3 1044.7,-144.8 1034.7,-141.3 1034.7,-148.3"/>
</g>
</g>
</svg>
