<?xml version="1.0" encoding="UTF-8" standalone="no"?>
<!DOCTYPE svg PUBLIC "-//W3C//DTD SVG 1.1//EN"
 "http://www.w3.org/Graphics/SVG/1.1/DTD/svg11.dtd">
<!-- Generated by graphviz version 2.47.3 (20210619.1520)
 -->
<!-- Title: dependencies Pages: 1 -->
<svg width="428pt" height="174pt"
 viewBox="0.00 0.00 428.00 173.80" xmlns="http://www.w3.org/2000/svg" xmlns:xlink="http://www.w3.org/1999/xlink">
<g id="graph0" class="graph" transform="scale(1 1) rotate(0) translate(4 169.8)">
<title>dependencies</title>
<polygon fill="white" stroke="transparent" points="-4,4 -4,-169.8 424,-169.8 424,4 -4,4"/>
<text text-anchor="middle" x="210" y="-8.2" font-family="sans-serif" font-size="14.00">dependencies</text>
<g id="clust1" class="cluster">
<title>cluster_ValidarDisenoModule</title>
<polygon fill="none" stroke="black" stroke-dasharray="1,5" points="8,-32.8 8,-157.8 412,-157.8 412,-32.8 8,-32.8"/>
</g>
<g id="clust2" class="cluster">
<title>cluster_ValidarDisenoModule_declarations</title>
<polygon fill="none" stroke="black" points="226,-40.8 226,-92.8 404,-92.8 404,-40.8 226,-40.8"/>
</g>
<g id="clust4" class="cluster">
<title>cluster_ValidarDisenoModule_imports</title>
<polygon fill="none" stroke="black" points="16,-40.8 16,-92.8 218,-92.8 218,-40.8 16,-40.8"/>
</g>
<!-- ValidarDisenoComponent -->
<g id="node1" class="node">
<title>ValidarDisenoComponent</title>
<polygon fill="#ffffb3" stroke="black" points="396.47,-84.8 233.53,-84.8 233.53,-48.8 396.47,-48.8 396.47,-84.8"/>
<text text-anchor="middle" x="315" y="-62.6" font-family="Times,serif" font-size="14.00">ValidarDisenoComponent</text>
</g>
<!-- ValidarDisenoModule -->
<g id="node2" class="node">
<title>ValidarDisenoModule</title>
<polygon fill="#8dd3c7" stroke="black" points="286.68,-149.8 283.68,-153.8 262.68,-153.8 259.68,-149.8 145.32,-149.8 145.32,-113.8 286.68,-113.8 286.68,-149.8"/>
<text text-anchor="middle" x="216" y="-127.6" font-family="Times,serif" font-size="14.00">ValidarDisenoModule</text>
</g>
<!-- ValidarDisenoComponent&#45;&gt;ValidarDisenoModule -->
<g id="edge1" class="edge">
<title>ValidarDisenoComponent&#45;&gt;ValidarDisenoModule</title>
<path fill="none" stroke="black" d="M260.05,-84.91C260.05,-84.91 260.05,-103.79 260.05,-103.79"/>
<polygon fill="black" stroke="black" points="256.55,-103.79 260.05,-113.79 263.55,-103.79 256.55,-103.79"/>
</g>
<!-- ValidarDisenoRoutingModule -->
<g id="node3" class="node">
<title>ValidarDisenoRoutingModule</title>
<polygon fill="#8dd3c7" stroke="black" points="210.3,-84.8 207.3,-88.8 186.3,-88.8 183.3,-84.8 23.7,-84.8 23.7,-48.8 210.3,-48.8 210.3,-84.8"/>
<text text-anchor="middle" x="117" y="-62.6" font-family="Times,serif" font-size="14.00">ValidarDisenoRoutingModule</text>
</g>
<!-- ValidarDisenoRoutingModule&#45;&gt;ValidarDisenoModule -->
<g id="edge2" class="edge">
<title>ValidarDisenoRoutingModule&#45;&gt;ValidarDisenoModule</title>
<path fill="none" stroke="black" d="M177.78,-84.91C177.78,-84.91 177.78,-103.79 177.78,-103.79"/>
<polygon fill="black" stroke="black" points="174.28,-103.79 177.78,-113.79 181.28,-103.79 174.28,-103.79"/>
</g>
</g>
</svg>
