<?xml version="1.0" encoding="UTF-8" standalone="no"?>
<!DOCTYPE svg PUBLIC "-//W3C//DTD SVG 1.1//EN"
 "http://www.w3.org/Graphics/SVG/1.1/DTD/svg11.dtd">
<!-- Generated by graphviz version 2.47.3 (20210619.1520)
 -->
<!-- Title: dependencies Pages: 1 -->
<svg width="358pt" height="174pt"
 viewBox="0.00 0.00 358.00 173.80" xmlns="http://www.w3.org/2000/svg" xmlns:xlink="http://www.w3.org/1999/xlink">
<g id="graph0" class="graph" transform="scale(1 1) rotate(0) translate(4 169.8)">
<title>dependencies</title>
<polygon fill="white" stroke="transparent" points="-4,4 -4,-169.8 354,-169.8 354,4 -4,4"/>
<text text-anchor="middle" x="175" y="-8.2" font-family="sans-serif" font-size="14.00">dependencies</text>
<g id="clust1" class="cluster">
<title>cluster_PersonaModule</title>
<polygon fill="none" stroke="black" stroke-dasharray="1,5" points="8,-32.8 8,-157.8 342,-157.8 342,-32.8 8,-32.8"/>
</g>
<g id="clust2" class="cluster">
<title>cluster_PersonaModule_declarations</title>
<polygon fill="none" stroke="black" points="188,-40.8 188,-92.8 334,-92.8 334,-40.8 188,-40.8"/>
</g>
<g id="clust4" class="cluster">
<title>cluster_PersonaModule_imports</title>
<polygon fill="none" stroke="black" points="16,-40.8 16,-92.8 180,-92.8 180,-40.8 16,-40.8"/>
</g>
<!-- EliminarComponent -->
<g id="node1" class="node">
<title>EliminarComponent</title>
<polygon fill="#ffffb3" stroke="black" points="326.32,-84.8 195.68,-84.8 195.68,-48.8 326.32,-48.8 326.32,-84.8"/>
<text text-anchor="middle" x="261" y="-62.6" font-family="Times,serif" font-size="14.00">EliminarComponent</text>
</g>
<!-- PersonaModule -->
<g id="node2" class="node">
<title>PersonaModule</title>
<polygon fill="#8dd3c7" stroke="black" points="230.87,-149.8 227.87,-153.8 206.87,-153.8 203.87,-149.8 127.13,-149.8 127.13,-113.8 230.87,-113.8 230.87,-149.8"/>
<text text-anchor="middle" x="179" y="-127.6" font-family="Times,serif" font-size="14.00">PersonaModule</text>
</g>
<!-- EliminarComponent&#45;&gt;PersonaModule -->
<g id="edge1" class="edge">
<title>EliminarComponent&#45;&gt;PersonaModule</title>
<path fill="none" stroke="black" d="M213.39,-84.91C213.39,-84.91 213.39,-103.79 213.39,-103.79"/>
<polygon fill="black" stroke="black" points="209.89,-103.79 213.39,-113.79 216.89,-103.79 209.89,-103.79"/>
</g>
<!-- PersonaRoutingModule -->
<g id="node3" class="node">
<title>PersonaRoutingModule</title>
<polygon fill="#8dd3c7" stroke="black" points="172.48,-84.8 169.48,-88.8 148.48,-88.8 145.48,-84.8 23.52,-84.8 23.52,-48.8 172.48,-48.8 172.48,-84.8"/>
<text text-anchor="middle" x="98" y="-62.6" font-family="Times,serif" font-size="14.00">PersonaRoutingModule</text>
</g>
<!-- PersonaRoutingModule&#45;&gt;PersonaModule -->
<g id="edge2" class="edge">
<title>PersonaRoutingModule&#45;&gt;PersonaModule</title>
<path fill="none" stroke="black" d="M149.78,-84.91C149.78,-84.91 149.78,-103.79 149.78,-103.79"/>
<polygon fill="black" stroke="black" points="146.28,-103.79 149.78,-113.79 153.28,-103.79 146.28,-103.79"/>
</g>
</g>
</svg>
