<?xml version="1.0" encoding="UTF-8" standalone="no"?>
<!DOCTYPE svg PUBLIC "-//W3C//DTD SVG 1.1//EN"
 "http://www.w3.org/Graphics/SVG/1.1/DTD/svg11.dtd">
<!-- Generated by graphviz version 2.47.3 (20210619.1520)
 -->
<!-- Title: dependencies Pages: 1 -->
<svg width="1767pt" height="174pt"
 viewBox="0.00 0.00 1767.00 173.80" xmlns="http://www.w3.org/2000/svg" xmlns:xlink="http://www.w3.org/1999/xlink">
<g id="graph0" class="graph" transform="scale(1 1) rotate(0) translate(4 169.8)">
<title>dependencies</title>
<polygon fill="white" stroke="transparent" points="-4,4 -4,-169.8 1763,-169.8 1763,4 -4,4"/>
<text text-anchor="middle" x="879.5" y="-8.2" font-family="sans-serif" font-size="14.00">dependencies</text>
<g id="clust1" class="cluster">
<title>cluster_RecursoModule</title>
<polygon fill="none" stroke="black" stroke-dasharray="1,5" points="8,-32.8 8,-157.8 1751,-157.8 1751,-32.8 8,-32.8"/>
</g>
<g id="clust2" class="cluster">
<title>cluster_RecursoModule_declarations</title>
<polygon fill="none" stroke="black" points="190,-40.8 190,-92.8 1743,-92.8 1743,-40.8 190,-40.8"/>
</g>
<g id="clust12" class="cluster">
<title>cluster_RecursoModule_imports</title>
<polygon fill="none" stroke="black" points="16,-40.8 16,-92.8 182,-92.8 182,-40.8 16,-40.8"/>
</g>
<!-- ActualizarNovedadComponent -->
<g id="node1" class="node">
<title>ActualizarNovedadComponent</title>
<polygon fill="#ffffb3" stroke="black" points="1735.17,-84.8 1544.83,-84.8 1544.83,-48.8 1735.17,-48.8 1735.17,-84.8"/>
<text text-anchor="middle" x="1640" y="-62.6" font-family="Times,serif" font-size="14.00">ActualizarNovedadComponent</text>
</g>
<!-- RecursoModule -->
<g id="node10" class="node">
<title>RecursoModule</title>
<polygon fill="#8dd3c7" stroke="black" points="898.92,-149.8 895.92,-153.8 874.92,-153.8 871.92,-149.8 793.08,-149.8 793.08,-113.8 898.92,-113.8 898.92,-149.8"/>
<text text-anchor="middle" x="846" y="-127.6" font-family="Times,serif" font-size="14.00">RecursoModule</text>
</g>
<!-- ActualizarNovedadComponent&#45;&gt;RecursoModule -->
<g id="edge1" class="edge">
<title>ActualizarNovedadComponent&#45;&gt;RecursoModule</title>
<path fill="none" stroke="black" d="M1640,-84.81C1640,-107.29 1640,-142.8 1640,-142.8 1640,-142.8 908.71,-142.8 908.71,-142.8"/>
<polygon fill="black" stroke="black" points="908.71,-139.3 898.71,-142.8 908.71,-146.3 908.71,-139.3"/>
</g>
<!-- EliminarComponent -->
<g id="node2" class="node">
<title>EliminarComponent</title>
<polygon fill="#ffffb3" stroke="black" points="1527.32,-84.8 1396.68,-84.8 1396.68,-48.8 1527.32,-48.8 1527.32,-84.8"/>
<text text-anchor="middle" x="1462" y="-62.6" font-family="Times,serif" font-size="14.00">EliminarComponent</text>
</g>
<!-- EliminarComponent&#45;&gt;RecursoModule -->
<g id="edge2" class="edge">
<title>EliminarComponent&#45;&gt;RecursoModule</title>
<path fill="none" stroke="black" d="M1462,-84.93C1462,-105.37 1462,-135.8 1462,-135.8 1462,-135.8 908.79,-135.8 908.79,-135.8"/>
<polygon fill="black" stroke="black" points="908.79,-132.3 898.79,-135.8 908.79,-139.3 908.79,-132.3"/>
</g>
<!-- InsertarFranjaComponent -->
<g id="node3" class="node">
<title>InsertarFranjaComponent</title>
<polygon fill="#ffffb3" stroke="black" points="1378.84,-84.8 1219.16,-84.8 1219.16,-48.8 1378.84,-48.8 1378.84,-84.8"/>
<text text-anchor="middle" x="1299" y="-62.6" font-family="Times,serif" font-size="14.00">InsertarFranjaComponent</text>
</g>
<!-- InsertarFranjaComponent&#45;&gt;RecursoModule -->
<g id="edge3" class="edge">
<title>InsertarFranjaComponent&#45;&gt;RecursoModule</title>
<path fill="none" stroke="black" d="M1299,-85.07C1299,-103.36 1299,-128.8 1299,-128.8 1299,-128.8 908.85,-128.8 908.85,-128.8"/>
<polygon fill="black" stroke="black" points="908.85,-125.3 898.85,-128.8 908.85,-132.3 908.85,-125.3"/>
</g>
<!-- InsertarNovedadComponent -->
<g id="node4" class="node">
<title>InsertarNovedadComponent</title>
<polygon fill="#ffffb3" stroke="black" points="1201.11,-84.8 1026.89,-84.8 1026.89,-48.8 1201.11,-48.8 1201.11,-84.8"/>
<text text-anchor="middle" x="1114" y="-62.6" font-family="Times,serif" font-size="14.00">InsertarNovedadComponent</text>
</g>
<!-- InsertarNovedadComponent&#45;&gt;RecursoModule -->
<g id="edge4" class="edge">
<title>InsertarNovedadComponent&#45;&gt;RecursoModule</title>
<path fill="none" stroke="black" d="M1114,-84.81C1114,-100.85 1114,-121.8 1114,-121.8 1114,-121.8 908.95,-121.8 908.95,-121.8"/>
<polygon fill="black" stroke="black" points="908.95,-118.3 898.95,-121.8 908.95,-125.3 908.95,-118.3"/>
</g>
<!-- ListarFranjaComponent -->
<g id="node5" class="node">
<title>ListarFranjaComponent</title>
<polygon fill="#ffffb3" stroke="black" points="1008.75,-84.8 859.25,-84.8 859.25,-48.8 1008.75,-48.8 1008.75,-84.8"/>
<text text-anchor="middle" x="934" y="-62.6" font-family="Times,serif" font-size="14.00">ListarFranjaComponent</text>
</g>
<!-- ListarFranjaComponent&#45;&gt;RecursoModule -->
<g id="edge5" class="edge">
<title>ListarFranjaComponent&#45;&gt;RecursoModule</title>
<path fill="none" stroke="black" d="M878.92,-84.91C878.92,-84.91 878.92,-103.79 878.92,-103.79"/>
<polygon fill="black" stroke="black" points="875.42,-103.79 878.92,-113.79 882.42,-103.79 875.42,-103.79"/>
</g>
<!-- ListarNovedadComponent -->
<g id="node6" class="node">
<title>ListarNovedadComponent</title>
<polygon fill="#ffffb3" stroke="black" points="841.02,-84.8 676.98,-84.8 676.98,-48.8 841.02,-48.8 841.02,-84.8"/>
<text text-anchor="middle" x="759" y="-62.6" font-family="Times,serif" font-size="14.00">ListarNovedadComponent</text>
</g>
<!-- ListarNovedadComponent&#45;&gt;RecursoModule -->
<g id="edge6" class="edge">
<title>ListarNovedadComponent&#45;&gt;RecursoModule</title>
<path fill="none" stroke="black" d="M817.28,-84.91C817.28,-84.91 817.28,-103.79 817.28,-103.79"/>
<polygon fill="black" stroke="black" points="813.78,-103.79 817.28,-113.79 820.78,-103.79 813.78,-103.79"/>
</g>
<!-- VerEquipoComponent -->
<g id="node7" class="node">
<title>VerEquipoComponent</title>
<polygon fill="#ffffb3" stroke="black" points="658.26,-84.8 515.74,-84.8 515.74,-48.8 658.26,-48.8 658.26,-84.8"/>
<text text-anchor="middle" x="587" y="-62.6" font-family="Times,serif" font-size="14.00">VerEquipoComponent</text>
</g>
<!-- VerEquipoComponent&#45;&gt;RecursoModule -->
<g id="edge7" class="edge">
<title>VerEquipoComponent&#45;&gt;RecursoModule</title>
<path fill="none" stroke="black" d="M587,-84.81C587,-100.85 587,-121.8 587,-121.8 587,-121.8 783.28,-121.8 783.28,-121.8"/>
<polygon fill="black" stroke="black" points="783.28,-125.3 793.28,-121.8 783.28,-118.3 783.28,-125.3"/>
</g>
<!-- VerLugarComponent -->
<g id="node8" class="node">
<title>VerLugarComponent</title>
<polygon fill="#ffffb3" stroke="black" points="497.74,-84.8 362.26,-84.8 362.26,-48.8 497.74,-48.8 497.74,-84.8"/>
<text text-anchor="middle" x="430" y="-62.6" font-family="Times,serif" font-size="14.00">VerLugarComponent</text>
</g>
<!-- VerLugarComponent&#45;&gt;RecursoModule -->
<g id="edge8" class="edge">
<title>VerLugarComponent&#45;&gt;RecursoModule</title>
<path fill="none" stroke="black" d="M430,-85.07C430,-103.36 430,-128.8 430,-128.8 430,-128.8 782.89,-128.8 782.89,-128.8"/>
<polygon fill="black" stroke="black" points="782.89,-132.3 792.89,-128.8 782.89,-125.3 782.89,-132.3"/>
</g>
<!-- VerPersonaComponent -->
<g id="node9" class="node">
<title>VerPersonaComponent</title>
<polygon fill="#ffffb3" stroke="black" points="344.13,-84.8 197.87,-84.8 197.87,-48.8 344.13,-48.8 344.13,-84.8"/>
<text text-anchor="middle" x="271" y="-62.6" font-family="Times,serif" font-size="14.00">VerPersonaComponent</text>
</g>
<!-- VerPersonaComponent&#45;&gt;RecursoModule -->
<g id="edge9" class="edge">
<title>VerPersonaComponent&#45;&gt;RecursoModule</title>
<path fill="none" stroke="black" d="M271,-84.93C271,-105.37 271,-135.8 271,-135.8 271,-135.8 783.19,-135.8 783.19,-135.8"/>
<polygon fill="black" stroke="black" points="783.19,-139.3 793.19,-135.8 783.19,-132.3 783.19,-139.3"/>
</g>
<!-- RecursoRoutingModule -->
<g id="node11" class="node">
<title>RecursoRoutingModule</title>
<polygon fill="#8dd3c7" stroke="black" points="174.04,-84.8 171.04,-88.8 150.04,-88.8 147.04,-84.8 23.96,-84.8 23.96,-48.8 174.04,-48.8 174.04,-84.8"/>
<text text-anchor="middle" x="99" y="-62.6" font-family="Times,serif" font-size="14.00">RecursoRoutingModule</text>
</g>
<!-- RecursoRoutingModule&#45;&gt;RecursoModule -->
<g id="edge10" class="edge">
<title>RecursoRoutingModule&#45;&gt;RecursoModule</title>
<path fill="none" stroke="black" d="M99,-84.81C99,-107.29 99,-142.8 99,-142.8 99,-142.8 783.17,-142.8 783.17,-142.8"/>
<polygon fill="black" stroke="black" points="783.17,-146.3 793.17,-142.8 783.17,-139.3 783.17,-146.3"/>
</g>
</g>
</svg>
