<?xml version="1.0" encoding="UTF-8" standalone="no"?>
<!DOCTYPE svg PUBLIC "-//W3C//DTD SVG 1.1//EN"
 "http://www.w3.org/Graphics/SVG/1.1/DTD/svg11.dtd">
<!-- Generated by graphviz version 2.47.3 (20210619.1520)
 -->
<!-- Title: dependencies Pages: 1 -->
<svg width="390pt" height="174pt"
 viewBox="0.00 0.00 390.00 173.80" xmlns="http://www.w3.org/2000/svg" xmlns:xlink="http://www.w3.org/1999/xlink">
<g id="graph0" class="graph" transform="scale(1 1) rotate(0) translate(4 169.8)">
<title>dependencies</title>
<polygon fill="white" stroke="transparent" points="-4,4 -4,-169.8 386,-169.8 386,4 -4,4"/>
<text text-anchor="middle" x="191" y="-8.2" font-family="sans-serif" font-size="14.00">dependencies</text>
<g id="clust1" class="cluster">
<title>cluster_VisorFotosModule</title>
<polygon fill="none" stroke="black" stroke-dasharray="1,5" points="8,-32.8 8,-157.8 374,-157.8 374,-32.8 8,-32.8"/>
</g>
<g id="clust2" class="cluster">
<title>cluster_VisorFotosModule_declarations</title>
<polygon fill="none" stroke="black" points="206,-40.8 206,-92.8 366,-92.8 366,-40.8 206,-40.8"/>
</g>
<g id="clust4" class="cluster">
<title>cluster_VisorFotosModule_imports</title>
<polygon fill="none" stroke="black" points="16,-40.8 16,-92.8 198,-92.8 198,-40.8 16,-40.8"/>
</g>
<!-- VisorFotosComponent -->
<g id="node1" class="node">
<title>VisorFotosComponent</title>
<polygon fill="#ffffb3" stroke="black" points="357.55,-84.8 214.45,-84.8 214.45,-48.8 357.55,-48.8 357.55,-84.8"/>
<text text-anchor="middle" x="286" y="-62.6" font-family="Times,serif" font-size="14.00">VisorFotosComponent</text>
</g>
<!-- VisorFotosModule -->
<g id="node2" class="node">
<title>VisorFotosModule</title>
<polygon fill="#8dd3c7" stroke="black" points="256.77,-149.8 253.77,-153.8 232.77,-153.8 229.77,-149.8 135.23,-149.8 135.23,-113.8 256.77,-113.8 256.77,-149.8"/>
<text text-anchor="middle" x="196" y="-127.6" font-family="Times,serif" font-size="14.00">VisorFotosModule</text>
</g>
<!-- VisorFotosComponent&#45;&gt;VisorFotosModule -->
<g id="edge1" class="edge">
<title>VisorFotosComponent&#45;&gt;VisorFotosModule</title>
<path fill="none" stroke="black" d="M235.55,-84.91C235.55,-84.91 235.55,-103.79 235.55,-103.79"/>
<polygon fill="black" stroke="black" points="232.05,-103.79 235.55,-113.79 239.05,-103.79 232.05,-103.79"/>
</g>
<!-- VisorFotosRoutingModule -->
<g id="node3" class="node">
<title>VisorFotosRoutingModule</title>
<polygon fill="#8dd3c7" stroke="black" points="190.39,-84.8 187.39,-88.8 166.39,-88.8 163.39,-84.8 23.61,-84.8 23.61,-48.8 190.39,-48.8 190.39,-84.8"/>
<text text-anchor="middle" x="107" y="-62.6" font-family="Times,serif" font-size="14.00">VisorFotosRoutingModule</text>
</g>
<!-- VisorFotosRoutingModule&#45;&gt;VisorFotosModule -->
<g id="edge2" class="edge">
<title>VisorFotosRoutingModule&#45;&gt;VisorFotosModule</title>
<path fill="none" stroke="black" d="M162.78,-84.91C162.78,-84.91 162.78,-103.79 162.78,-103.79"/>
<polygon fill="black" stroke="black" points="159.28,-103.79 162.78,-113.79 166.28,-103.79 159.28,-103.79"/>
</g>
</g>
</svg>
