<?xml version="1.0" encoding="UTF-8" standalone="no"?>
<!DOCTYPE svg PUBLIC "-//W3C//DTD SVG 1.1//EN"
 "http://www.w3.org/Graphics/SVG/1.1/DTD/svg11.dtd">
<!-- Generated by graphviz version 2.47.3 (20210619.1520)
 -->
<!-- Title: dependencies Pages: 1 -->
<svg width="3479pt" height="312pt"
 viewBox="0.00 0.00 3479.00 311.80" xmlns="http://www.w3.org/2000/svg" xmlns:xlink="http://www.w3.org/1999/xlink">
<g id="graph0" class="graph" transform="scale(1 1) rotate(0) translate(4 307.8)">
<title>dependencies</title>
<polygon fill="white" stroke="transparent" points="-4,4 -4,-307.8 3475,-307.8 3475,4 -4,4"/>
<text text-anchor="middle" x="1735.5" y="-8.2" font-family="sans-serif" font-size="14.00">dependencies</text>
<g id="clust1" class="cluster">
<title>cluster_AppModule</title>
<polygon fill="none" stroke="black" stroke-dasharray="1,5" points="8,-32.8 8,-295.8 3463,-295.8 3463,-32.8 8,-32.8"/>
</g>
<g id="clust16" class="cluster">
<title>cluster_AppModule_providers</title>
<polygon fill="none" stroke="black" points="3131,-105.8 3131,-157.8 3455,-157.8 3455,-105.8 3131,-105.8"/>
</g>
<g id="clust15" class="cluster">
<title>cluster_AppModule_bootstrap</title>
<polygon fill="none" stroke="black" points="1239,-235.8 1239,-287.8 1363,-287.8 1363,-235.8 1239,-235.8"/>
</g>
<g id="clust3" class="cluster">
<title>cluster_AppModule_AppComponent_providers</title>
<polygon fill="none" stroke="black" points="1813,-40.8 1813,-157.8 3123,-157.8 3123,-40.8 1813,-40.8"/>
</g>
<g id="clust13" class="cluster">
<title>cluster_AppModule_imports</title>
<polygon fill="none" stroke="black" points="1544,-105.8 1544,-157.8 1805,-157.8 1805,-105.8 1544,-105.8"/>
</g>
<g id="clust2" class="cluster">
<title>cluster_AppModule_declarations</title>
<polygon fill="none" stroke="black" points="16,-105.8 16,-157.8 1536,-157.8 1536,-105.8 16,-105.8"/>
</g>
<!-- AppComponent -->
<g id="node1" class="node">
<title>AppComponent</title>
<polygon fill="#ffffb3" stroke="black" points="2147.94,-149.8 2042.06,-149.8 2042.06,-113.8 2147.94,-113.8 2147.94,-149.8"/>
<text text-anchor="middle" x="2095" y="-127.6" font-family="Times,serif" font-size="14.00">AppComponent</text>
</g>
<!-- AppModule -->
<g id="node11" class="node">
<title>AppModule</title>
<polygon fill="#8dd3c7" stroke="black" points="1342.66,-214.8 1339.66,-218.8 1318.66,-218.8 1315.66,-214.8 1259.34,-214.8 1259.34,-178.8 1342.66,-178.8 1342.66,-214.8"/>
<text text-anchor="middle" x="1301" y="-192.6" font-family="Times,serif" font-size="14.00">AppModule</text>
</g>
<!-- AppComponent&#45;&gt;AppModule -->
<g id="edge1" class="edge">
<title>AppComponent&#45;&gt;AppModule</title>
<path fill="none" stroke="black" d="M2095,-149.91C2095,-169.14 2095,-196.8 2095,-196.8 2095,-196.8 1352.85,-196.8 1352.85,-196.8"/>
<polygon fill="black" stroke="black" points="1352.85,-193.3 1342.85,-196.8 1352.85,-200.3 1352.85,-193.3"/>
</g>
<!-- DashboardComponent -->
<g id="node2" class="node">
<title>DashboardComponent</title>
<polygon fill="#ffffb3" stroke="black" points="1527.97,-149.8 1386.03,-149.8 1386.03,-113.8 1527.97,-113.8 1527.97,-149.8"/>
<text text-anchor="middle" x="1457" y="-127.6" font-family="Times,serif" font-size="14.00">DashboardComponent</text>
</g>
<!-- DashboardComponent&#45;&gt;AppModule -->
<g id="edge4" class="edge">
<title>DashboardComponent&#45;&gt;AppModule</title>
<path fill="none" stroke="black" d="M1457,-149.99C1457,-164.98 1457,-183.8 1457,-183.8 1457,-183.8 1352.81,-183.8 1352.81,-183.8"/>
<polygon fill="black" stroke="black" points="1352.81,-180.3 1342.81,-183.8 1352.81,-187.3 1352.81,-180.3"/>
</g>
<!-- EnEsperaComponent -->
<g id="node3" class="node">
<title>EnEsperaComponent</title>
<polygon fill="#ffffb3" stroke="black" points="1368.47,-149.8 1233.53,-149.8 1233.53,-113.8 1368.47,-113.8 1368.47,-149.8"/>
<text text-anchor="middle" x="1301" y="-127.6" font-family="Times,serif" font-size="14.00">EnEsperaComponent</text>
</g>
<!-- EnEsperaComponent&#45;&gt;AppModule -->
<g id="edge5" class="edge">
<title>EnEsperaComponent&#45;&gt;AppModule</title>
<path fill="none" stroke="black" d="M1301,-149.91C1301,-149.91 1301,-168.79 1301,-168.79"/>
<polygon fill="black" stroke="black" points="1297.5,-168.79 1301,-178.79 1304.5,-168.79 1297.5,-168.79"/>
</g>
<!-- LoginComponent -->
<g id="node4" class="node">
<title>LoginComponent</title>
<polygon fill="#ffffb3" stroke="black" points="1215.28,-149.8 1100.72,-149.8 1100.72,-113.8 1215.28,-113.8 1215.28,-149.8"/>
<text text-anchor="middle" x="1158" y="-127.6" font-family="Times,serif" font-size="14.00">LoginComponent</text>
</g>
<!-- LoginComponent&#45;&gt;AppModule -->
<g id="edge6" class="edge">
<title>LoginComponent&#45;&gt;AppModule</title>
<path fill="none" stroke="black" d="M1158,-149.99C1158,-164.98 1158,-183.8 1158,-183.8 1158,-183.8 1249.25,-183.8 1249.25,-183.8"/>
<polygon fill="black" stroke="black" points="1249.25,-187.3 1259.25,-183.8 1249.25,-180.3 1249.25,-187.3"/>
</g>
<!-- MenuItemComponent -->
<g id="node5" class="node">
<title>MenuItemComponent</title>
<polygon fill="#ffffb3" stroke="black" points="1082.65,-149.8 943.35,-149.8 943.35,-113.8 1082.65,-113.8 1082.65,-149.8"/>
<text text-anchor="middle" x="1013" y="-127.6" font-family="Times,serif" font-size="14.00">MenuItemComponent</text>
</g>
<!-- MenuItemComponent&#45;&gt;AppModule -->
<g id="edge7" class="edge">
<title>MenuItemComponent&#45;&gt;AppModule</title>
<path fill="none" stroke="black" d="M1013,-149.83C1013,-166.2 1013,-187.8 1013,-187.8 1013,-187.8 1249.12,-187.8 1249.12,-187.8"/>
<polygon fill="black" stroke="black" points="1249.12,-191.3 1259.12,-187.8 1249.12,-184.3 1249.12,-191.3"/>
</g>
<!-- NotAuthorizedComponent -->
<g id="node6" class="node">
<title>NotAuthorizedComponent</title>
<polygon fill="#ffffb3" stroke="black" points="925.81,-149.8 760.19,-149.8 760.19,-113.8 925.81,-113.8 925.81,-149.8"/>
<text text-anchor="middle" x="843" y="-127.6" font-family="Times,serif" font-size="14.00">NotAuthorizedComponent</text>
</g>
<!-- NotAuthorizedComponent&#45;&gt;AppModule -->
<g id="edge8" class="edge">
<title>NotAuthorizedComponent&#45;&gt;AppModule</title>
<path fill="none" stroke="black" d="M843,-150.1C843,-168.07 843,-192.8 843,-192.8 843,-192.8 1249.14,-192.8 1249.14,-192.8"/>
<polygon fill="black" stroke="black" points="1249.14,-196.3 1259.14,-192.8 1249.14,-189.3 1249.14,-196.3"/>
</g>
<!-- NotFoundComponent -->
<g id="node7" class="node">
<title>NotFoundComponent</title>
<polygon fill="#ffffb3" stroke="black" points="742.11,-149.8 603.89,-149.8 603.89,-113.8 742.11,-113.8 742.11,-149.8"/>
<text text-anchor="middle" x="673" y="-127.6" font-family="Times,serif" font-size="14.00">NotFoundComponent</text>
</g>
<!-- NotFoundComponent&#45;&gt;AppModule -->
<g id="edge9" class="edge">
<title>NotFoundComponent&#45;&gt;AppModule</title>
<path fill="none" stroke="black" d="M673,-149.91C673,-169.14 673,-196.8 673,-196.8 673,-196.8 1249.31,-196.8 1249.31,-196.8"/>
<polygon fill="black" stroke="black" points="1249.31,-200.3 1259.31,-196.8 1249.31,-193.3 1249.31,-200.3"/>
</g>
<!-- RevisionVisitaDiagnosticoComponent -->
<g id="node8" class="node">
<title>RevisionVisitaDiagnosticoComponent</title>
<polygon fill="#ffffb3" stroke="black" points="586.2,-149.8 353.8,-149.8 353.8,-113.8 586.2,-113.8 586.2,-149.8"/>
<text text-anchor="middle" x="470" y="-127.6" font-family="Times,serif" font-size="14.00">RevisionVisitaDiagnosticoComponent</text>
</g>
<!-- RevisionVisitaDiagnosticoComponent&#45;&gt;AppModule -->
<g id="edge10" class="edge">
<title>RevisionVisitaDiagnosticoComponent&#45;&gt;AppModule</title>
<path fill="none" stroke="black" d="M470,-149.83C470,-170.57 470,-201.8 470,-201.8 470,-201.8 1249.22,-201.8 1249.22,-201.8"/>
<polygon fill="black" stroke="black" points="1249.22,-205.3 1259.22,-201.8 1249.22,-198.3 1249.22,-205.3"/>
</g>
<!-- SimpleDialogComponent -->
<g id="node9" class="node">
<title>SimpleDialogComponent</title>
<polygon fill="#ffffb3" stroke="black" points="335.6,-149.8 176.4,-149.8 176.4,-113.8 335.6,-113.8 335.6,-149.8"/>
<text text-anchor="middle" x="256" y="-127.6" font-family="Times,serif" font-size="14.00">SimpleDialogComponent</text>
</g>
<!-- SimpleDialogComponent&#45;&gt;AppModule -->
<g id="edge11" class="edge">
<title>SimpleDialogComponent&#45;&gt;AppModule</title>
<path fill="none" stroke="black" d="M256,-150.09C256,-172.01 256,-205.8 256,-205.8 256,-205.8 1249.07,-205.8 1249.07,-205.8"/>
<polygon fill="black" stroke="black" points="1249.07,-209.3 1259.07,-205.8 1249.07,-202.3 1249.07,-209.3"/>
</g>
<!-- WelcomeComponent -->
<g id="node10" class="node">
<title>WelcomeComponent</title>
<polygon fill="#ffffb3" stroke="black" points="158.47,-149.8 23.53,-149.8 23.53,-113.8 158.47,-113.8 158.47,-149.8"/>
<text text-anchor="middle" x="91" y="-127.6" font-family="Times,serif" font-size="14.00">WelcomeComponent</text>
</g>
<!-- WelcomeComponent&#45;&gt;AppModule -->
<g id="edge12" class="edge">
<title>WelcomeComponent&#45;&gt;AppModule</title>
<path fill="none" stroke="black" d="M91,-150.12C91,-173.46 91,-210.8 91,-210.8 91,-210.8 1249,-210.8 1249,-210.8"/>
<polygon fill="black" stroke="black" points="1249,-214.3 1259,-210.8 1249,-207.3 1249,-214.3"/>
</g>
<!-- AppComponent  -->
<g id="node16" class="node">
<title>AppComponent </title>
<polygon fill="#80b1d3" stroke="black" points="1355.44,-279.8 1246.56,-279.8 1246.56,-243.8 1355.44,-243.8 1355.44,-279.8"/>
<text text-anchor="middle" x="1301" y="-257.6" font-family="Times,serif" font-size="14.00">AppComponent </text>
</g>
<!-- AppModule&#45;&gt;AppComponent  -->
<g id="edge15" class="edge">
<title>AppModule&#45;&gt;AppComponent </title>
<path fill="none" stroke="black" stroke-dasharray="1,5" d="M1301,-214.91C1301,-214.91 1301,-233.79 1301,-233.79"/>
<polygon fill="black" stroke="black" points="1297.5,-233.79 1301,-243.79 1304.5,-233.79 1297.5,-233.79"/>
</g>
<!-- { provide: DateAdapter, useClass: MomentDateAdapter, deps: [MAT_DATE_LOCALE] } -->
<g id="node12" class="node">
<title>{ provide: DateAdapter, useClass: MomentDateAdapter, deps: [MAT_DATE_LOCALE] }</title>
<ellipse fill="#fdb462" stroke="black" cx="2751" cy="-66.8" rx="363.64" ry="18"/>
<text text-anchor="middle" x="2751" y="-62.6" font-family="Times,serif" font-size="14.00">{ provide: DateAdapter, useClass: MomentDateAdapter, deps: [MAT_DATE_LOCALE] }</text>
</g>
<!-- { provide: DateAdapter, useClass: MomentDateAdapter, deps: [MAT_DATE_LOCALE] }&#45;&gt;AppComponent -->
<g id="edge2" class="edge">
<title>{ provide: DateAdapter, useClass: MomentDateAdapter, deps: [MAT_DATE_LOCALE] }&#45;&gt;AppComponent</title>
<path fill="none" stroke="black" d="M2751,-84.91C2751,-104.14 2751,-131.8 2751,-131.8 2751,-131.8 2157.85,-131.8 2157.85,-131.8"/>
<polygon fill="black" stroke="black" points="2157.85,-128.3 2147.85,-131.8 2157.85,-135.3 2157.85,-128.3"/>
</g>
<!-- { provide: MAT_DATE_FORMATS, useValue: MY_FORMATS } -->
<g id="node13" class="node">
<title>{ provide: MAT_DATE_FORMATS, useValue: MY_FORMATS }</title>
<ellipse fill="#fdb462" stroke="black" cx="2095" cy="-66.8" rx="274.06" ry="18"/>
<text text-anchor="middle" x="2095" y="-62.6" font-family="Times,serif" font-size="14.00">{ provide: MAT_DATE_FORMATS, useValue: MY_FORMATS }</text>
</g>
<!-- { provide: MAT_DATE_FORMATS, useValue: MY_FORMATS }&#45;&gt;AppComponent -->
<g id="edge3" class="edge">
<title>{ provide: MAT_DATE_FORMATS, useValue: MY_FORMATS }&#45;&gt;AppComponent</title>
<path fill="none" stroke="black" d="M2095,-84.91C2095,-84.91 2095,-103.79 2095,-103.79"/>
<polygon fill="black" stroke="black" points="2091.5,-103.79 2095,-113.79 2098.5,-103.79 2091.5,-103.79"/>
</g>
<!-- AppRoutingModule -->
<g id="node14" class="node">
<title>AppRoutingModule</title>
<polygon fill="#8dd3c7" stroke="black" points="1797.27,-149.8 1794.27,-153.8 1773.27,-153.8 1770.27,-149.8 1668.73,-149.8 1668.73,-113.8 1797.27,-113.8 1797.27,-149.8"/>
<text text-anchor="middle" x="1733" y="-127.6" font-family="Times,serif" font-size="14.00">AppRoutingModule</text>
</g>
<!-- AppRoutingModule&#45;&gt;AppModule -->
<g id="edge13" class="edge">
<title>AppRoutingModule&#45;&gt;AppModule</title>
<path fill="none" stroke="black" d="M1733,-150.1C1733,-168.07 1733,-192.8 1733,-192.8 1733,-192.8 1352.81,-192.8 1352.81,-192.8"/>
<polygon fill="black" stroke="black" points="1352.81,-189.3 1342.81,-192.8 1352.81,-196.3 1352.81,-189.3"/>
</g>
<!-- SharedModule -->
<g id="node15" class="node">
<title>SharedModule</title>
<polygon fill="#8dd3c7" stroke="black" points="1650.42,-149.8 1647.42,-153.8 1626.42,-153.8 1623.42,-149.8 1551.58,-149.8 1551.58,-113.8 1650.42,-113.8 1650.42,-149.8"/>
<text text-anchor="middle" x="1601" y="-127.6" font-family="Times,serif" font-size="14.00">SharedModule</text>
</g>
<!-- SharedModule&#45;&gt;AppModule -->
<g id="edge14" class="edge">
<title>SharedModule&#45;&gt;AppModule</title>
<path fill="none" stroke="black" d="M1601,-149.83C1601,-166.2 1601,-187.8 1601,-187.8 1601,-187.8 1352.71,-187.8 1352.71,-187.8"/>
<polygon fill="black" stroke="black" points="1352.71,-184.3 1342.71,-187.8 1352.71,-191.3 1352.71,-184.3"/>
</g>
<!-- AuthInterceptor -->
<g id="node17" class="node">
<title>AuthInterceptor</title>
<ellipse fill="#fdb462" stroke="black" cx="3374" cy="-131.8" rx="72.91" ry="18"/>
<text text-anchor="middle" x="3374" y="-127.6" font-family="Times,serif" font-size="14.00">AuthInterceptor</text>
</g>
<!-- AuthInterceptor&#45;&gt;AppModule -->
<g id="edge16" class="edge">
<title>AuthInterceptor&#45;&gt;AppModule</title>
<path fill="none" stroke="black" d="M3398.24,-148.94C3398.24,-172.18 3398.24,-210.8 3398.24,-210.8 3398.24,-210.8 1352.89,-210.8 1352.89,-210.8"/>
<polygon fill="black" stroke="black" points="1352.89,-207.3 1342.89,-210.8 1352.89,-214.3 1352.89,-207.3"/>
</g>
<!-- AuthInterceptor&#45;&gt;AppModule -->
<g id="edge17" class="edge">
<title>AuthInterceptor&#45;&gt;AppModule</title>
<path fill="none" stroke="black" d="M3349.76,-148.96C3349.76,-170.82 3349.76,-205.8 3349.76,-205.8 3349.76,-205.8 1352.85,-205.8 1352.85,-205.8"/>
<polygon fill="black" stroke="black" points="1352.85,-202.3 1342.85,-205.8 1352.85,-209.3 1352.85,-202.3"/>
</g>
<!-- SecurityService -->
<g id="node18" class="node">
<title>SecurityService</title>
<ellipse fill="#fdb462" stroke="black" cx="3211" cy="-131.8" rx="72.35" ry="18"/>
<text text-anchor="middle" x="3211" y="-127.6" font-family="Times,serif" font-size="14.00">SecurityService</text>
</g>
<!-- SecurityService&#45;&gt;AppModule -->
<g id="edge18" class="edge">
<title>SecurityService&#45;&gt;AppModule</title>
<path fill="none" stroke="black" d="M3211,-149.83C3211,-170.57 3211,-201.8 3211,-201.8 3211,-201.8 1352.67,-201.8 1352.67,-201.8"/>
<polygon fill="black" stroke="black" points="1352.67,-198.3 1342.67,-201.8 1352.67,-205.3 1352.67,-198.3"/>
</g>
</g>
</svg>
