<?xml version="1.0" encoding="UTF-8" standalone="no"?>
<!DOCTYPE svg PUBLIC "-//W3C//DTD SVG 1.1//EN"
 "http://www.w3.org/Graphics/SVG/1.1/DTD/svg11.dtd">
<!-- Generated by graphviz version 2.47.3 (20210619.1520)
 -->
<!-- Title: dependencies Pages: 1 -->
<svg width="1333pt" height="174pt"
 viewBox="0.00 0.00 1333.00 173.80" xmlns="http://www.w3.org/2000/svg" xmlns:xlink="http://www.w3.org/1999/xlink">
<g id="graph0" class="graph" transform="scale(1 1) rotate(0) translate(4 169.8)">
<title>dependencies</title>
<polygon fill="white" stroke="transparent" points="-4,4 -4,-169.8 1329,-169.8 1329,4 -4,4"/>
<text text-anchor="middle" x="662.5" y="-8.2" font-family="sans-serif" font-size="14.00">dependencies</text>
<g id="clust1" class="cluster">
<title>cluster_ConsultasMejoramientoModule</title>
<polygon fill="none" stroke="black" stroke-dasharray="1,5" points="8,-32.8 8,-157.8 1317,-157.8 1317,-32.8 8,-32.8"/>
</g>
<g id="clust7" class="cluster">
<title>cluster_ConsultasMejoramientoModule_imports</title>
<polygon fill="none" stroke="black" points="937,-40.8 937,-92.8 1309,-92.8 1309,-40.8 937,-40.8"/>
</g>
<g id="clust2" class="cluster">
<title>cluster_ConsultasMejoramientoModule_declarations</title>
<polygon fill="none" stroke="black" points="16,-40.8 16,-92.8 929,-92.8 929,-40.8 16,-40.8"/>
</g>
<!-- ConsultaGeneralGestionComponent -->
<g id="node1" class="node">
<title>ConsultaGeneralGestionComponent</title>
<polygon fill="#ffffb3" stroke="black" points="921.46,-84.8 702.54,-84.8 702.54,-48.8 921.46,-48.8 921.46,-84.8"/>
<text text-anchor="middle" x="812" y="-62.6" font-family="Times,serif" font-size="14.00">ConsultaGeneralGestionComponent</text>
</g>
<!-- ConsultasMejoramientoModule -->
<g id="node5" class="node">
<title>ConsultasMejoramientoModule</title>
<polygon fill="#8dd3c7" stroke="black" points="800.08,-149.8 797.08,-153.8 776.08,-153.8 773.08,-149.8 605.92,-149.8 605.92,-113.8 800.08,-113.8 800.08,-149.8"/>
<text text-anchor="middle" x="703" y="-127.6" font-family="Times,serif" font-size="14.00">ConsultasMejoramientoModule</text>
</g>
<!-- ConsultaGeneralGestionComponent&#45;&gt;ConsultasMejoramientoModule -->
<g id="edge1" class="edge">
<title>ConsultaGeneralGestionComponent&#45;&gt;ConsultasMejoramientoModule</title>
<path fill="none" stroke="black" d="M751.28,-84.91C751.28,-84.91 751.28,-103.79 751.28,-103.79"/>
<polygon fill="black" stroke="black" points="747.78,-103.79 751.28,-113.79 754.78,-103.79 747.78,-103.79"/>
</g>
<!-- ConsultaHistorialComponent -->
<g id="node2" class="node">
<title>ConsultaHistorialComponent</title>
<polygon fill="#ffffb3" stroke="black" points="684.1,-84.8 503.9,-84.8 503.9,-48.8 684.1,-48.8 684.1,-84.8"/>
<text text-anchor="middle" x="594" y="-62.6" font-family="Times,serif" font-size="14.00">ConsultaHistorialComponent</text>
</g>
<!-- ConsultaHistorialComponent&#45;&gt;ConsultasMejoramientoModule -->
<g id="edge2" class="edge">
<title>ConsultaHistorialComponent&#45;&gt;ConsultasMejoramientoModule</title>
<path fill="none" stroke="black" d="M645,-84.91C645,-84.91 645,-103.79 645,-103.79"/>
<polygon fill="black" stroke="black" points="641.5,-103.79 645,-113.79 648.5,-103.79 641.5,-103.79"/>
</g>
<!-- ConsultasMejoramientoComponent -->
<g id="node3" class="node">
<title>ConsultasMejoramientoComponent</title>
<polygon fill="#ffffb3" stroke="black" points="485.87,-84.8 270.13,-84.8 270.13,-48.8 485.87,-48.8 485.87,-84.8"/>
<text text-anchor="middle" x="378" y="-62.6" font-family="Times,serif" font-size="14.00">ConsultasMejoramientoComponent</text>
</g>
<!-- ConsultasMejoramientoComponent&#45;&gt;ConsultasMejoramientoModule -->
<g id="edge3" class="edge">
<title>ConsultasMejoramientoComponent&#45;&gt;ConsultasMejoramientoModule</title>
<path fill="none" stroke="black" d="M378,-84.82C378,-102.17 378,-125.8 378,-125.8 378,-125.8 595.93,-125.8 595.93,-125.8"/>
<polygon fill="black" stroke="black" points="595.93,-129.3 605.93,-125.8 595.93,-122.3 595.93,-129.3"/>
</g>
<!-- VerDetalleMantenimientoComponent -->
<g id="node4" class="node">
<title>VerDetalleMantenimientoComponent</title>
<polygon fill="#ffffb3" stroke="black" points="252.28,-84.8 23.72,-84.8 23.72,-48.8 252.28,-48.8 252.28,-84.8"/>
<text text-anchor="middle" x="138" y="-62.6" font-family="Times,serif" font-size="14.00">VerDetalleMantenimientoComponent</text>
</g>
<!-- VerDetalleMantenimientoComponent&#45;&gt;ConsultasMejoramientoModule -->
<g id="edge4" class="edge">
<title>VerDetalleMantenimientoComponent&#45;&gt;ConsultasMejoramientoModule</title>
<path fill="none" stroke="black" d="M138,-85.08C138,-106.12 138,-137.8 138,-137.8 138,-137.8 595.87,-137.8 595.87,-137.8"/>
<polygon fill="black" stroke="black" points="595.87,-141.3 605.87,-137.8 595.87,-134.3 595.87,-141.3"/>
</g>
<!-- ConsultasMejoramientoRoutingModule -->
<g id="node6" class="node">
<title>ConsultasMejoramientoRoutingModule</title>
<polygon fill="#8dd3c7" stroke="black" points="1300.7,-84.8 1297.7,-88.8 1276.7,-88.8 1273.7,-84.8 1061.3,-84.8 1061.3,-48.8 1300.7,-48.8 1300.7,-84.8"/>
<text text-anchor="middle" x="1181" y="-62.6" font-family="Times,serif" font-size="14.00">ConsultasMejoramientoRoutingModule</text>
</g>
<!-- ConsultasMejoramientoRoutingModule&#45;&gt;ConsultasMejoramientoModule -->
<g id="edge5" class="edge">
<title>ConsultasMejoramientoRoutingModule&#45;&gt;ConsultasMejoramientoModule</title>
<path fill="none" stroke="black" d="M1181,-85.08C1181,-106.12 1181,-137.8 1181,-137.8 1181,-137.8 810.31,-137.8 810.31,-137.8"/>
<polygon fill="black" stroke="black" points="810.31,-134.3 800.31,-137.8 810.31,-141.3 810.31,-134.3"/>
</g>
<!-- SharedModule -->
<g id="node7" class="node">
<title>SharedModule</title>
<polygon fill="#8dd3c7" stroke="black" points="1043.42,-84.8 1040.42,-88.8 1019.42,-88.8 1016.42,-84.8 944.58,-84.8 944.58,-48.8 1043.42,-48.8 1043.42,-84.8"/>
<text text-anchor="middle" x="994" y="-62.6" font-family="Times,serif" font-size="14.00">SharedModule</text>
</g>
<!-- SharedModule&#45;&gt;ConsultasMejoramientoModule -->
<g id="edge6" class="edge">
<title>SharedModule&#45;&gt;ConsultasMejoramientoModule</title>
<path fill="none" stroke="black" d="M994,-84.82C994,-102.17 994,-125.8 994,-125.8 994,-125.8 810.3,-125.8 810.3,-125.8"/>
<polygon fill="black" stroke="black" points="810.3,-122.3 800.3,-125.8 810.3,-129.3 810.3,-122.3"/>
</g>
</g>
</svg>
