<?xml version="1.0" encoding="UTF-8" standalone="no"?>
<!DOCTYPE svg PUBLIC "-//W3C//DTD SVG 1.1//EN"
 "http://www.w3.org/Graphics/SVG/1.1/DTD/svg11.dtd">
<!-- Generated by graphviz version 2.47.3 (20210619.1520)
 -->
<!-- Title: dependencies Pages: 1 -->
<svg width="1616pt" height="174pt"
 viewBox="0.00 0.00 1616.00 173.80" xmlns="http://www.w3.org/2000/svg" xmlns:xlink="http://www.w3.org/1999/xlink">
<g id="graph0" class="graph" transform="scale(1 1) rotate(0) translate(4 169.8)">
<title>dependencies</title>
<polygon fill="white" stroke="transparent" points="-4,4 -4,-169.8 1612,-169.8 1612,4 -4,4"/>
<text text-anchor="middle" x="804" y="-8.2" font-family="sans-serif" font-size="14.00">dependencies</text>
<g id="clust1" class="cluster">
<title>cluster_ApiquesAforosModule</title>
<polygon fill="none" stroke="black" stroke-dasharray="1,5" points="8,-32.8 8,-157.8 1600,-157.8 1600,-32.8 8,-32.8"/>
</g>
<g id="clust2" class="cluster">
<title>cluster_ApiquesAforosModule_declarations</title>
<polygon fill="none" stroke="black" points="346,-40.8 346,-92.8 1592,-92.8 1592,-40.8 346,-40.8"/>
</g>
<g id="clust9" class="cluster">
<title>cluster_ApiquesAforosModule_imports</title>
<polygon fill="none" stroke="black" points="16,-40.8 16,-92.8 338,-92.8 338,-40.8 16,-40.8"/>
</g>
<!-- ApiquesAforosComponent -->
<g id="node1" class="node">
<title>ApiquesAforosComponent</title>
<polygon fill="#ffffb3" stroke="black" points="1584.36,-84.8 1417.64,-84.8 1417.64,-48.8 1584.36,-48.8 1584.36,-84.8"/>
<text text-anchor="middle" x="1501" y="-62.6" font-family="Times,serif" font-size="14.00">ApiquesAforosComponent</text>
</g>
<!-- ApiquesAforosModule -->
<g id="node7" class="node">
<title>ApiquesAforosModule</title>
<polygon fill="#8dd3c7" stroke="black" points="888.58,-149.8 885.58,-153.8 864.58,-153.8 861.58,-149.8 743.42,-149.8 743.42,-113.8 888.58,-113.8 888.58,-149.8"/>
<text text-anchor="middle" x="816" y="-127.6" font-family="Times,serif" font-size="14.00">ApiquesAforosModule</text>
</g>
<!-- ApiquesAforosComponent&#45;&gt;ApiquesAforosModule -->
<g id="edge1" class="edge">
<title>ApiquesAforosComponent&#45;&gt;ApiquesAforosModule</title>
<path fill="none" stroke="black" d="M1501,-85.09C1501,-107.01 1501,-140.8 1501,-140.8 1501,-140.8 898.66,-140.8 898.66,-140.8"/>
<polygon fill="black" stroke="black" points="898.66,-137.3 888.66,-140.8 898.66,-144.3 898.66,-137.3"/>
</g>
<!-- AsociarAforosComponent -->
<g id="node2" class="node">
<title>AsociarAforosComponent</title>
<polygon fill="#ffffb3" stroke="black" points="1399.74,-84.8 1236.26,-84.8 1236.26,-48.8 1399.74,-48.8 1399.74,-84.8"/>
<text text-anchor="middle" x="1318" y="-62.6" font-family="Times,serif" font-size="14.00">AsociarAforosComponent</text>
</g>
<!-- AsociarAforosComponent&#45;&gt;ApiquesAforosModule -->
<g id="edge2" class="edge">
<title>AsociarAforosComponent&#45;&gt;ApiquesAforosModule</title>
<path fill="none" stroke="black" d="M1318,-84.91C1318,-104.14 1318,-131.8 1318,-131.8 1318,-131.8 898.73,-131.8 898.73,-131.8"/>
<polygon fill="black" stroke="black" points="898.73,-128.3 888.73,-131.8 898.73,-135.3 898.73,-128.3"/>
</g>
<!-- RealizarSolicitudesComponent -->
<g id="node3" class="node">
<title>RealizarSolicitudesComponent</title>
<polygon fill="#ffffb3" stroke="black" points="1218.19,-84.8 1027.81,-84.8 1027.81,-48.8 1218.19,-48.8 1218.19,-84.8"/>
<text text-anchor="middle" x="1123" y="-62.6" font-family="Times,serif" font-size="14.00">RealizarSolicitudesComponent</text>
</g>
<!-- RealizarSolicitudesComponent&#45;&gt;ApiquesAforosModule -->
<g id="edge3" class="edge">
<title>RealizarSolicitudesComponent&#45;&gt;ApiquesAforosModule</title>
<path fill="none" stroke="black" d="M1123,-84.83C1123,-101.2 1123,-122.8 1123,-122.8 1123,-122.8 898.75,-122.8 898.75,-122.8"/>
<polygon fill="black" stroke="black" points="898.75,-119.3 888.75,-122.8 898.75,-126.3 898.75,-119.3"/>
</g>
<!-- SolicitudDialogComponent -->
<g id="node4" class="node">
<title>SolicitudDialogComponent</title>
<polygon fill="#ffffb3" stroke="black" points="1009.99,-84.8 840.01,-84.8 840.01,-48.8 1009.99,-48.8 1009.99,-84.8"/>
<text text-anchor="middle" x="925" y="-62.6" font-family="Times,serif" font-size="14.00">SolicitudDialogComponent</text>
</g>
<!-- SolicitudDialogComponent&#45;&gt;ApiquesAforosModule -->
<g id="edge4" class="edge">
<title>SolicitudDialogComponent&#45;&gt;ApiquesAforosModule</title>
<path fill="none" stroke="black" d="M864.27,-84.91C864.27,-84.91 864.27,-103.79 864.27,-103.79"/>
<polygon fill="black" stroke="black" points="860.77,-103.79 864.27,-113.79 867.77,-103.79 860.77,-103.79"/>
</g>
<!-- SolicitudesApiquesAforosComponent -->
<g id="node5" class="node">
<title>SolicitudesApiquesAforosComponent</title>
<polygon fill="#ffffb3" stroke="black" points="821.58,-84.8 592.42,-84.8 592.42,-48.8 821.58,-48.8 821.58,-84.8"/>
<text text-anchor="middle" x="707" y="-62.6" font-family="Times,serif" font-size="14.00">SolicitudesApiquesAforosComponent</text>
</g>
<!-- SolicitudesApiquesAforosComponent&#45;&gt;ApiquesAforosModule -->
<g id="edge5" class="edge">
<title>SolicitudesApiquesAforosComponent&#45;&gt;ApiquesAforosModule</title>
<path fill="none" stroke="black" d="M782.5,-84.91C782.5,-84.91 782.5,-103.79 782.5,-103.79"/>
<polygon fill="black" stroke="black" points="779,-103.79 782.5,-113.79 786,-103.79 779,-103.79"/>
</g>
<!-- TablaPendientesApiquesComponent -->
<g id="node6" class="node">
<title>TablaPendientesApiquesComponent</title>
<polygon fill="#ffffb3" stroke="black" points="574.01,-84.8 353.99,-84.8 353.99,-48.8 574.01,-48.8 574.01,-84.8"/>
<text text-anchor="middle" x="464" y="-62.6" font-family="Times,serif" font-size="14.00">TablaPendientesApiquesComponent</text>
</g>
<!-- TablaPendientesApiquesComponent&#45;&gt;ApiquesAforosModule -->
<g id="edge6" class="edge">
<title>TablaPendientesApiquesComponent&#45;&gt;ApiquesAforosModule</title>
<path fill="none" stroke="black" d="M464,-84.83C464,-101.2 464,-122.8 464,-122.8 464,-122.8 733.07,-122.8 733.07,-122.8"/>
<polygon fill="black" stroke="black" points="733.07,-126.3 743.07,-122.8 733.07,-119.3 733.07,-126.3"/>
</g>
<!-- ApiquesAforosRoutingModule -->
<g id="node8" class="node">
<title>ApiquesAforosRoutingModule</title>
<polygon fill="#8dd3c7" stroke="black" points="330.2,-84.8 327.2,-88.8 306.2,-88.8 303.2,-84.8 139.8,-84.8 139.8,-48.8 330.2,-48.8 330.2,-84.8"/>
<text text-anchor="middle" x="235" y="-62.6" font-family="Times,serif" font-size="14.00">ApiquesAforosRoutingModule</text>
</g>
<!-- ApiquesAforosRoutingModule&#45;&gt;ApiquesAforosModule -->
<g id="edge7" class="edge">
<title>ApiquesAforosRoutingModule&#45;&gt;ApiquesAforosModule</title>
<path fill="none" stroke="black" d="M235,-84.91C235,-104.14 235,-131.8 235,-131.8 235,-131.8 733.3,-131.8 733.3,-131.8"/>
<polygon fill="black" stroke="black" points="733.3,-135.3 743.3,-131.8 733.3,-128.3 733.3,-135.3"/>
</g>
<!-- SharedModule -->
<g id="node9" class="node">
<title>SharedModule</title>
<polygon fill="#8dd3c7" stroke="black" points="122.42,-84.8 119.42,-88.8 98.42,-88.8 95.42,-84.8 23.58,-84.8 23.58,-48.8 122.42,-48.8 122.42,-84.8"/>
<text text-anchor="middle" x="73" y="-62.6" font-family="Times,serif" font-size="14.00">SharedModule</text>
</g>
<!-- SharedModule&#45;&gt;ApiquesAforosModule -->
<g id="edge8" class="edge">
<title>SharedModule&#45;&gt;ApiquesAforosModule</title>
<path fill="none" stroke="black" d="M73,-85.09C73,-107.01 73,-140.8 73,-140.8 73,-140.8 733.41,-140.8 733.41,-140.8"/>
<polygon fill="black" stroke="black" points="733.41,-144.3 743.41,-140.8 733.41,-137.3 733.41,-144.3"/>
</g>
</g>
</svg>
