<?xml version="1.0" encoding="UTF-8" standalone="no"?>
<!DOCTYPE svg PUBLIC "-//W3C//DTD SVG 1.1//EN"
 "http://www.w3.org/Graphics/SVG/1.1/DTD/svg11.dtd">
<!-- Generated by graphviz version 2.47.3 (20210619.1520)
 -->
<!-- Title: dependencies Pages: 1 -->
<svg width="2840pt" height="174pt"
 viewBox="0.00 0.00 2840.00 173.80" xmlns="http://www.w3.org/2000/svg" xmlns:xlink="http://www.w3.org/1999/xlink">
<g id="graph0" class="graph" transform="scale(1 1) rotate(0) translate(4 169.8)">
<title>dependencies</title>
<polygon fill="white" stroke="transparent" points="-4,4 -4,-169.8 2836,-169.8 2836,4 -4,4"/>
<text text-anchor="middle" x="1416" y="-8.2" font-family="sans-serif" font-size="14.00">dependencies</text>
<g id="clust1" class="cluster">
<title>cluster_CargueResultadoEnsayoModule</title>
<polygon fill="none" stroke="black" stroke-dasharray="1,5" points="8,-32.8 8,-157.8 2824,-157.8 2824,-32.8 8,-32.8"/>
</g>
<g id="clust2" class="cluster">
<title>cluster_CargueResultadoEnsayoModule_declarations</title>
<polygon fill="none" stroke="black" points="634,-40.8 634,-92.8 2816,-92.8 2816,-40.8 634,-40.8"/>
</g>
<g id="clust14" class="cluster">
<title>cluster_CargueResultadoEnsayoModule_imports</title>
<polygon fill="none" stroke="black" points="16,-40.8 16,-92.8 626,-92.8 626,-40.8 16,-40.8"/>
</g>
<!-- GestionSolicitudComponent -->
<g id="node1" class="node">
<title>GestionSolicitudComponent</title>
<polygon fill="#ffffb3" stroke="black" points="2807.94,-84.8 2632.06,-84.8 2632.06,-48.8 2807.94,-48.8 2807.94,-84.8"/>
<text text-anchor="middle" x="2720" y="-62.6" font-family="Times,serif" font-size="14.00">GestionSolicitudComponent</text>
</g>
<!-- CargueResultadoEnsayoModule -->
<g id="node12" class="node">
<title>CargueResultadoEnsayoModule</title>
<polygon fill="#8dd3c7" stroke="black" points="1506.68,-149.8 1503.68,-153.8 1482.68,-153.8 1479.68,-149.8 1309.32,-149.8 1309.32,-113.8 1506.68,-113.8 1506.68,-149.8"/>
<text text-anchor="middle" x="1408" y="-127.6" font-family="Times,serif" font-size="14.00">CargueResultadoEnsayoModule</text>
</g>
<!-- GestionSolicitudComponent&#45;&gt;CargueResultadoEnsayoModule -->
<g id="edge1" class="edge">
<title>GestionSolicitudComponent&#45;&gt;CargueResultadoEnsayoModule</title>
<path fill="none" stroke="black" d="M2720,-84.89C2720,-107.93 2720,-144.8 2720,-144.8 2720,-144.8 1516.61,-144.8 1516.61,-144.8"/>
<polygon fill="black" stroke="black" points="1516.61,-141.3 1506.61,-144.8 1516.61,-148.3 1516.61,-141.3"/>
</g>
<!-- InformeSolicitudComponent -->
<g id="node2" class="node">
<title>InformeSolicitudComponent</title>
<polygon fill="#ffffb3" stroke="black" points="2614.48,-84.8 2437.52,-84.8 2437.52,-48.8 2614.48,-48.8 2614.48,-84.8"/>
<text text-anchor="middle" x="2526" y="-62.6" font-family="Times,serif" font-size="14.00">InformeSolicitudComponent</text>
</g>
<!-- InformeSolicitudComponent&#45;&gt;CargueResultadoEnsayoModule -->
<g id="edge2" class="edge">
<title>InformeSolicitudComponent&#45;&gt;CargueResultadoEnsayoModule</title>
<path fill="none" stroke="black" d="M2526,-84.84C2526,-106.46 2526,-139.8 2526,-139.8 2526,-139.8 1516.72,-139.8 1516.72,-139.8"/>
<polygon fill="black" stroke="black" points="1516.72,-136.3 1506.72,-139.8 1516.72,-143.3 1516.72,-136.3"/>
</g>
<!-- ModalCargueArchivoComponent -->
<g id="node3" class="node">
<title>ModalCargueArchivoComponent</title>
<polygon fill="#ffffb3" stroke="black" points="2419.18,-84.8 2214.82,-84.8 2214.82,-48.8 2419.18,-48.8 2419.18,-84.8"/>
<text text-anchor="middle" x="2317" y="-62.6" font-family="Times,serif" font-size="14.00">ModalCargueArchivoComponent</text>
</g>
<!-- ModalCargueArchivoComponent&#45;&gt;CargueResultadoEnsayoModule -->
<g id="edge3" class="edge">
<title>ModalCargueArchivoComponent&#45;&gt;CargueResultadoEnsayoModule</title>
<path fill="none" stroke="black" d="M2317,-85.02C2317,-105.17 2317,-134.8 2317,-134.8 2317,-134.8 1517.01,-134.8 1517.01,-134.8"/>
<polygon fill="black" stroke="black" points="1517.01,-131.3 1507.01,-134.8 1517.01,-138.3 1517.01,-131.3"/>
</g>
<!-- ModalConfirmarComponent -->
<g id="node4" class="node">
<title>ModalConfirmarComponent</title>
<polygon fill="#ffffb3" stroke="black" points="2197.2,-84.8 2020.8,-84.8 2020.8,-48.8 2197.2,-48.8 2197.2,-84.8"/>
<text text-anchor="middle" x="2109" y="-62.6" font-family="Times,serif" font-size="14.00">ModalConfirmarComponent</text>
</g>
<!-- ModalConfirmarComponent&#45;&gt;CargueResultadoEnsayoModule -->
<g id="edge4" class="edge">
<title>ModalConfirmarComponent&#45;&gt;CargueResultadoEnsayoModule</title>
<path fill="none" stroke="black" d="M2109,-85.02C2109,-103.63 2109,-129.8 2109,-129.8 2109,-129.8 1516.95,-129.8 1516.95,-129.8"/>
<polygon fill="black" stroke="black" points="1516.95,-126.3 1506.95,-129.8 1516.95,-133.3 1516.95,-126.3"/>
</g>
<!-- ModalDescargaArchivoComponent -->
<g id="node5" class="node">
<title>ModalDescargaArchivoComponent</title>
<polygon fill="#ffffb3" stroke="black" points="2002.82,-84.8 1787.18,-84.8 1787.18,-48.8 2002.82,-48.8 2002.82,-84.8"/>
<text text-anchor="middle" x="1895" y="-62.6" font-family="Times,serif" font-size="14.00">ModalDescargaArchivoComponent</text>
</g>
<!-- ModalDescargaArchivoComponent&#45;&gt;CargueResultadoEnsayoModule -->
<g id="edge5" class="edge">
<title>ModalDescargaArchivoComponent&#45;&gt;CargueResultadoEnsayoModule</title>
<path fill="none" stroke="black" d="M1895,-84.83C1895,-101.86 1895,-124.8 1895,-124.8 1895,-124.8 1516.85,-124.8 1516.85,-124.8"/>
<polygon fill="black" stroke="black" points="1516.85,-121.3 1506.85,-124.8 1516.85,-128.3 1516.85,-121.3"/>
</g>
<!-- ModalVersionComponent -->
<g id="node6" class="node">
<title>ModalVersionComponent</title>
<polygon fill="#ffffb3" stroke="black" points="1769.2,-84.8 1606.8,-84.8 1606.8,-48.8 1769.2,-48.8 1769.2,-84.8"/>
<text text-anchor="middle" x="1688" y="-62.6" font-family="Times,serif" font-size="14.00">ModalVersionComponent</text>
</g>
<!-- ModalVersionComponent&#45;&gt;CargueResultadoEnsayoModule -->
<g id="edge6" class="edge">
<title>ModalVersionComponent&#45;&gt;CargueResultadoEnsayoModule</title>
<path fill="none" stroke="black" d="M1688,-85.04C1688,-100.37 1688,-119.8 1688,-119.8 1688,-119.8 1516.72,-119.8 1516.72,-119.8"/>
<polygon fill="black" stroke="black" points="1516.72,-116.3 1506.72,-119.8 1516.72,-123.3 1516.72,-116.3"/>
</g>
<!-- ResultadoEnsayoComponent -->
<g id="node7" class="node">
<title>ResultadoEnsayoComponent</title>
<polygon fill="#ffffb3" stroke="black" points="1589.04,-84.8 1410.96,-84.8 1410.96,-48.8 1589.04,-48.8 1589.04,-84.8"/>
<text text-anchor="middle" x="1500" y="-62.6" font-family="Times,serif" font-size="14.00">ResultadoEnsayoComponent</text>
</g>
<!-- ResultadoEnsayoComponent&#45;&gt;CargueResultadoEnsayoModule -->
<g id="edge7" class="edge">
<title>ResultadoEnsayoComponent&#45;&gt;CargueResultadoEnsayoModule</title>
<path fill="none" stroke="black" d="M1458.66,-84.91C1458.66,-84.91 1458.66,-103.79 1458.66,-103.79"/>
<polygon fill="black" stroke="black" points="1455.16,-103.79 1458.66,-113.79 1462.16,-103.79 1455.16,-103.79"/>
</g>
<!-- TableEnsayoComponent -->
<g id="node8" class="node">
<title>TableEnsayoComponent</title>
<polygon fill="#ffffb3" stroke="black" points="1393.42,-84.8 1238.58,-84.8 1238.58,-48.8 1393.42,-48.8 1393.42,-84.8"/>
<text text-anchor="middle" x="1316" y="-62.6" font-family="Times,serif" font-size="14.00">TableEnsayoComponent</text>
</g>
<!-- TableEnsayoComponent&#45;&gt;CargueResultadoEnsayoModule -->
<g id="edge8" class="edge">
<title>TableEnsayoComponent&#45;&gt;CargueResultadoEnsayoModule</title>
<path fill="none" stroke="black" d="M1351.31,-84.91C1351.31,-84.91 1351.31,-103.79 1351.31,-103.79"/>
<polygon fill="black" stroke="black" points="1347.81,-103.79 1351.31,-113.79 1354.81,-103.79 1347.81,-103.79"/>
</g>
<!-- TableInformeComponent -->
<g id="node9" class="node">
<title>TableInformeComponent</title>
<polygon fill="#ffffb3" stroke="black" points="1221.29,-84.8 1062.71,-84.8 1062.71,-48.8 1221.29,-48.8 1221.29,-84.8"/>
<text text-anchor="middle" x="1142" y="-62.6" font-family="Times,serif" font-size="14.00">TableInformeComponent</text>
</g>
<!-- TableInformeComponent&#45;&gt;CargueResultadoEnsayoModule -->
<g id="edge9" class="edge">
<title>TableInformeComponent&#45;&gt;CargueResultadoEnsayoModule</title>
<path fill="none" stroke="black" d="M1142,-85.04C1142,-100.37 1142,-119.8 1142,-119.8 1142,-119.8 1299.33,-119.8 1299.33,-119.8"/>
<polygon fill="black" stroke="black" points="1299.33,-123.3 1309.33,-119.8 1299.33,-116.3 1299.33,-123.3"/>
</g>
<!-- TableVersionSolicitudComponent -->
<g id="node10" class="node">
<title>TableVersionSolicitudComponent</title>
<polygon fill="#ffffb3" stroke="black" points="1045.08,-84.8 836.92,-84.8 836.92,-48.8 1045.08,-48.8 1045.08,-84.8"/>
<text text-anchor="middle" x="941" y="-62.6" font-family="Times,serif" font-size="14.00">TableVersionSolicitudComponent</text>
</g>
<!-- TableVersionSolicitudComponent&#45;&gt;CargueResultadoEnsayoModule -->
<g id="edge10" class="edge">
<title>TableVersionSolicitudComponent&#45;&gt;CargueResultadoEnsayoModule</title>
<path fill="none" stroke="black" d="M941,-84.83C941,-101.86 941,-124.8 941,-124.8 941,-124.8 1299.25,-124.8 1299.25,-124.8"/>
<polygon fill="black" stroke="black" points="1299.25,-128.3 1309.25,-124.8 1299.25,-121.3 1299.25,-128.3"/>
</g>
<!-- TabsDistribuidorComponent -->
<g id="node11" class="node">
<title>TabsDistribuidorComponent</title>
<polygon fill="#ffffb3" stroke="black" points="818.48,-84.8 641.52,-84.8 641.52,-48.8 818.48,-48.8 818.48,-84.8"/>
<text text-anchor="middle" x="730" y="-62.6" font-family="Times,serif" font-size="14.00">TabsDistribuidorComponent</text>
</g>
<!-- TabsDistribuidorComponent&#45;&gt;CargueResultadoEnsayoModule -->
<g id="edge11" class="edge">
<title>TabsDistribuidorComponent&#45;&gt;CargueResultadoEnsayoModule</title>
<path fill="none" stroke="black" d="M730,-85.02C730,-103.63 730,-129.8 730,-129.8 730,-129.8 1299.05,-129.8 1299.05,-129.8"/>
<polygon fill="black" stroke="black" points="1299.05,-133.3 1309.05,-129.8 1299.05,-126.3 1299.05,-133.3"/>
</g>
<!-- CargueResultadoEnsayoRoutingModule -->
<g id="node13" class="node">
<title>CargueResultadoEnsayoRoutingModule</title>
<polygon fill="#8dd3c7" stroke="black" points="618.3,-84.8 615.3,-88.8 594.3,-88.8 591.3,-84.8 375.7,-84.8 375.7,-48.8 618.3,-48.8 618.3,-84.8"/>
<text text-anchor="middle" x="497" y="-62.6" font-family="Times,serif" font-size="14.00">CargueResultadoEnsayoRoutingModule</text>
</g>
<!-- CargueResultadoEnsayoRoutingModule&#45;&gt;CargueResultadoEnsayoModule -->
<g id="edge12" class="edge">
<title>CargueResultadoEnsayoRoutingModule&#45;&gt;CargueResultadoEnsayoModule</title>
<path fill="none" stroke="black" d="M497,-85.02C497,-105.17 497,-134.8 497,-134.8 497,-134.8 1299.21,-134.8 1299.21,-134.8"/>
<polygon fill="black" stroke="black" points="1299.21,-138.3 1309.21,-134.8 1299.21,-131.3 1299.21,-138.3"/>
</g>
<!-- SharedModule -->
<g id="node14" class="node">
<title>SharedModule</title>
<polygon fill="#8dd3c7" stroke="black" points="358.42,-84.8 355.42,-88.8 334.42,-88.8 331.42,-84.8 259.58,-84.8 259.58,-48.8 358.42,-48.8 358.42,-84.8"/>
<text text-anchor="middle" x="309" y="-62.6" font-family="Times,serif" font-size="14.00">SharedModule</text>
</g>
<!-- SharedModule&#45;&gt;CargueResultadoEnsayoModule -->
<g id="edge13" class="edge">
<title>SharedModule&#45;&gt;CargueResultadoEnsayoModule</title>
<path fill="none" stroke="black" d="M309,-84.84C309,-106.46 309,-139.8 309,-139.8 309,-139.8 1299.02,-139.8 1299.02,-139.8"/>
<polygon fill="black" stroke="black" points="1299.02,-143.3 1309.02,-139.8 1299.02,-136.3 1299.02,-143.3"/>
</g>
<!-- SolicitudEnsayoLaboratorioModule -->
<g id="node15" class="node">
<title>SolicitudEnsayoLaboratorioModule</title>
<polygon fill="#8dd3c7" stroke="black" points="241.91,-84.8 238.91,-88.8 217.91,-88.8 214.91,-84.8 24.09,-84.8 24.09,-48.8 241.91,-48.8 241.91,-84.8"/>
<text text-anchor="middle" x="133" y="-62.6" font-family="Times,serif" font-size="14.00">SolicitudEnsayoLaboratorioModule</text>
</g>
<!-- SolicitudEnsayoLaboratorioModule&#45;&gt;CargueResultadoEnsayoModule -->
<g id="edge14" class="edge">
<title>SolicitudEnsayoLaboratorioModule&#45;&gt;CargueResultadoEnsayoModule</title>
<path fill="none" stroke="black" d="M133,-84.89C133,-107.93 133,-144.8 133,-144.8 133,-144.8 1299.28,-144.8 1299.28,-144.8"/>
<polygon fill="black" stroke="black" points="1299.28,-148.3 1309.28,-144.8 1299.28,-141.3 1299.28,-148.3"/>
</g>
</g>
</svg>
